STARTFONT 2.1
COMMENT
COMMENT Converted from OpenType font "ipaexg.ttf" by "otf2bdf 3.0".
COMMENT
FONT -FreeType-IPAexGothic-Medium-R-Normal--12-120-72-72-P-103-ISO10646-1
SIZE 12 72 72
FONTBOUNDINGBOX 15 15 -3 -3
STARTPROPERTIES 19
FOUNDRY "FreeType"
FAMILY_NAME "IPAexGothic"
WEIGHT_NAME "Medium"
SLANT "R"
SETWIDTH_NAME "Normal"
ADD_STYLE_NAME ""
PIXEL_SIZE 12
POINT_SIZE 120
RESOLUTION_X 72
RESOLUTION_Y 72
SPACING "P"
AVERAGE_WIDTH 103
CHARSET_REGISTRY "ISO10646"
CHARSET_ENCODING "1"
FONT_ASCENT 10
FONT_DESCENT 1
COPYRIGHT "Copyright(c) Information-technology Promotion Agency, Japan (IPA), 2003-2019. You must accept "https://opensource.org/licenses/IPA/" to use this product."
_OTF_FONTFILE "ipaexg.ttf"
_OTF_PSNAME "IPAexGothic"
ENDPROPERTIES
CHARS 11691
STARTCHAR 0020
ENCODING 32
SWIDTH 250 0
DWIDTH 3 0
BBX 0 0 0 0
BITMAP
ENDCHAR
STARTCHAR 0021
ENCODING 33
SWIDTH 333 0
DWIDTH 4 0
BBX 1 9 1 0
BITMAP
80
80
80
80
80
80
80
00
80
ENDCHAR
STARTCHAR 0022
ENCODING 34
SWIDTH 333 0
DWIDTH 4 0
BBX 2 3 1 6
BITMAP
C0
C0
C0
ENDCHAR
STARTCHAR 0023
ENCODING 35
SWIDTH 666 0
DWIDTH 8 0
BBX 6 9 1 0
BITMAP
28
28
48
FC
50
FC
50
90
90
ENDCHAR
STARTCHAR 0024
ENCODING 36
SWIDTH 666 0
DWIDTH 8 0
BBX 6 11 1 -1
BITMAP
20
30
C8
80
C0
30
08
04
88
70
20
ENDCHAR
STARTCHAR 0025
ENCODING 37
SWIDTH 833 0
DWIDTH 10 0
BBX 9 9 1 0
BITMAP
E200
A200
A400
A800
F700
1500
2480
4500
4700
ENDCHAR
STARTCHAR 0026
ENCODING 38
SWIDTH 666 0
DWIDTH 8 0
BBX 7 9 1 0
BITMAP
70
48
48
50
60
94
8C
8C
F2
ENDCHAR
STARTCHAR 0027
ENCODING 39
SWIDTH 166 0
DWIDTH 2 0
BBX 1 3 1 6
BITMAP
80
80
80
ENDCHAR
STARTCHAR 0028
ENCODING 40
SWIDTH 333 0
DWIDTH 4 0
BBX 3 11 1 -2
BITMAP
40
40
80
80
80
80
80
80
80
40
20
ENDCHAR
STARTCHAR 0029
ENCODING 41
SWIDTH 333 0
DWIDTH 4 0
BBX 3 11 0 -2
BITMAP
80
40
20
20
20
20
20
20
40
40
80
ENDCHAR
STARTCHAR 002A
ENCODING 42
SWIDTH 333 0
DWIDTH 4 0
BBX 3 4 1 5
BITMAP
40
E0
C0
40
ENDCHAR
STARTCHAR 002B
ENCODING 43
SWIDTH 666 0
DWIDTH 8 0
BBX 6 6 1 1
BITMAP
20
20
FC
20
20
20
ENDCHAR
STARTCHAR 002C
ENCODING 44
SWIDTH 250 0
DWIDTH 3 0
BBX 2 3 0 -2
BITMAP
40
40
80
ENDCHAR
STARTCHAR 002D
ENCODING 45
SWIDTH 333 0
DWIDTH 4 0
BBX 3 1 1 3
BITMAP
E0
ENDCHAR
STARTCHAR 002E
ENCODING 46
SWIDTH 250 0
DWIDTH 3 0
BBX 1 1 1 0
BITMAP
80
ENDCHAR
STARTCHAR 002F
ENCODING 47
SWIDTH 500 0
DWIDTH 6 0
BBX 4 10 1 -1
BITMAP
10
10
20
20
40
40
40
80
80
80
ENDCHAR
STARTCHAR 0030
ENCODING 48
SWIDTH 666 0
DWIDTH 8 0
BBX 6 9 1 0
BITMAP
70
C8
84
84
84
84
84
C8
70
ENDCHAR
STARTCHAR 0031
ENCODING 49
SWIDTH 666 0
DWIDTH 8 0
BBX 4 9 1 0
BITMAP
30
D0
10
10
10
10
10
10
10
ENDCHAR
STARTCHAR 0032
ENCODING 50
SWIDTH 666 0
DWIDTH 8 0
BBX 6 9 1 0
BITMAP
78
C8
84
0C
18
30
40
80
FC
ENDCHAR
STARTCHAR 0033
ENCODING 51
SWIDTH 666 0
DWIDTH 8 0
BBX 6 9 1 0
BITMAP
70
88
08
08
30
08
04
88
78
ENDCHAR
STARTCHAR 0034
ENCODING 52
SWIDTH 666 0
DWIDTH 8 0
BBX 7 9 0 0
BITMAP
0C
0C
14
24
64
44
FE
04
04
ENDCHAR
STARTCHAR 0035
ENCODING 53
SWIDTH 666 0
DWIDTH 8 0
BBX 6 9 1 0
BITMAP
78
80
80
B8
CC
04
04
88
78
ENDCHAR
STARTCHAR 0036
ENCODING 54
SWIDTH 666 0
DWIDTH 8 0
BBX 6 9 1 0
BITMAP
38
40
80
B8
CC
84
84
4C
78
ENDCHAR
STARTCHAR 0037
ENCODING 55
SWIDTH 666 0
DWIDTH 8 0
BBX 6 9 1 0
BITMAP
FC
08
08
10
10
20
20
20
40
ENDCHAR
STARTCHAR 0038
ENCODING 56
SWIDTH 666 0
DWIDTH 8 0
BBX 6 9 1 0
BITMAP
78
8C
84
C8
70
8C
84
8C
78
ENDCHAR
STARTCHAR 0039
ENCODING 57
SWIDTH 666 0
DWIDTH 8 0
BBX 6 9 1 0
BITMAP
70
88
88
8C
8C
74
08
88
F0
ENDCHAR
STARTCHAR 003A
ENCODING 58
SWIDTH 333 0
DWIDTH 4 0
BBX 2 6 1 0
BITMAP
C0
00
00
00
00
C0
ENDCHAR
STARTCHAR 003B
ENCODING 59
SWIDTH 333 0
DWIDTH 4 0
BBX 2 8 1 -2
BITMAP
C0
00
00
00
00
80
80
80
ENDCHAR
STARTCHAR 003C
ENCODING 60
SWIDTH 666 0
DWIDTH 8 0
BBX 6 6 1 1
BITMAP
04
18
60
80
60
1C
ENDCHAR
STARTCHAR 003D
ENCODING 61
SWIDTH 666 0
DWIDTH 8 0
BBX 6 3 1 2
BITMAP
FC
00
FC
ENDCHAR
STARTCHAR 003E
ENCODING 62
SWIDTH 666 0
DWIDTH 8 0
BBX 6 6 1 1
BITMAP
80
60
18
04
18
E0
ENDCHAR
STARTCHAR 003F
ENCODING 63
SWIDTH 583 0
DWIDTH 7 0
BBX 6 9 0 0
BITMAP
38
4C
C4
0C
08
10
10
00
30
ENDCHAR
STARTCHAR 0040
ENCODING 64
SWIDTH 916 0
DWIDTH 11 0
BBX 9 9 1 0
BITMAP
3E00
6100
9E80
B280
A480
A500
9F00
4000
3E00
ENDCHAR
STARTCHAR 0041
ENCODING 65
SWIDTH 666 0
DWIDTH 8 0
BBX 7 9 0 0
BITMAP
18
18
28
24
24
7C
42
42
82
ENDCHAR
STARTCHAR 0042
ENCODING 66
SWIDTH 666 0
DWIDTH 8 0
BBX 6 9 1 0
BITMAP
F8
8C
84
8C
F0
8C
84
84
F8
ENDCHAR
STARTCHAR 0043
ENCODING 67
SWIDTH 750 0
DWIDTH 9 0
BBX 7 9 1 0
BITMAP
3C
46
82
80
80
80
80
42
3C
ENDCHAR
STARTCHAR 0044
ENCODING 68
SWIDTH 750 0
DWIDTH 9 0
BBX 7 9 1 0
BITMAP
F8
84
82
82
82
82
82
84
F8
ENDCHAR
STARTCHAR 0045
ENCODING 69
SWIDTH 583 0
DWIDTH 7 0
BBX 6 9 1 0
BITMAP
FC
80
80
80
F8
80
80
80
FC
ENDCHAR
STARTCHAR 0046
ENCODING 70
SWIDTH 583 0
DWIDTH 7 0
BBX 6 9 1 0
BITMAP
FC
80
80
80
F8
80
80
80
80
ENDCHAR
STARTCHAR 0047
ENCODING 71
SWIDTH 750 0
DWIDTH 9 0
BBX 7 9 1 0
BITMAP
3C
46
82
80
80
8E
82
42
3C
ENDCHAR
STARTCHAR 0048
ENCODING 72
SWIDTH 750 0
DWIDTH 9 0
BBX 7 9 1 0
BITMAP
82
82
82
82
FE
82
82
82
82
ENDCHAR
STARTCHAR 0049
ENCODING 73
SWIDTH 250 0
DWIDTH 3 0
BBX 1 9 1 0
BITMAP
80
80
80
80
80
80
80
80
80
ENDCHAR
STARTCHAR 004A
ENCODING 74
SWIDTH 416 0
DWIDTH 5 0
BBX 3 9 0 0
BITMAP
20
20
20
20
20
20
20
20
E0
ENDCHAR
STARTCHAR 004B
ENCODING 75
SWIDTH 666 0
DWIDTH 8 0
BBX 6 9 1 0
BITMAP
84
88
90
A0
E0
90
88
8C
84
ENDCHAR
STARTCHAR 004C
ENCODING 76
SWIDTH 500 0
DWIDTH 6 0
BBX 5 9 1 0
BITMAP
80
80
80
80
80
80
80
80
F8
ENDCHAR
STARTCHAR 004D
ENCODING 77
SWIDTH 916 0
DWIDTH 11 0
BBX 9 9 1 0
BITMAP
C180
C280
A280
A280
A480
9480
9880
8880
8080
ENDCHAR
STARTCHAR 004E
ENCODING 78
SWIDTH 750 0
DWIDTH 9 0
BBX 7 9 1 0
BITMAP
C2
E2
A2
92
9A
8A
86
86
82
ENDCHAR
STARTCHAR 004F
ENCODING 79
SWIDTH 833 0
DWIDTH 10 0
BBX 8 9 1 0
BITMAP
3C
46
82
81
81
81
82
46
3C
ENDCHAR
STARTCHAR 0050
ENCODING 80
SWIDTH 583 0
DWIDTH 7 0
BBX 6 10 1 -1
BITMAP
F8
8C
84
84
8C
F8
80
80
80
80
ENDCHAR
STARTCHAR 0051
ENCODING 81
SWIDTH 833 0
DWIDTH 10 0
BBX 8 10 1 -1
BITMAP
3C
46
82
81
81
81
8A
46
3E
01
ENDCHAR
STARTCHAR 0052
ENCODING 82
SWIDTH 666 0
DWIDTH 8 0
BBX 6 9 1 0
BITMAP
F8
8C
84
8C
F0
88
88
84
84
ENDCHAR
STARTCHAR 0053
ENCODING 83
SWIDTH 583 0
DWIDTH 7 0
BBX 5 9 1 0
BITMAP
70
88
80
C0
70
08
08
88
70
ENDCHAR
STARTCHAR 0054
ENCODING 84
SWIDTH 583 0
DWIDTH 7 0
BBX 7 9 0 0
BITMAP
FE
10
10
10
10
10
10
10
10
ENDCHAR
STARTCHAR 0055
ENCODING 85
SWIDTH 750 0
DWIDTH 9 0
BBX 7 9 1 0
BITMAP
82
82
82
82
82
82
82
C6
7C
ENDCHAR
STARTCHAR 0056
ENCODING 86
SWIDTH 666 0
DWIDTH 8 0
BBX 7 9 0 0
BITMAP
82
42
42
44
24
28
18
18
10
ENDCHAR
STARTCHAR 0057
ENCODING 87
SWIDTH 916 0
DWIDTH 11 0
BBX 11 9 0 0
BITMAP
8420
4420
4A40
4A40
6A40
2980
3180
3180
1000
ENDCHAR
STARTCHAR 0058
ENCODING 88
SWIDTH 666 0
DWIDTH 8 0
BBX 7 9 1 0
BITMAP
84
C4
48
30
30
30
48
C4
86
ENDCHAR
STARTCHAR 0059
ENCODING 89
SWIDTH 583 0
DWIDTH 7 0
BBX 7 9 0 0
BITMAP
C2
44
24
38
10
10
10
10
10
ENDCHAR
STARTCHAR 005A
ENCODING 90
SWIDTH 666 0
DWIDTH 8 0
BBX 7 9 0 0
BITMAP
7E
06
04
08
10
30
20
40
FE
ENDCHAR
STARTCHAR 005B
ENCODING 91
SWIDTH 333 0
DWIDTH 4 0
BBX 2 11 1 -2
BITMAP
C0
80
80
80
80
80
80
80
80
80
C0
ENDCHAR
STARTCHAR 005C
ENCODING 92
SWIDTH 500 0
DWIDTH 6 0
BBX 4 10 1 -1
BITMAP
80
80
80
40
40
20
20
20
10
10
ENDCHAR
STARTCHAR 005D
ENCODING 93
SWIDTH 333 0
DWIDTH 4 0
BBX 2 11 0 -2
BITMAP
C0
40
40
40
40
40
40
40
40
40
C0
ENDCHAR
STARTCHAR 005E
ENCODING 94
SWIDTH 500 0
DWIDTH 6 0
BBX 4 3 1 4
BITMAP
60
A0
90
ENDCHAR
STARTCHAR 005F
ENCODING 95
SWIDTH 500 0
DWIDTH 6 0
BBX 6 1 0 -1
BITMAP
FC
ENDCHAR
STARTCHAR 0060
ENCODING 96
SWIDTH 500 0
DWIDTH 6 0
BBX 1 2 2 7
BITMAP
80
80
ENDCHAR
STARTCHAR 0061
ENCODING 97
SWIDTH 583 0
DWIDTH 7 0
BBX 5 6 1 0
BITMAP
70
98
38
C8
98
E8
ENDCHAR
STARTCHAR 0062
ENCODING 98
SWIDTH 583 0
DWIDTH 7 0
BBX 6 9 1 0
BITMAP
80
80
80
B8
CC
84
84
CC
F8
ENDCHAR
STARTCHAR 0063
ENCODING 99
SWIDTH 583 0
DWIDTH 7 0
BBX 5 6 1 0
BITMAP
70
88
80
80
88
70
ENDCHAR
STARTCHAR 0064
ENCODING 100
SWIDTH 583 0
DWIDTH 7 0
BBX 5 9 1 0
BITMAP
08
08
08
78
88
88
88
88
78
ENDCHAR
STARTCHAR 0065
ENCODING 101
SWIDTH 583 0
DWIDTH 7 0
BBX 5 6 1 0
BITMAP
70
88
F8
80
88
70
ENDCHAR
STARTCHAR 0066
ENCODING 102
SWIDTH 333 0
DWIDTH 4 0
BBX 5 9 0 0
BITMAP
38
40
40
F0
40
40
40
40
40
ENDCHAR
STARTCHAR 0067
ENCODING 103
SWIDTH 583 0
DWIDTH 7 0
BBX 5 8 1 -2
BITMAP
78
88
88
70
80
78
88
F8
ENDCHAR
STARTCHAR 0068
ENCODING 104
SWIDTH 583 0
DWIDTH 7 0
BBX 5 9 1 0
BITMAP
80
80
80
B8
C8
88
88
88
88
ENDCHAR
STARTCHAR 0069
ENCODING 105
SWIDTH 250 0
DWIDTH 3 0
BBX 1 9 1 0
BITMAP
80
00
80
80
80
80
80
80
80
ENDCHAR
STARTCHAR 006A
ENCODING 106
SWIDTH 250 0
DWIDTH 3 0
BBX 2 11 0 -2
BITMAP
40
00
40
40
40
40
40
40
40
40
80
ENDCHAR
STARTCHAR 006B
ENCODING 107
SWIDTH 500 0
DWIDTH 6 0
BBX 5 9 1 0
BITMAP
80
80
80
90
A0
C0
A0
90
98
ENDCHAR
STARTCHAR 006C
ENCODING 108
SWIDTH 250 0
DWIDTH 3 0
BBX 1 9 1 0
BITMAP
80
80
80
80
80
80
80
80
80
ENDCHAR
STARTCHAR 006D
ENCODING 109
SWIDTH 833 0
DWIDTH 10 0
BBX 8 6 1 0
BITMAP
F7
89
89
89
89
89
ENDCHAR
STARTCHAR 006E
ENCODING 110
SWIDTH 583 0
DWIDTH 7 0
BBX 5 6 1 0
BITMAP
B8
C8
88
88
88
88
ENDCHAR
STARTCHAR 006F
ENCODING 111
SWIDTH 583 0
DWIDTH 7 0
BBX 6 6 1 0
BITMAP
70
88
8C
8C
88
70
ENDCHAR
STARTCHAR 0070
ENCODING 112
SWIDTH 583 0
DWIDTH 7 0
BBX 6 8 1 -2
BITMAP
B8
CC
84
84
CC
F8
80
80
ENDCHAR
STARTCHAR 0071
ENCODING 113
SWIDTH 583 0
DWIDTH 7 0
BBX 5 8 1 -2
BITMAP
78
88
88
88
88
78
08
08
ENDCHAR
STARTCHAR 0072
ENCODING 114
SWIDTH 333 0
DWIDTH 4 0
BBX 3 6 1 0
BITMAP
A0
C0
80
80
80
80
ENDCHAR
STARTCHAR 0073
ENCODING 115
SWIDTH 500 0
DWIDTH 6 0
BBX 4 6 1 0
BITMAP
F0
80
80
70
10
E0
ENDCHAR
STARTCHAR 0074
ENCODING 116
SWIDTH 333 0
DWIDTH 4 0
BBX 4 7 0 1
BITMAP
40
F0
40
40
40
40
70
ENDCHAR
STARTCHAR 0075
ENCODING 117
SWIDTH 583 0
DWIDTH 7 0
BBX 5 6 1 0
BITMAP
88
88
88
88
88
78
ENDCHAR
STARTCHAR 0076
ENCODING 118
SWIDTH 500 0
DWIDTH 6 0
BBX 6 6 0 0
BITMAP
84
48
48
30
30
20
ENDCHAR
STARTCHAR 0077
ENCODING 119
SWIDTH 750 0
DWIDTH 9 0
BBX 9 6 0 0
BITMAP
8880
5900
5500
5500
2600
2200
ENDCHAR
STARTCHAR 0078
ENCODING 120
SWIDTH 500 0
DWIDTH 6 0
BBX 5 6 0 0
BITMAP
48
48
30
30
48
C8
ENDCHAR
STARTCHAR 0079
ENCODING 121
SWIDTH 500 0
DWIDTH 6 0
BBX 6 8 0 -2
BITMAP
84
48
48
30
30
10
20
60
ENDCHAR
STARTCHAR 007A
ENCODING 122
SWIDTH 500 0
DWIDTH 6 0
BBX 5 6 0 0
BITMAP
78
18
10
20
40
F8
ENDCHAR
STARTCHAR 007B
ENCODING 123
SWIDTH 333 0
DWIDTH 4 0
BBX 3 11 1 -2
BITMAP
60
80
80
80
80
80
80
80
80
80
60
ENDCHAR
STARTCHAR 007C
ENCODING 124
SWIDTH 166 0
DWIDTH 2 0
BBX 1 11 1 -2
BITMAP
80
80
80
80
80
80
80
80
80
80
80
ENDCHAR
STARTCHAR 007D
ENCODING 125
SWIDTH 333 0
DWIDTH 4 0
BBX 3 11 0 -2
BITMAP
C0
20
20
20
20
20
20
20
20
40
C0
ENDCHAR
STARTCHAR 007E
ENCODING 126
SWIDTH 500 0
DWIDTH 6 0
BBX 4 1 1 8
BITMAP
F0
ENDCHAR
STARTCHAR 00A0
ENCODING 160
SWIDTH 250 0
DWIDTH 3 0
BBX 0 0 0 0
BITMAP
ENDCHAR
STARTCHAR 00A1
ENCODING 161
SWIDTH 333 0
DWIDTH 4 0
BBX 1 9 1 0
BITMAP
80
00
80
80
80
80
80
80
80
ENDCHAR
STARTCHAR 00A2
ENCODING 162
SWIDTH 666 0
DWIDTH 8 0
BBX 6 9 1 0
BITMAP
08
70
D8
A0
A0
AC
78
40
40
ENDCHAR
STARTCHAR 00A3
ENCODING 163
SWIDTH 833 0
DWIDTH 10 0
BBX 8 9 1 0
BITMAP
1C
26
20
7C
10
F0
91
99
E6
ENDCHAR
STARTCHAR 00A4
ENCODING 164
SWIDTH 666 0
DWIDTH 8 0
BBX 6 5 1 1
BITMAP
F8
88
88
88
F4
ENDCHAR
STARTCHAR 00A5
ENCODING 165
SWIDTH 666 0
DWIDTH 8 0
BBX 7 9 0 0
BITMAP
C2
44
24
18
7E
10
7E
10
10
ENDCHAR
STARTCHAR 00A6
ENCODING 166
SWIDTH 166 0
DWIDTH 2 0
BBX 1 11 1 -2
BITMAP
80
80
80
80
80
00
80
80
80
80
80
ENDCHAR
STARTCHAR 00A7
ENCODING 167
SWIDTH 583 0
DWIDTH 7 0
BBX 5 11 1 -1
BITMAP
70
88
80
40
B0
88
48
30
08
88
70
ENDCHAR
STARTCHAR 00A8
ENCODING 168
SWIDTH 500 0
DWIDTH 6 0
BBX 4 1 1 7
BITMAP
90
ENDCHAR
STARTCHAR 00A9
ENCODING 169
SWIDTH 1000 0
DWIDTH 12 0
BBX 10 9 1 0
BITMAP
1E00
7F80
9380
A040
A040
A040
5380
7E80
1F00
ENDCHAR
STARTCHAR 00AA
ENCODING 170
SWIDTH 416 0
DWIDTH 5 0
BBX 4 6 1 3
BITMAP
E0
20
E0
E0
00
F0
ENDCHAR
STARTCHAR 00AB
ENCODING 171
SWIDTH 583 0
DWIDTH 7 0
BBX 5 5 1 1
BITMAP
28
50
90
50
48
ENDCHAR
STARTCHAR 00AC
ENCODING 172
SWIDTH 666 0
DWIDTH 8 0
BBX 6 3 1 2
BITMAP
FC
04
04
ENDCHAR
STARTCHAR 00AD
ENCODING 173
SWIDTH 666 0
DWIDTH 8 0
BBX 6 1 1 3
BITMAP
FC
ENDCHAR
STARTCHAR 00AE
ENCODING 174
SWIDTH 1000 0
DWIDTH 12 0
BBX 10 11 1 -1
BITMAP
1E00
2100
5E80
9240
9240
9E40
9240
9240
5180
2100
1E00
ENDCHAR
STARTCHAR 00AF
ENCODING 175
SWIDTH 500 0
DWIDTH 6 0
BBX 4 1 1 7
BITMAP
F0
ENDCHAR
STARTCHAR 00B0
ENCODING 176
SWIDTH 333 0
DWIDTH 4 0
BBX 2 3 1 7
BITMAP
C0
C0
C0
ENDCHAR
STARTCHAR 00B1
ENCODING 177
SWIDTH 666 0
DWIDTH 8 0
BBX 6 6 1 1
BITMAP
20
20
FC
20
00
FC
ENDCHAR
STARTCHAR 00B2
ENCODING 178
SWIDTH 416 0
DWIDTH 5 0
BBX 3 5 1 4
BITMAP
E0
20
40
80
E0
ENDCHAR
STARTCHAR 00B3
ENCODING 179
SWIDTH 416 0
DWIDTH 5 0
BBX 3 5 1 4
BITMAP
E0
20
60
20
E0
ENDCHAR
STARTCHAR 00B4
ENCODING 180
SWIDTH 500 0
DWIDTH 6 0
BBX 1 2 3 7
BITMAP
80
80
ENDCHAR
STARTCHAR 00B6
ENCODING 182
SWIDTH 1000 0
DWIDTH 12 0
BBX 5 11 3 -1
BITMAP
78
E8
E8
E8
68
28
28
28
28
28
28
ENDCHAR
STARTCHAR 00B7
ENCODING 183
SWIDTH 250 0
DWIDTH 3 0
BBX 1 1 1 3
BITMAP
80
ENDCHAR
STARTCHAR 00B8
ENCODING 184
SWIDTH 500 0
DWIDTH 6 0
BBX 2 3 2 -3
BITMAP
80
40
80
ENDCHAR
STARTCHAR 00B9
ENCODING 185
SWIDTH 416 0
DWIDTH 5 0
BBX 2 5 1 4
BITMAP
40
C0
40
40
40
ENDCHAR
STARTCHAR 00BA
ENCODING 186
SWIDTH 416 0
DWIDTH 5 0
BBX 4 6 1 3
BITMAP
E0
90
90
E0
00
F0
ENDCHAR
STARTCHAR 00BB
ENCODING 187
SWIDTH 583 0
DWIDTH 7 0
BBX 5 5 1 1
BITMAP
80
50
28
50
90
ENDCHAR
STARTCHAR 00BC
ENCODING 188
SWIDTH 833 0
DWIDTH 10 0
BBX 8 9 1 0
BITMAP
42
C2
44
48
4B
15
25
4F
41
ENDCHAR
STARTCHAR 00BD
ENCODING 189
SWIDTH 833 0
DWIDTH 10 0
BBX 9 9 1 0
BITMAP
4200
C200
4400
4800
4B00
1500
2100
4600
4780
ENDCHAR
STARTCHAR 00BE
ENCODING 190
SWIDTH 833 0
DWIDTH 10 0
BBX 8 9 1 0
BITMAP
E2
22
64
28
F3
15
25
4F
41
ENDCHAR
STARTCHAR 00BF
ENCODING 191
SWIDTH 583 0
DWIDTH 7 0
BBX 5 9 1 0
BITMAP
20
00
20
20
40
80
88
88
70
ENDCHAR
STARTCHAR 00C0
ENCODING 192
SWIDTH 666 0
DWIDTH 8 0
BBX 7 11 0 0
BITMAP
10
00
10
18
28
24
24
7C
42
42
82
ENDCHAR
STARTCHAR 00C1
ENCODING 193
SWIDTH 666 0
DWIDTH 8 0
BBX 7 11 0 0
BITMAP
08
10
10
18
28
24
24
7C
42
42
82
ENDCHAR
STARTCHAR 00C2
ENCODING 194
SWIDTH 666 0
DWIDTH 8 0
BBX 7 11 0 0
BITMAP
18
00
18
18
28
24
24
7C
42
42
82
ENDCHAR
STARTCHAR 00C3
ENCODING 195
SWIDTH 666 0
DWIDTH 8 0
BBX 7 11 0 0
BITMAP
3C
00
18
18
28
24
24
7C
42
42
82
ENDCHAR
STARTCHAR 00C4
ENCODING 196
SWIDTH 666 0
DWIDTH 8 0
BBX 7 11 0 0
BITMAP
24
00
18
18
28
24
24
7C
42
42
82
ENDCHAR
STARTCHAR 00C5
ENCODING 197
SWIDTH 666 0
DWIDTH 8 0
BBX 7 11 0 0
BITMAP
18
18
10
18
28
24
24
7C
42
42
82
ENDCHAR
STARTCHAR 00C6
ENCODING 198
SWIDTH 916 0
DWIDTH 11 0
BBX 10 9 0 0
BITMAP
0FC0
1400
1400
2400
2780
7C00
4400
4400
83C0
ENDCHAR
STARTCHAR 00C7
ENCODING 199
SWIDTH 750 0
DWIDTH 9 0
BBX 7 12 1 -3
BITMAP
3C
46
82
80
80
80
80
C2
7C
10
18
18
ENDCHAR
STARTCHAR 00C8
ENCODING 200
SWIDTH 583 0
DWIDTH 7 0
BBX 6 11 1 0
BITMAP
20
00
FC
80
80
80
F8
80
80
80
FC
ENDCHAR
STARTCHAR 00C9
ENCODING 201
SWIDTH 583 0
DWIDTH 7 0
BBX 6 11 1 0
BITMAP
10
00
FC
80
80
80
F8
80
80
80
FC
ENDCHAR
STARTCHAR 00CA
ENCODING 202
SWIDTH 583 0
DWIDTH 7 0
BBX 6 11 1 0
BITMAP
30
00
FC
80
80
80
F8
80
80
80
FC
ENDCHAR
STARTCHAR 00CB
ENCODING 203
SWIDTH 583 0
DWIDTH 7 0
BBX 6 11 1 0
BITMAP
48
00
FC
80
80
80
F8
80
80
80
FC
ENDCHAR
STARTCHAR 00CC
ENCODING 204
SWIDTH 250 0
DWIDTH 3 0
BBX 1 11 1 0
BITMAP
80
80
80
80
80
80
80
80
80
80
80
ENDCHAR
STARTCHAR 00CD
ENCODING 205
SWIDTH 250 0
DWIDTH 3 0
BBX 2 11 1 0
BITMAP
40
80
80
80
80
80
80
80
80
80
80
ENDCHAR
STARTCHAR 00CE
ENCODING 206
SWIDTH 250 0
DWIDTH 3 0
BBX 3 11 0 0
BITMAP
40
A0
40
40
40
40
40
40
40
40
40
ENDCHAR
STARTCHAR 00CF
ENCODING 207
SWIDTH 250 0
DWIDTH 3 0
BBX 3 10 0 0
BITMAP
A0
40
40
40
40
40
40
40
40
40
ENDCHAR
STARTCHAR 00D0
ENCODING 208
SWIDTH 750 0
DWIDTH 9 0
BBX 8 9 0 0
BITMAP
7C
42
41
41
F1
41
41
42
7C
ENDCHAR
STARTCHAR 00D1
ENCODING 209
SWIDTH 750 0
DWIDTH 9 0
BBX 7 11 1 0
BITMAP
3C
00
C2
E2
A2
92
9A
8A
86
86
82
ENDCHAR
STARTCHAR 00D2
ENCODING 210
SWIDTH 833 0
DWIDTH 10 0
BBX 8 11 1 0
BITMAP
10
00
3C
46
82
81
81
81
82
46
3C
ENDCHAR
STARTCHAR 00D3
ENCODING 211
SWIDTH 833 0
DWIDTH 10 0
BBX 8 11 1 0
BITMAP
08
10
3C
46
82
81
81
81
82
46
3C
ENDCHAR
STARTCHAR 00D4
ENCODING 212
SWIDTH 833 0
DWIDTH 10 0
BBX 8 11 1 0
BITMAP
18
00
3C
46
82
81
81
81
82
46
3C
ENDCHAR
STARTCHAR 00D5
ENCODING 213
SWIDTH 833 0
DWIDTH 10 0
BBX 8 11 1 0
BITMAP
3C
00
3C
46
82
81
81
81
82
46
3C
ENDCHAR
STARTCHAR 00D6
ENCODING 214
SWIDTH 833 0
DWIDTH 10 0
BBX 8 11 1 0
BITMAP
2C
00
3C
46
82
81
81
81
82
46
3C
ENDCHAR
STARTCHAR 00D7
ENCODING 215
SWIDTH 666 0
DWIDTH 8 0
BBX 5 5 2 1
BITMAP
88
50
20
50
88
ENDCHAR
STARTCHAR 00D8
ENCODING 216
SWIDTH 833 0
DWIDTH 10 0
BBX 8 9 1 0
BITMAP
3E
46
86
89
91
A1
A2
46
BC
ENDCHAR
STARTCHAR 00D9
ENCODING 217
SWIDTH 750 0
DWIDTH 9 0
BBX 7 11 1 0
BITMAP
20
10
82
82
82
82
82
82
82
C6
7C
ENDCHAR
STARTCHAR 00DA
ENCODING 218
SWIDTH 750 0
DWIDTH 9 0
BBX 7 11 1 0
BITMAP
18
10
82
82
82
82
82
82
82
C6
7C
ENDCHAR
STARTCHAR 00DB
ENCODING 219
SWIDTH 750 0
DWIDTH 9 0
BBX 7 11 1 0
BITMAP
10
28
82
82
82
82
82
82
82
C6
7C
ENDCHAR
STARTCHAR 00DC
ENCODING 220
SWIDTH 750 0
DWIDTH 9 0
BBX 7 10 1 0
BITMAP
28
82
82
82
82
82
82
82
C6
7C
ENDCHAR
STARTCHAR 00DD
ENCODING 221
SWIDTH 583 0
DWIDTH 7 0
BBX 7 11 0 0
BITMAP
08
00
C2
44
24
38
10
10
10
10
10
ENDCHAR
STARTCHAR 00DE
ENCODING 222
SWIDTH 583 0
DWIDTH 7 0
BBX 6 8 1 0
BITMAP
80
F8
8C
84
8C
F8
80
80
ENDCHAR
STARTCHAR 00DF
ENCODING 223
SWIDTH 583 0
DWIDTH 7 0
BBX 5 9 1 0
BITMAP
70
98
88
90
B0
88
88
88
B0
ENDCHAR
STARTCHAR 00E0
ENCODING 224
SWIDTH 583 0
DWIDTH 7 0
BBX 5 9 1 0
BITMAP
40
20
00
70
88
78
88
98
E8
ENDCHAR
STARTCHAR 00E1
ENCODING 225
SWIDTH 583 0
DWIDTH 7 0
BBX 5 9 1 0
BITMAP
10
20
00
70
88
78
88
98
E8
ENDCHAR
STARTCHAR 00E2
ENCODING 226
SWIDTH 583 0
DWIDTH 7 0
BBX 5 9 1 0
BITMAP
20
50
00
70
88
78
88
98
E8
ENDCHAR
STARTCHAR 00E3
ENCODING 227
SWIDTH 583 0
DWIDTH 7 0
BBX 5 9 1 0
BITMAP
40
30
00
70
88
78
88
98
E8
ENDCHAR
STARTCHAR 00E4
ENCODING 228
SWIDTH 583 0
DWIDTH 7 0
BBX 5 8 1 0
BITMAP
50
00
70
88
78
88
98
E8
ENDCHAR
STARTCHAR 00E5
ENCODING 229
SWIDTH 583 0
DWIDTH 7 0
BBX 5 9 1 0
BITMAP
20
20
00
70
88
78
88
98
E8
ENDCHAR
STARTCHAR 00E6
ENCODING 230
SWIDTH 916 0
DWIDTH 11 0
BBX 9 6 1 0
BITMAP
7700
8880
7F80
8800
9880
E700
ENDCHAR
STARTCHAR 00E7
ENCODING 231
SWIDTH 583 0
DWIDTH 7 0
BBX 5 9 1 -3
BITMAP
70
88
80
80
88
70
20
10
20
ENDCHAR
STARTCHAR 00E8
ENCODING 232
SWIDTH 583 0
DWIDTH 7 0
BBX 5 9 1 0
BITMAP
40
20
00
70
88
F8
80
88
70
ENDCHAR
STARTCHAR 00E9
ENCODING 233
SWIDTH 583 0
DWIDTH 7 0
BBX 5 9 1 0
BITMAP
10
20
00
70
88
F8
80
88
70
ENDCHAR
STARTCHAR 00EA
ENCODING 234
SWIDTH 583 0
DWIDTH 7 0
BBX 5 9 1 0
BITMAP
20
50
00
70
88
F8
80
88
70
ENDCHAR
STARTCHAR 00EB
ENCODING 235
SWIDTH 583 0
DWIDTH 7 0
BBX 5 8 1 0
BITMAP
50
00
70
88
F8
80
88
70
ENDCHAR
STARTCHAR 00EC
ENCODING 236
SWIDTH 250 0
DWIDTH 3 0
BBX 2 9 0 0
BITMAP
80
40
00
40
40
40
40
40
40
ENDCHAR
STARTCHAR 00ED
ENCODING 237
SWIDTH 250 0
DWIDTH 3 0
BBX 2 9 1 0
BITMAP
40
80
00
80
80
80
80
80
80
ENDCHAR
STARTCHAR 00EE
ENCODING 238
SWIDTH 250 0
DWIDTH 3 0
BBX 3 9 0 0
BITMAP
40
A0
00
40
40
40
40
40
40
ENDCHAR
STARTCHAR 00EF
ENCODING 239
SWIDTH 250 0
DWIDTH 3 0
BBX 3 8 0 0
BITMAP
A0
00
40
40
40
40
40
40
ENDCHAR
STARTCHAR 00F0
ENCODING 240
SWIDTH 583 0
DWIDTH 7 0
BBX 6 9 1 0
BITMAP
50
30
C8
78
88
84
84
88
70
ENDCHAR
STARTCHAR 00F1
ENCODING 241
SWIDTH 583 0
DWIDTH 7 0
BBX 5 9 1 0
BITMAP
68
10
00
B8
C8
88
88
88
88
ENDCHAR
STARTCHAR 00F2
ENCODING 242
SWIDTH 583 0
DWIDTH 7 0
BBX 6 9 1 0
BITMAP
40
20
00
70
88
84
8C
88
70
ENDCHAR
STARTCHAR 00F3
ENCODING 243
SWIDTH 583 0
DWIDTH 7 0
BBX 6 9 1 0
BITMAP
10
20
00
70
88
84
8C
88
70
ENDCHAR
STARTCHAR 00F4
ENCODING 244
SWIDTH 583 0
DWIDTH 7 0
BBX 6 9 1 0
BITMAP
20
50
00
70
88
84
8C
88
70
ENDCHAR
STARTCHAR 00F5
ENCODING 245
SWIDTH 583 0
DWIDTH 7 0
BBX 6 9 1 0
BITMAP
68
10
00
70
88
84
8C
88
70
ENDCHAR
STARTCHAR 00F6
ENCODING 246
SWIDTH 583 0
DWIDTH 7 0
BBX 6 8 1 0
BITMAP
50
00
70
88
84
8C
88
70
ENDCHAR
STARTCHAR 00F7
ENCODING 247
SWIDTH 666 0
DWIDTH 8 0
BBX 6 7 1 0
BITMAP
30
30
00
FC
00
30
30
ENDCHAR
STARTCHAR 00F8
ENCODING 248
SWIDTH 583 0
DWIDTH 7 0
BBX 6 6 1 0
BITMAP
78
98
A4
A4
C8
F0
ENDCHAR
STARTCHAR 00F9
ENCODING 249
SWIDTH 583 0
DWIDTH 7 0
BBX 5 9 1 0
BITMAP
40
20
00
88
88
88
88
88
78
ENDCHAR
STARTCHAR 00FA
ENCODING 250
SWIDTH 583 0
DWIDTH 7 0
BBX 5 9 1 0
BITMAP
10
20
00
88
88
88
88
88
78
ENDCHAR
STARTCHAR 00FB
ENCODING 251
SWIDTH 583 0
DWIDTH 7 0
BBX 5 9 1 0
BITMAP
20
50
00
88
88
88
88
88
78
ENDCHAR
STARTCHAR 00FC
ENCODING 252
SWIDTH 583 0
DWIDTH 7 0
BBX 5 8 1 0
BITMAP
50
00
88
88
88
88
88
78
ENDCHAR
STARTCHAR 00FD
ENCODING 253
SWIDTH 500 0
DWIDTH 6 0
BBX 6 11 0 -2
BITMAP
10
10
00
84
48
48
30
30
10
20
60
ENDCHAR
STARTCHAR 00FE
ENCODING 254
SWIDTH 666 0
DWIDTH 8 0
BBX 6 11 1 -2
BITMAP
80
80
80
B8
CC
84
84
C4
B8
80
80
ENDCHAR
STARTCHAR 00FF
ENCODING 255
SWIDTH 500 0
DWIDTH 6 0
BBX 6 10 0 -2
BITMAP
48
00
84
48
48
30
30
10
20
60
ENDCHAR
STARTCHAR 0100
ENCODING 256
SWIDTH 666 0
DWIDTH 8 0
BBX 7 10 0 0
BITMAP
38
00
18
28
28
24
7C
42
42
82
ENDCHAR
STARTCHAR 0101
ENCODING 257
SWIDTH 583 0
DWIDTH 7 0
BBX 5 8 1 0
BITMAP
70
00
70
88
78
88
98
E8
ENDCHAR
STARTCHAR 0102
ENCODING 258
SWIDTH 666 0
DWIDTH 8 0
BBX 7 11 0 0
BITMAP
38
00
18
18
28
24
24
7C
42
42
82
ENDCHAR
STARTCHAR 0103
ENCODING 259
SWIDTH 583 0
DWIDTH 7 0
BBX 5 8 1 0
BITMAP
70
00
70
88
78
88
98
E8
ENDCHAR
STARTCHAR 0104
ENCODING 260
SWIDTH 666 0
DWIDTH 8 0
BBX 8 12 0 -3
BITMAP
18
18
28
24
24
7C
42
42
82
02
04
07
ENDCHAR
STARTCHAR 0105
ENCODING 261
SWIDTH 583 0
DWIDTH 7 0
BBX 5 9 1 -3
BITMAP
70
88
78
88
98
E8
10
20
18
ENDCHAR
STARTCHAR 0106
ENCODING 262
SWIDTH 750 0
DWIDTH 9 0
BBX 7 11 1 0
BITMAP
08
10
3C
46
82
80
80
80
80
42
3C
ENDCHAR
STARTCHAR 0107
ENCODING 263
SWIDTH 583 0
DWIDTH 7 0
BBX 5 9 1 0
BITMAP
10
20
00
70
88
80
80
88
70
ENDCHAR
STARTCHAR 0108
ENCODING 264
SWIDTH 750 0
DWIDTH 9 0
BBX 7 11 1 0
BITMAP
18
00
3C
46
82
80
80
80
80
42
3C
ENDCHAR
STARTCHAR 0109
ENCODING 265
SWIDTH 583 0
DWIDTH 7 0
BBX 5 9 1 0
BITMAP
20
50
00
70
88
80
80
88
70
ENDCHAR
STARTCHAR 010C
ENCODING 268
SWIDTH 750 0
DWIDTH 9 0
BBX 7 11 1 0
BITMAP
18
00
3C
46
82
80
80
80
80
42
3C
ENDCHAR
STARTCHAR 010D
ENCODING 269
SWIDTH 583 0
DWIDTH 7 0
BBX 5 9 1 0
BITMAP
50
20
00
70
88
80
80
88
70
ENDCHAR
STARTCHAR 010E
ENCODING 270
SWIDTH 750 0
DWIDTH 9 0
BBX 7 11 1 0
BITMAP
30
00
F8
84
82
82
82
82
82
84
F8
ENDCHAR
STARTCHAR 010F
ENCODING 271
SWIDTH 666 0
DWIDTH 8 0
BBX 7 9 1 0
BITMAP
0A
0A
08
78
88
88
88
88
78
ENDCHAR
STARTCHAR 0111
ENCODING 273
SWIDTH 583 0
DWIDTH 7 0
BBX 6 9 1 0
BITMAP
08
3C
08
78
88
88
88
88
78
ENDCHAR
STARTCHAR 0112
ENCODING 274
SWIDTH 583 0
DWIDTH 7 0
BBX 6 10 1 0
BITMAP
70
FC
80
80
80
F8
80
80
80
FC
ENDCHAR
STARTCHAR 0113
ENCODING 275
SWIDTH 583 0
DWIDTH 7 0
BBX 5 8 1 0
BITMAP
70
00
70
88
F8
80
88
70
ENDCHAR
STARTCHAR 0118
ENCODING 280
SWIDTH 583 0
DWIDTH 7 0
BBX 6 12 1 -3
BITMAP
FC
80
80
80
F8
80
80
80
FC
20
40
70
ENDCHAR
STARTCHAR 0119
ENCODING 281
SWIDTH 583 0
DWIDTH 7 0
BBX 5 9 1 -3
BITMAP
70
88
F8
80
88
70
20
40
60
ENDCHAR
STARTCHAR 011A
ENCODING 282
SWIDTH 583 0
DWIDTH 7 0
BBX 6 11 1 0
BITMAP
30
00
FC
80
80
80
F8
80
80
80
FC
ENDCHAR
STARTCHAR 011B
ENCODING 283
SWIDTH 583 0
DWIDTH 7 0
BBX 5 9 1 0
BITMAP
50
20
00
70
88
F8
80
88
70
ENDCHAR
STARTCHAR 011C
ENCODING 284
SWIDTH 750 0
DWIDTH 9 0
BBX 7 11 1 0
BITMAP
18
00
3C
46
82
80
80
8E
82
C2
3C
ENDCHAR
STARTCHAR 011D
ENCODING 285
SWIDTH 583 0
DWIDTH 7 0
BBX 5 11 1 -2
BITMAP
20
50
00
78
88
88
70
80
78
88
F8
ENDCHAR
STARTCHAR 0124
ENCODING 292
SWIDTH 750 0
DWIDTH 9 0
BBX 7 11 1 0
BITMAP
10
28
82
82
82
82
FE
82
82
82
82
ENDCHAR
STARTCHAR 0125
ENCODING 293
SWIDTH 583 0
DWIDTH 7 0
BBX 6 11 0 0
BITMAP
40
A0
40
40
40
5C
64
44
44
44
44
ENDCHAR
STARTCHAR 0127
ENCODING 295
SWIDTH 583 0
DWIDTH 7 0
BBX 6 9 0 0
BITMAP
40
F0
40
5C
64
44
44
44
44
ENDCHAR
STARTCHAR 012A
ENCODING 298
SWIDTH 250 0
DWIDTH 3 0
BBX 3 11 0 -1
BITMAP
E0
00
40
40
40
40
40
40
40
40
40
ENDCHAR
STARTCHAR 012B
ENCODING 299
SWIDTH 250 0
DWIDTH 3 0
BBX 3 8 0 0
BITMAP
E0
00
40
40
40
40
40
40
ENDCHAR
STARTCHAR 0134
ENCODING 308
SWIDTH 416 0
DWIDTH 5 0
BBX 4 11 0 0
BITMAP
20
10
20
20
20
20
20
20
20
20
E0
ENDCHAR
STARTCHAR 0135
ENCODING 309
SWIDTH 250 0
DWIDTH 3 0
BBX 3 11 0 -2
BITMAP
40
A0
00
40
40
40
40
40
40
40
80
ENDCHAR
STARTCHAR 0139
ENCODING 313
SWIDTH 500 0
DWIDTH 6 0
BBX 5 11 1 0
BITMAP
20
40
80
80
80
80
80
80
80
80
F8
ENDCHAR
STARTCHAR 013A
ENCODING 314
SWIDTH 250 0
DWIDTH 3 0
BBX 2 11 1 0
BITMAP
40
80
80
80
80
80
80
80
80
80
80
ENDCHAR
STARTCHAR 013D
ENCODING 317
SWIDTH 500 0
DWIDTH 6 0
BBX 5 9 1 0
BITMAP
90
90
80
80
80
80
80
80
F8
ENDCHAR
STARTCHAR 013E
ENCODING 318
SWIDTH 250 0
DWIDTH 3 0
BBX 3 9 1 0
BITMAP
A0
C0
80
80
80
80
80
80
80
ENDCHAR
STARTCHAR 0141
ENCODING 321
SWIDTH 500 0
DWIDTH 6 0
BBX 6 9 0 0
BITMAP
40
40
40
70
40
C0
40
40
7C
ENDCHAR
STARTCHAR 0142
ENCODING 322
SWIDTH 250 0
DWIDTH 3 0
BBX 3 9 0 0
BITMAP
40
40
40
60
40
C0
40
40
40
ENDCHAR
STARTCHAR 0143
ENCODING 323
SWIDTH 750 0
DWIDTH 9 0
BBX 7 11 1 0
BITMAP
08
00
C2
E2
A2
92
9A
8A
86
86
82
ENDCHAR
STARTCHAR 0144
ENCODING 324
SWIDTH 583 0
DWIDTH 7 0
BBX 5 9 1 0
BITMAP
10
20
00
B8
C8
88
88
88
88
ENDCHAR
STARTCHAR 0147
ENCODING 327
SWIDTH 750 0
DWIDTH 9 0
BBX 7 11 1 0
BITMAP
28
10
C2
E2
A2
92
9A
8A
86
86
82
ENDCHAR
STARTCHAR 0148
ENCODING 328
SWIDTH 583 0
DWIDTH 7 0
BBX 5 9 1 0
BITMAP
40
30
00
B8
C8
88
88
88
88
ENDCHAR
STARTCHAR 014B
ENCODING 331
SWIDTH 583 0
DWIDTH 7 0
BBX 5 8 1 -2
BITMAP
B8
C8
88
88
88
88
08
18
ENDCHAR
STARTCHAR 014C
ENCODING 332
SWIDTH 833 0
DWIDTH 10 0
BBX 8 10 1 0
BITMAP
38
3C
46
82
81
81
81
82
46
3C
ENDCHAR
STARTCHAR 014D
ENCODING 333
SWIDTH 583 0
DWIDTH 7 0
BBX 6 8 1 0
BITMAP
70
00
70
88
8C
84
88
70
ENDCHAR
STARTCHAR 0150
ENCODING 336
SWIDTH 833 0
DWIDTH 10 0
BBX 8 11 1 0
BITMAP
14
00
3C
46
82
81
81
81
82
46
3C
ENDCHAR
STARTCHAR 0151
ENCODING 337
SWIDTH 583 0
DWIDTH 7 0
BBX 6 9 1 0
BITMAP
28
50
00
70
88
8C
84
88
70
ENDCHAR
STARTCHAR 0152
ENCODING 338
SWIDTH 1000 0
DWIDTH 12 0
BBX 10 9 1 0
BITMAP
3FC0
4400
8400
8400
87C0
8400
8400
4400
3FC0
ENDCHAR
STARTCHAR 0153
ENCODING 339
SWIDTH 1000 0
DWIDTH 12 0
BBX 10 6 1 0
BITMAP
7780
8C40
8FC0
8800
8C40
7380
ENDCHAR
STARTCHAR 0154
ENCODING 340
SWIDTH 666 0
DWIDTH 8 0
BBX 6 11 1 0
BITMAP
10
00
F8
8C
84
8C
F0
88
88
84
84
ENDCHAR
STARTCHAR 0155
ENCODING 341
SWIDTH 333 0
DWIDTH 4 0
BBX 3 9 1 0
BITMAP
20
40
00
A0
C0
80
80
80
80
ENDCHAR
STARTCHAR 0158
ENCODING 344
SWIDTH 666 0
DWIDTH 8 0
BBX 6 11 1 0
BITMAP
30
00
F8
8C
84
8C
F0
88
88
84
84
ENDCHAR
STARTCHAR 0159
ENCODING 345
SWIDTH 333 0
DWIDTH 4 0
BBX 3 9 1 0
BITMAP
A0
40
00
A0
C0
80
80
80
80
ENDCHAR
STARTCHAR 015A
ENCODING 346
SWIDTH 583 0
DWIDTH 7 0
BBX 5 11 1 0
BITMAP
10
20
70
88
80
C0
70
08
08
88
70
ENDCHAR
STARTCHAR 015B
ENCODING 347
SWIDTH 500 0
DWIDTH 6 0
BBX 4 9 1 0
BITMAP
20
40
00
F0
80
80
70
10
E0
ENDCHAR
STARTCHAR 015C
ENCODING 348
SWIDTH 583 0
DWIDTH 7 0
BBX 5 11 1 0
BITMAP
30
00
70
88
80
C0
70
08
08
88
70
ENDCHAR
STARTCHAR 015D
ENCODING 349
SWIDTH 500 0
DWIDTH 6 0
BBX 4 9 1 0
BITMAP
40
A0
00
F0
80
80
70
10
E0
ENDCHAR
STARTCHAR 015E
ENCODING 350
SWIDTH 583 0
DWIDTH 7 0
BBX 5 12 1 -3
BITMAP
70
88
80
C0
70
08
08
88
70
00
20
40
ENDCHAR
STARTCHAR 015F
ENCODING 351
SWIDTH 500 0
DWIDTH 6 0
BBX 4 9 1 -3
BITMAP
F0
80
80
70
10
E0
00
40
80
ENDCHAR
STARTCHAR 0160
ENCODING 352
SWIDTH 583 0
DWIDTH 7 0
BBX 5 11 1 0
BITMAP
50
20
70
88
80
C0
70
08
08
88
70
ENDCHAR
STARTCHAR 0161
ENCODING 353
SWIDTH 500 0
DWIDTH 6 0
BBX 4 9 1 0
BITMAP
80
60
00
F0
80
80
70
10
E0
ENDCHAR
STARTCHAR 0162
ENCODING 354
SWIDTH 583 0
DWIDTH 7 0
BBX 7 11 0 -3
BITMAP
FE
10
10
10
10
10
10
10
10
10
10
ENDCHAR
STARTCHAR 0163
ENCODING 355
SWIDTH 333 0
DWIDTH 4 0
BBX 4 10 0 -2
BITMAP
40
F0
40
40
40
40
70
00
20
40
ENDCHAR
STARTCHAR 0164
ENCODING 356
SWIDTH 583 0
DWIDTH 7 0
BBX 7 11 0 0
BITMAP
28
10
FE
10
10
10
10
10
10
10
10
ENDCHAR
STARTCHAR 0165
ENCODING 357
SWIDTH 333 0
DWIDTH 4 0
BBX 4 9 0 0
BITMAP
10
10
40
F0
40
40
40
40
70
ENDCHAR
STARTCHAR 016A
ENCODING 362
SWIDTH 750 0
DWIDTH 9 0
BBX 7 10 1 0
BITMAP
38
00
82
82
82
82
82
82
C6
7C
ENDCHAR
STARTCHAR 016B
ENCODING 363
SWIDTH 583 0
DWIDTH 7 0
BBX 5 8 1 0
BITMAP
70
00
88
88
88
88
88
78
ENDCHAR
STARTCHAR 016C
ENCODING 364
SWIDTH 750 0
DWIDTH 9 0
BBX 7 10 1 1
BITMAP
38
82
82
82
82
82
82
82
C6
7C
ENDCHAR
STARTCHAR 016D
ENCODING 365
SWIDTH 583 0
DWIDTH 7 0
BBX 5 8 1 0
BITMAP
70
00
88
88
88
88
88
78
ENDCHAR
STARTCHAR 016E
ENCODING 366
SWIDTH 750 0
DWIDTH 9 0
BBX 7 11 1 0
BITMAP
10
10
82
82
82
82
82
82
82
C6
7C
ENDCHAR
STARTCHAR 016F
ENCODING 367
SWIDTH 583 0
DWIDTH 7 0
BBX 5 9 1 0
BITMAP
30
30
00
88
88
88
88
88
78
ENDCHAR
STARTCHAR 0170
ENCODING 368
SWIDTH 750 0
DWIDTH 9 0
BBX 7 11 1 0
BITMAP
14
28
82
82
82
82
82
82
82
C6
7C
ENDCHAR
STARTCHAR 0171
ENCODING 369
SWIDTH 583 0
DWIDTH 7 0
BBX 5 9 1 0
BITMAP
28
30
00
88
88
88
88
88
78
ENDCHAR
STARTCHAR 0179
ENCODING 377
SWIDTH 666 0
DWIDTH 8 0
BBX 7 11 0 0
BITMAP
08
00
7E
06
04
08
10
30
20
40
FE
ENDCHAR
STARTCHAR 017A
ENCODING 378
SWIDTH 500 0
DWIDTH 6 0
BBX 5 9 0 0
BITMAP
10
20
00
78
08
10
20
40
F8
ENDCHAR
STARTCHAR 017B
ENCODING 379
SWIDTH 666 0
DWIDTH 8 0
BBX 7 11 0 0
BITMAP
10
00
7E
06
04
08
10
30
20
40
FE
ENDCHAR
STARTCHAR 017C
ENCODING 380
SWIDTH 500 0
DWIDTH 6 0
BBX 5 9 0 0
BITMAP
30
00
00
78
08
10
20
40
F8
ENDCHAR
STARTCHAR 017D
ENCODING 381
SWIDTH 666 0
DWIDTH 8 0
BBX 7 11 0 0
BITMAP
18
00
7E
06
04
08
10
30
20
40
FE
ENDCHAR
STARTCHAR 017E
ENCODING 382
SWIDTH 500 0
DWIDTH 6 0
BBX 5 9 0 0
BITMAP
40
30
00
78
08
10
20
40
F8
ENDCHAR
STARTCHAR 0193
ENCODING 403
SWIDTH 750 0
DWIDTH 9 0
BBX 9 10 1 0
BITMAP
0380
3E00
4600
8200
8000
8000
8E00
8200
C200
3C00
ENDCHAR
STARTCHAR 01C2
ENCODING 450
SWIDTH 500 0
DWIDTH 6 0
BBX 5 8 1 1
BITMAP
40
40
F8
40
F8
40
40
40
ENDCHAR
STARTCHAR 01CD
ENCODING 461
SWIDTH 666 0
DWIDTH 8 0
BBX 7 11 0 0
BITMAP
18
00
18
18
28
24
24
7C
42
42
82
ENDCHAR
STARTCHAR 01CE
ENCODING 462
SWIDTH 583 0
DWIDTH 7 0
BBX 5 9 1 0
BITMAP
50
20
00
70
98
38
C8
98
E8
ENDCHAR
STARTCHAR 01D0
ENCODING 464
SWIDTH 250 0
DWIDTH 3 0
BBX 3 9 0 0
BITMAP
A0
40
00
40
40
40
40
40
40
ENDCHAR
STARTCHAR 01D1
ENCODING 465
SWIDTH 833 0
DWIDTH 10 0
BBX 8 11 1 0
BITMAP
28
10
3C
46
82
81
81
81
82
46
3C
ENDCHAR
STARTCHAR 01D2
ENCODING 466
SWIDTH 583 0
DWIDTH 7 0
BBX 6 9 1 0
BITMAP
50
20
00
70
88
8C
8C
88
70
ENDCHAR
STARTCHAR 01D4
ENCODING 468
SWIDTH 583 0
DWIDTH 7 0
BBX 5 9 1 0
BITMAP
50
20
00
88
88
88
88
88
78
ENDCHAR
STARTCHAR 01D6
ENCODING 470
SWIDTH 583 0
DWIDTH 7 0
BBX 5 10 1 0
BITMAP
70
00
50
00
88
88
88
88
88
78
ENDCHAR
STARTCHAR 01D8
ENCODING 472
SWIDTH 583 0
DWIDTH 7 0
BBX 5 10 1 0
BITMAP
20
00
50
00
88
88
88
88
88
78
ENDCHAR
STARTCHAR 01DA
ENCODING 474
SWIDTH 583 0
DWIDTH 7 0
BBX 5 10 1 0
BITMAP
70
00
50
00
88
88
88
88
88
78
ENDCHAR
STARTCHAR 01DC
ENCODING 476
SWIDTH 583 0
DWIDTH 7 0
BBX 5 10 1 0
BITMAP
20
00
50
00
88
88
88
88
88
78
ENDCHAR
STARTCHAR 01F8
ENCODING 504
SWIDTH 750 0
DWIDTH 9 0
BBX 7 11 1 0
BITMAP
10
00
C2
E2
A2
92
9A
8A
86
86
82
ENDCHAR
STARTCHAR 01F9
ENCODING 505
SWIDTH 583 0
DWIDTH 7 0
BBX 5 9 1 0
BITMAP
40
20
00
B8
C8
88
88
88
88
ENDCHAR
STARTCHAR 01FD
ENCODING 509
SWIDTH 916 0
DWIDTH 11 0
BBX 9 9 1 0
BITMAP
0400
0800
0000
7700
8880
7F80
8800
9880
E700
ENDCHAR
STARTCHAR 0250
ENCODING 592
SWIDTH 583 0
DWIDTH 7 0
BBX 5 6 1 0
BITMAP
F0
88
88
F0
80
70
ENDCHAR
STARTCHAR 0251
ENCODING 593
SWIDTH 583 0
DWIDTH 7 0
BBX 6 6 1 0
BITMAP
70
88
88
88
88
74
ENDCHAR
STARTCHAR 0252
ENCODING 594
SWIDTH 583 0
DWIDTH 7 0
BBX 6 6 1 0
BITMAP
B8
CC
84
84
8C
F8
ENDCHAR
STARTCHAR 0253
ENCODING 595
SWIDTH 583 0
DWIDTH 7 0
BBX 6 9 1 0
BITMAP
78
C8
80
B8
CC
84
84
CC
F8
ENDCHAR
STARTCHAR 0254
ENCODING 596
SWIDTH 583 0
DWIDTH 7 0
BBX 5 6 1 0
BITMAP
F0
98
08
08
98
F0
ENDCHAR
STARTCHAR 0255
ENCODING 597
SWIDTH 583 0
DWIDTH 7 0
BBX 5 7 1 -1
BITMAP
70
88
80
80
98
78
40
ENDCHAR
STARTCHAR 0256
ENCODING 598
SWIDTH 583 0
DWIDTH 7 0
BBX 7 11 1 -2
BITMAP
08
08
08
78
88
88
88
88
78
08
06
ENDCHAR
STARTCHAR 0257
ENCODING 599
SWIDTH 583 0
DWIDTH 7 0
BBX 7 9 1 0
BITMAP
06
08
08
78
88
88
88
88
78
ENDCHAR
STARTCHAR 0258
ENCODING 600
SWIDTH 583 0
DWIDTH 7 0
BBX 5 6 1 0
BITMAP
F0
88
F8
08
88
F0
ENDCHAR
STARTCHAR 0259
ENCODING 601
SWIDTH 583 0
DWIDTH 7 0
BBX 5 6 1 0
BITMAP
F0
88
08
F8
88
70
ENDCHAR
STARTCHAR 025A
ENCODING 602
SWIDTH 833 0
DWIDTH 10 0
BBX 8 6 1 0
BITMAP
70
8E
1E
25
C8
78
ENDCHAR
STARTCHAR 025C
ENCODING 604
SWIDTH 500 0
DWIDTH 6 0
BBX 5 6 0 0
BITMAP
78
08
78
08
08
F8
ENDCHAR
STARTCHAR 025E
ENCODING 606
SWIDTH 583 0
DWIDTH 7 0
BBX 5 6 1 0
BITMAP
78
88
B8
88
88
78
ENDCHAR
STARTCHAR 025F
ENCODING 607
SWIDTH 250 0
DWIDTH 3 0
BBX 3 8 0 -2
BITMAP
40
40
40
40
40
E0
40
80
ENDCHAR
STARTCHAR 0260
ENCODING 608
SWIDTH 583 0
DWIDTH 7 0
BBX 7 11 1 -2
BITMAP
06
08
08
78
88
88
88
88
78
08
F0
ENDCHAR
STARTCHAR 0261
ENCODING 609
SWIDTH 583 0
DWIDTH 7 0
BBX 5 8 1 -2
BITMAP
78
88
88
88
88
78
08
F0
ENDCHAR
STARTCHAR 0264
ENCODING 612
SWIDTH 583 0
DWIDTH 7 0
BBX 7 6 0 0
BITMAP
C6
38
38
28
28
38
ENDCHAR
STARTCHAR 0265
ENCODING 613
SWIDTH 583 0
DWIDTH 7 0
BBX 5 8 1 -2
BITMAP
88
88
88
88
88
78
08
08
ENDCHAR
STARTCHAR 0266
ENCODING 614
SWIDTH 583 0
DWIDTH 7 0
BBX 5 9 1 0
BITMAP
78
C8
80
B8
C8
88
88
88
88
ENDCHAR
STARTCHAR 0267
ENCODING 615
SWIDTH 583 0
DWIDTH 7 0
BBX 5 11 1 -2
BITMAP
78
C8
80
B8
C8
88
88
88
88
08
18
ENDCHAR
STARTCHAR 0268
ENCODING 616
SWIDTH 250 0
DWIDTH 3 0
BBX 3 8 0 1
BITMAP
40
00
40
40
E0
40
40
40
ENDCHAR
STARTCHAR 026C
ENCODING 620
SWIDTH 333 0
DWIDTH 4 0
BBX 4 9 0 0
BITMAP
20
20
E0
A0
F0
20
20
20
20
ENDCHAR
STARTCHAR 026D
ENCODING 621
SWIDTH 333 0
DWIDTH 4 0
BBX 3 11 1 -2
BITMAP
80
80
80
80
80
80
80
80
80
80
E0
ENDCHAR
STARTCHAR 026E
ENCODING 622
SWIDTH 666 0
DWIDTH 8 0
BBX 6 11 1 -2
BITMAP
80
80
80
FC
88
90
B8
84
84
44
38
ENDCHAR
STARTCHAR 026F
ENCODING 623
SWIDTH 833 0
DWIDTH 10 0
BBX 8 6 1 0
BITMAP
89
89
89
89
99
6F
ENDCHAR
STARTCHAR 0270
ENCODING 624
SWIDTH 833 0
DWIDTH 10 0
BBX 8 8 1 -2
BITMAP
89
89
89
89
99
6F
01
01
ENDCHAR
STARTCHAR 0271
ENCODING 625
SWIDTH 833 0
DWIDTH 10 0
BBX 8 8 1 -2
BITMAP
F7
89
89
89
89
89
01
03
ENDCHAR
STARTCHAR 0272
ENCODING 626
SWIDTH 583 0
DWIDTH 7 0
BBX 7 8 -1 -2
BITMAP
2E
32
22
22
22
22
20
C0
ENDCHAR
STARTCHAR 0273
ENCODING 627
SWIDTH 583 0
DWIDTH 7 0
BBX 7 8 1 -2
BITMAP
B8
C8
88
88
88
88
08
06
ENDCHAR
STARTCHAR 0275
ENCODING 629
SWIDTH 583 0
DWIDTH 7 0
BBX 6 6 1 0
BITMAP
70
88
FC
8C
88
70
ENDCHAR
STARTCHAR 0279
ENCODING 633
SWIDTH 333 0
DWIDTH 4 0
BBX 3 6 0 0
BITMAP
20
20
20
20
20
E0
ENDCHAR
STARTCHAR 027A
ENCODING 634
SWIDTH 333 0
DWIDTH 4 0
BBX 3 8 0 0
BITMAP
20
20
20
20
20
20
20
E0
ENDCHAR
STARTCHAR 027B
ENCODING 635
SWIDTH 416 0
DWIDTH 5 0
BBX 5 8 0 -2
BITMAP
20
20
20
20
20
E0
20
18
ENDCHAR
STARTCHAR 027D
ENCODING 637
SWIDTH 333 0
DWIDTH 4 0
BBX 3 8 1 -2
BITMAP
A0
C0
80
80
80
80
80
E0
ENDCHAR
STARTCHAR 027E
ENCODING 638
SWIDTH 416 0
DWIDTH 5 0
BBX 3 6 1 0
BITMAP
60
80
80
80
80
80
ENDCHAR
STARTCHAR 0281
ENCODING 641
SWIDTH 500 0
DWIDTH 6 0
BBX 5 6 1 0
BITMAP
88
90
F0
90
88
F0
ENDCHAR
STARTCHAR 0282
ENCODING 642
SWIDTH 500 0
DWIDTH 6 0
BBX 4 8 1 -2
BITMAP
F0
80
80
70
10
E0
80
C0
ENDCHAR
STARTCHAR 0283
ENCODING 643
SWIDTH 333 0
DWIDTH 4 0
BBX 3 12 0 -3
BITMAP
20
40
40
40
40
40
40
40
40
40
40
C0
ENDCHAR
STARTCHAR 0284
ENCODING 644
SWIDTH 333 0
DWIDTH 4 0
BBX 5 11 0 -2
BITMAP
38
40
40
40
40
40
40
40
F0
40
C0
ENDCHAR
STARTCHAR 0288
ENCODING 648
SWIDTH 333 0
DWIDTH 4 0
BBX 4 9 0 -1
BITMAP
40
F0
40
40
40
40
40
40
70
ENDCHAR
STARTCHAR 0289
ENCODING 649
SWIDTH 583 0
DWIDTH 7 0
BBX 7 6 0 0
BITMAP
44
44
FE
44
44
3C
ENDCHAR
STARTCHAR 028A
ENCODING 650
SWIDTH 583 0
DWIDTH 7 0
BBX 6 6 1 0
BITMAP
DC
48
88
88
88
70
ENDCHAR
STARTCHAR 028B
ENCODING 651
SWIDTH 583 0
DWIDTH 7 0
BBX 5 6 1 0
BITMAP
98
88
88
88
88
70
ENDCHAR
STARTCHAR 028C
ENCODING 652
SWIDTH 500 0
DWIDTH 6 0
BBX 6 6 0 0
BITMAP
30
30
50
48
48
8C
ENDCHAR
STARTCHAR 028D
ENCODING 653
SWIDTH 750 0
DWIDTH 9 0
BBX 9 6 0 0
BITMAP
2200
6600
5500
5500
5900
8880
ENDCHAR
STARTCHAR 028E
ENCODING 654
SWIDTH 500 0
DWIDTH 6 0
BBX 6 8 0 0
BITMAP
18
10
20
30
50
48
48
8C
ENDCHAR
STARTCHAR 0290
ENCODING 656
SWIDTH 500 0
DWIDTH 6 0
BBX 7 8 0 -2
BITMAP
78
08
10
20
40
F8
08
0E
ENDCHAR
STARTCHAR 0291
ENCODING 657
SWIDTH 500 0
DWIDTH 6 0
BBX 6 7 0 -1
BITMAP
78
08
10
20
5C
FC
20
ENDCHAR
STARTCHAR 0292
ENCODING 658
SWIDTH 500 0
DWIDTH 6 0
BBX 4 8 1 -2
BITMAP
F0
30
60
F0
10
10
10
F0
ENDCHAR
STARTCHAR 0294
ENCODING 660
SWIDTH 500 0
DWIDTH 6 0
BBX 5 9 0 0
BITMAP
78
88
08
18
20
20
20
20
20
ENDCHAR
STARTCHAR 0295
ENCODING 661
SWIDTH 500 0
DWIDTH 6 0
BBX 6 9 0 0
BITMAP
78
4C
80
40
20
20
20
20
20
ENDCHAR
STARTCHAR 0298
ENCODING 664
SWIDTH 666 0
DWIDTH 8 0
BBX 6 6 1 0
BITMAP
70
88
B4
B4
88
70
ENDCHAR
STARTCHAR 029D
ENCODING 669
SWIDTH 333 0
DWIDTH 4 0
BBX 4 11 0 -2
BITMAP
20
00
20
20
20
20
20
20
20
F0
E0
ENDCHAR
STARTCHAR 02A1
ENCODING 673
SWIDTH 500 0
DWIDTH 6 0
BBX 5 9 0 0
BITMAP
78
88
08
18
20
70
20
20
20
ENDCHAR
STARTCHAR 02A2
ENCODING 674
SWIDTH 500 0
DWIDTH 6 0
BBX 6 9 0 0
BITMAP
78
4C
80
40
20
70
20
20
20
ENDCHAR
STARTCHAR 02BB
ENCODING 699
SWIDTH 1000 0
DWIDTH 12 0
BBX 1 3 10 7
BITMAP
80
80
80
ENDCHAR
STARTCHAR 02BC
ENCODING 700
SWIDTH 1000 0
DWIDTH 12 0
BBX 1 3 1 7
BITMAP
80
80
80
ENDCHAR
STARTCHAR 02C6
ENCODING 710
SWIDTH 500 0
DWIDTH 6 0
BBX 2 2 2 7
BITMAP
C0
C0
ENDCHAR
STARTCHAR 02C7
ENCODING 711
SWIDTH 500 0
DWIDTH 6 0
BBX 3 2 2 7
BITMAP
20
C0
ENDCHAR
STARTCHAR 02C8
ENCODING 712
SWIDTH 166 0
DWIDTH 2 0
BBX 1 5 1 4
BITMAP
80
80
80
80
80
ENDCHAR
STARTCHAR 02CC
ENCODING 716
SWIDTH 166 0
DWIDTH 2 0
BBX 1 5 1 -2
BITMAP
80
80
80
80
80
ENDCHAR
STARTCHAR 02D0
ENCODING 720
SWIDTH 333 0
DWIDTH 4 0
BBX 1 6 1 0
BITMAP
80
00
00
00
00
80
ENDCHAR
STARTCHAR 02D1
ENCODING 721
SWIDTH 333 0
DWIDTH 4 0
BBX 1 1 1 4
BITMAP
80
ENDCHAR
STARTCHAR 02D8
ENCODING 728
SWIDTH 500 0
DWIDTH 6 0
BBX 4 2 1 7
BITMAP
90
60
ENDCHAR
STARTCHAR 02D9
ENCODING 729
SWIDTH 500 0
DWIDTH 6 0
BBX 2 1 2 8
BITMAP
C0
ENDCHAR
STARTCHAR 02DB
ENCODING 731
SWIDTH 500 0
DWIDTH 6 0
BBX 2 3 2 -3
BITMAP
C0
80
C0
ENDCHAR
STARTCHAR 02DC
ENCODING 732
SWIDTH 500 0
DWIDTH 6 0
BBX 4 1 1 8
BITMAP
F0
ENDCHAR
STARTCHAR 02DD
ENCODING 733
SWIDTH 500 0
DWIDTH 6 0
BBX 3 2 2 7
BITMAP
A0
80
ENDCHAR
STARTCHAR 02DE
ENCODING 734
SWIDTH 500 0
DWIDTH 6 0
BBX 3 3 2 0
BITMAP
C0
40
60
ENDCHAR
STARTCHAR 02E5
ENCODING 741
SWIDTH 500 0
DWIDTH 6 0
BBX 2 9 1 0
BITMAP
C0
40
40
40
40
40
40
40
40
ENDCHAR
STARTCHAR 02E6
ENCODING 742
SWIDTH 500 0
DWIDTH 6 0
BBX 2 9 1 0
BITMAP
40
40
C0
40
40
40
40
40
40
ENDCHAR
STARTCHAR 02E7
ENCODING 743
SWIDTH 500 0
DWIDTH 6 0
BBX 2 9 1 0
BITMAP
40
40
40
40
C0
40
40
40
40
ENDCHAR
STARTCHAR 02E8
ENCODING 744
SWIDTH 500 0
DWIDTH 6 0
BBX 2 9 1 0
BITMAP
40
40
40
40
40
40
C0
40
40
ENDCHAR
STARTCHAR 02E9
ENCODING 745
SWIDTH 500 0
DWIDTH 6 0
BBX 2 9 1 0
BITMAP
40
40
40
40
40
40
40
40
C0
ENDCHAR
STARTCHAR 0300
ENCODING 768
SWIDTH 500 0
DWIDTH 6 0
BBX 1 2 2 7
BITMAP
80
80
ENDCHAR
STARTCHAR 0301
ENCODING 769
SWIDTH 500 0
DWIDTH 6 0
BBX 1 2 3 7
BITMAP
80
80
ENDCHAR
STARTCHAR 0302
ENCODING 770
SWIDTH 500 0
DWIDTH 6 0
BBX 2 2 2 7
BITMAP
C0
C0
ENDCHAR
STARTCHAR 0303
ENCODING 771
SWIDTH 500 0
DWIDTH 6 0
BBX 4 1 1 8
BITMAP
F0
ENDCHAR
STARTCHAR 0304
ENCODING 772
SWIDTH 500 0
DWIDTH 6 0
BBX 4 1 1 7
BITMAP
F0
ENDCHAR
STARTCHAR 0305
ENCODING 773
SWIDTH 500 0
DWIDTH 6 0
BBX 4 1 1 7
BITMAP
F0
ENDCHAR
STARTCHAR 0306
ENCODING 774
SWIDTH 500 0
DWIDTH 6 0
BBX 4 2 1 7
BITMAP
90
60
ENDCHAR
STARTCHAR 0308
ENCODING 776
SWIDTH 500 0
DWIDTH 6 0
BBX 4 1 1 7
BITMAP
90
ENDCHAR
STARTCHAR 030B
ENCODING 779
SWIDTH 500 0
DWIDTH 6 0
BBX 3 2 2 7
BITMAP
A0
80
ENDCHAR
STARTCHAR 030C
ENCODING 780
SWIDTH 500 0
DWIDTH 6 0
BBX 3 2 2 7
BITMAP
20
C0
ENDCHAR
STARTCHAR 030F
ENCODING 783
SWIDTH 500 0
DWIDTH 6 0
BBX 3 2 1 7
BITMAP
A0
20
ENDCHAR
STARTCHAR 0318
ENCODING 792
SWIDTH 500 0
DWIDTH 6 0
BBX 2 3 2 -3
BITMAP
40
C0
40
ENDCHAR
STARTCHAR 0319
ENCODING 793
SWIDTH 500 0
DWIDTH 6 0
BBX 2 3 2 -3
BITMAP
80
C0
80
ENDCHAR
STARTCHAR 031A
ENCODING 794
SWIDTH 500 0
DWIDTH 6 0
BBX 2 2 1 6
BITMAP
C0
40
ENDCHAR
STARTCHAR 031C
ENCODING 796
SWIDTH 500 0
DWIDTH 6 0
BBX 2 3 2 -3
BITMAP
40
80
80
ENDCHAR
STARTCHAR 031D
ENCODING 797
SWIDTH 500 0
DWIDTH 6 0
BBX 4 2 1 -2
BITMAP
40
F0
ENDCHAR
STARTCHAR 031E
ENCODING 798
SWIDTH 500 0
DWIDTH 6 0
BBX 4 2 1 -2
BITMAP
F0
40
ENDCHAR
STARTCHAR 031F
ENCODING 799
SWIDTH 500 0
DWIDTH 6 0
BBX 4 3 1 -3
BITMAP
40
F0
40
ENDCHAR
STARTCHAR 0320
ENCODING 800
SWIDTH 500 0
DWIDTH 6 0
BBX 4 1 1 -1
BITMAP
F0
ENDCHAR
STARTCHAR 0324
ENCODING 804
SWIDTH 500 0
DWIDTH 6 0
BBX 4 1 1 -2
BITMAP
90
ENDCHAR
STARTCHAR 0325
ENCODING 805
SWIDTH 500 0
DWIDTH 6 0
BBX 2 2 2 -2
BITMAP
C0
C0
ENDCHAR
STARTCHAR 0327
ENCODING 807
SWIDTH 500 0
DWIDTH 6 0
BBX 2 3 2 -3
BITMAP
80
40
80
ENDCHAR
STARTCHAR 0329
ENCODING 809
SWIDTH 500 0
DWIDTH 6 0
BBX 1 2 2 -2
BITMAP
80
80
ENDCHAR
STARTCHAR 032A
ENCODING 810
SWIDTH 500 0
DWIDTH 6 0
BBX 4 2 1 -2
BITMAP
F0
90
ENDCHAR
STARTCHAR 032C
ENCODING 812
SWIDTH 500 0
DWIDTH 6 0
BBX 2 2 2 -2
BITMAP
C0
C0
ENDCHAR
STARTCHAR 032F
ENCODING 815
SWIDTH 500 0
DWIDTH 6 0
BBX 3 1 1 -2
BITMAP
E0
ENDCHAR
STARTCHAR 0330
ENCODING 816
SWIDTH 500 0
DWIDTH 6 0
BBX 4 1 1 -2
BITMAP
F0
ENDCHAR
STARTCHAR 0332
ENCODING 818
SWIDTH 500 0
DWIDTH 6 0
BBX 6 1 0 -1
BITMAP
FC
ENDCHAR
STARTCHAR 0334
ENCODING 820
SWIDTH 500 0
DWIDTH 6 0
BBX 4 1 1 3
BITMAP
F0
ENDCHAR
STARTCHAR 0336
ENCODING 822
SWIDTH 1000 0
DWIDTH 12 0
BBX 10 1 1 4
BITMAP
FFC0
ENDCHAR
STARTCHAR 0339
ENCODING 825
SWIDTH 500 0
DWIDTH 6 0
BBX 2 3 2 -3
BITMAP
80
40
40
ENDCHAR
STARTCHAR 033A
ENCODING 826
SWIDTH 500 0
DWIDTH 6 0
BBX 4 2 1 -3
BITMAP
90
F0
ENDCHAR
STARTCHAR 033B
ENCODING 827
SWIDTH 500 0
DWIDTH 6 0
BBX 4 3 1 -3
BITMAP
F0
90
F0
ENDCHAR
STARTCHAR 033C
ENCODING 828
SWIDTH 500 0
DWIDTH 6 0
BBX 4 1 1 -1
BITMAP
F0
ENDCHAR
STARTCHAR 033D
ENCODING 829
SWIDTH 500 0
DWIDTH 6 0
BBX 2 2 2 6
BITMAP
C0
C0
ENDCHAR
STARTCHAR 0361
ENCODING 865
SWIDTH 0 0
DWIDTH 0 0
BBX 6 2 -3 9
BITMAP
78
84
ENDCHAR
STARTCHAR 0391
ENCODING 913
SWIDTH 1000 0
DWIDTH 12 0
BBX 8 8 2 1
BITMAP
18
18
24
24
66
7E
42
81
ENDCHAR
STARTCHAR 0392
ENCODING 914
SWIDTH 1000 0
DWIDTH 12 0
BBX 7 8 3 1
BITMAP
F8
84
84
84
F8
86
86
FC
ENDCHAR
STARTCHAR 0393
ENCODING 915
SWIDTH 1000 0
DWIDTH 12 0
BBX 6 8 3 1
BITMAP
FC
80
80
80
80
80
80
80
ENDCHAR
STARTCHAR 0394
ENCODING 916
SWIDTH 1000 0
DWIDTH 12 0
BBX 8 8 2 1
BITMAP
18
18
24
24
42
42
C3
FF
ENDCHAR
STARTCHAR 0395
ENCODING 917
SWIDTH 1000 0
DWIDTH 12 0
BBX 6 8 3 1
BITMAP
FC
80
80
80
FC
80
80
FC
ENDCHAR
STARTCHAR 0396
ENCODING 918
SWIDTH 1000 0
DWIDTH 12 0
BBX 6 8 3 1
BITMAP
FC
0C
08
10
20
40
80
FC
ENDCHAR
STARTCHAR 0397
ENCODING 919
SWIDTH 1000 0
DWIDTH 12 0
BBX 6 9 3 0
BITMAP
84
84
84
84
FC
84
84
84
84
ENDCHAR
STARTCHAR 0398
ENCODING 920
SWIDTH 1000 0
DWIDTH 12 0
BBX 8 9 2 0
BITMAP
3C
42
C3
81
BD
81
C3
42
3C
ENDCHAR
STARTCHAR 0399
ENCODING 921
SWIDTH 1000 0
DWIDTH 12 0
BBX 2 8 5 1
BITMAP
C0
C0
C0
C0
C0
C0
C0
C0
ENDCHAR
STARTCHAR 039A
ENCODING 922
SWIDTH 1000 0
DWIDTH 12 0
BBX 7 8 3 1
BITMAP
8C
98
B0
E0
90
88
8C
86
ENDCHAR
STARTCHAR 039B
ENCODING 923
SWIDTH 1000 0
DWIDTH 12 0
BBX 8 8 2 1
BITMAP
18
18
24
24
24
42
42
81
ENDCHAR
STARTCHAR 039C
ENCODING 924
SWIDTH 1000 0
DWIDTH 12 0
BBX 8 8 2 1
BITMAP
C3
C3
C3
A5
A5
A5
99
99
ENDCHAR
STARTCHAR 039D
ENCODING 925
SWIDTH 1000 0
DWIDTH 12 0
BBX 6 8 3 1
BITMAP
84
C4
A4
A4
94
8C
8C
84
ENDCHAR
STARTCHAR 039E
ENCODING 926
SWIDTH 1000 0
DWIDTH 12 0
BBX 6 8 3 1
BITMAP
FC
00
00
FC
00
00
00
FC
ENDCHAR
STARTCHAR 039F
ENCODING 927
SWIDTH 1000 0
DWIDTH 12 0
BBX 8 9 2 0
BITMAP
3C
42
C3
81
81
81
C3
42
3C
ENDCHAR
STARTCHAR 03A0
ENCODING 928
SWIDTH 1000 0
DWIDTH 12 0
BBX 6 9 3 0
BITMAP
FC
84
84
84
84
84
84
84
84
ENDCHAR
STARTCHAR 03A1
ENCODING 929
SWIDTH 1000 0
DWIDTH 12 0
BBX 7 9 3 0
BITMAP
FC
84
86
84
FC
80
80
80
80
ENDCHAR
STARTCHAR 03A3
ENCODING 931
SWIDTH 1000 0
DWIDTH 12 0
BBX 8 8 2 1
BITMAP
FE
40
30
18
10
20
40
FF
ENDCHAR
STARTCHAR 03A4
ENCODING 932
SWIDTH 1000 0
DWIDTH 12 0
BBX 8 8 2 1
BITMAP
FF
18
18
18
18
18
18
18
ENDCHAR
STARTCHAR 03A5
ENCODING 933
SWIDTH 1000 0
DWIDTH 12 0
BBX 8 9 2 0
BITMAP
C3
42
24
3C
18
18
18
18
18
ENDCHAR
STARTCHAR 03A6
ENCODING 934
SWIDTH 1000 0
DWIDTH 12 0
BBX 8 8 2 1
BITMAP
18
3C
DB
99
99
99
7E
18
ENDCHAR
STARTCHAR 03A7
ENCODING 935
SWIDTH 1000 0
DWIDTH 12 0
BBX 8 8 2 1
BITMAP
42
24
3C
18
18
24
66
C3
ENDCHAR
STARTCHAR 03A8
ENCODING 936
SWIDTH 1000 0
DWIDTH 12 0
BBX 8 8 2 1
BITMAP
DB
DB
DB
DB
5A
7E
18
18
ENDCHAR
STARTCHAR 03A9
ENCODING 937
SWIDTH 1000 0
DWIDTH 12 0
BBX 8 8 2 1
BITMAP
3C
42
81
81
81
42
24
E7
ENDCHAR
STARTCHAR 03B1
ENCODING 945
SWIDTH 1000 0
DWIDTH 12 0
BBX 7 6 2 0
BITMAP
3A
6A
4C
88
96
66
ENDCHAR
STARTCHAR 03B2
ENCODING 946
SWIDTH 1000 0
DWIDTH 12 0
BBX 7 10 2 -1
BITMAP
0C
12
22
26
5C
44
42
64
9C
80
ENDCHAR
STARTCHAR 03B3
ENCODING 947
SWIDTH 1000 0
DWIDTH 12 0
BBX 6 7 3 -1
BITMAP
E4
2C
28
10
20
20
20
ENDCHAR
STARTCHAR 03B4
ENCODING 948
SWIDTH 1000 0
DWIDTH 12 0
BBX 6 9 3 0
BITMAP
38
4C
20
30
48
88
88
88
70
ENDCHAR
STARTCHAR 03B5
ENCODING 949
SWIDTH 1000 0
DWIDTH 12 0
BBX 5 6 3 0
BITMAP
78
40
30
C0
88
70
ENDCHAR
STARTCHAR 03B6
ENCODING 950
SWIDTH 1000 0
DWIDTH 12 0
BBX 6 10 3 -1
BITMAP
2C
78
20
40
40
80
80
78
08
70
ENDCHAR
STARTCHAR 03B7
ENCODING 951
SWIDTH 1000 0
DWIDTH 12 0
BBX 6 7 3 -1
BITMAP
DC
24
44
48
48
88
08
ENDCHAR
STARTCHAR 03B8
ENCODING 952
SWIDTH 1000 0
DWIDTH 12 0
BBX 6 9 3 0
BITMAP
38
44
44
84
FC
84
88
98
70
ENDCHAR
STARTCHAR 03B9
ENCODING 953
SWIDTH 1000 0
DWIDTH 12 0
BBX 4 6 4 0
BITMAP
40
40
80
80
B0
E0
ENDCHAR
STARTCHAR 03BA
ENCODING 954
SWIDTH 1000 0
DWIDTH 12 0
BBX 6 6 3 1
BITMAP
4C
70
60
54
94
98
ENDCHAR
STARTCHAR 03BB
ENCODING 955
SWIDTH 1000 0
DWIDTH 12 0
BBX 6 8 3 1
BITMAP
70
10
10
10
28
48
C8
84
ENDCHAR
STARTCHAR 03BC
ENCODING 956
SWIDTH 1000 0
DWIDTH 12 0
BBX 8 7 2 -1
BITMAP
22
24
44
44
6D
76
80
ENDCHAR
STARTCHAR 03BD
ENCODING 957
SWIDTH 1000 0
DWIDTH 12 0
BBX 5 6 4 0
BITMAP
88
88
98
90
A0
C0
ENDCHAR
STARTCHAR 03BE
ENCODING 958
SWIDTH 1000 0
DWIDTH 12 0
BBX 5 10 3 -1
BITMAP
38
40
40
38
40
80
80
78
08
78
ENDCHAR
STARTCHAR 03BF
ENCODING 959
SWIDTH 1000 0
DWIDTH 12 0
BBX 6 6 3 0
BITMAP
38
4C
84
84
88
70
ENDCHAR
STARTCHAR 03C0
ENCODING 960
SWIDTH 1000 0
DWIDTH 12 0
BBX 7 6 3 1
BITMAP
FE
48
50
50
94
18
ENDCHAR
STARTCHAR 03C1
ENCODING 961
SWIDTH 1000 0
DWIDTH 12 0
BBX 6 7 3 -1
BITMAP
38
4C
84
84
C8
B0
80
ENDCHAR
STARTCHAR 03C2
ENCODING 962
SWIDTH 583 0
DWIDTH 7 0
BBX 5 8 1 -2
BITMAP
70
88
80
80
60
10
10
E0
ENDCHAR
STARTCHAR 03C3
ENCODING 963
SWIDTH 1000 0
DWIDTH 12 0
BBX 7 7 3 0
BITMAP
3E
48
44
84
88
C8
70
ENDCHAR
STARTCHAR 03C4
ENCODING 964
SWIDTH 1000 0
DWIDTH 12 0
BBX 6 6 3 0
BITMAP
FC
20
20
40
48
30
ENDCHAR
STARTCHAR 03C5
ENCODING 965
SWIDTH 1000 0
DWIDTH 12 0
BBX 6 6 3 0
BITMAP
CC
44
44
84
88
70
ENDCHAR
STARTCHAR 03C6
ENCODING 966
SWIDTH 1000 0
DWIDTH 12 0
BBX 6 10 3 -1
BITMAP
08
10
10
7C
94
A4
A4
F8
20
40
ENDCHAR
STARTCHAR 03C7
ENCODING 967
SWIDTH 1000 0
DWIDTH 12 0
BBX 6 7 3 -1
BITMAP
E4
28
30
20
70
54
98
ENDCHAR
STARTCHAR 03C8
ENCODING 968
SWIDTH 1000 0
DWIDTH 12 0
BBX 8 9 2 -1
BITMAP
08
08
2A
4A
91
92
56
38
20
ENDCHAR
STARTCHAR 03C9
ENCODING 969
SWIDTH 1000 0
DWIDTH 12 0
BBX 8 6 2 0
BITMAP
22
49
89
91
9A
6E
ENDCHAR
STARTCHAR 0401
ENCODING 1025
SWIDTH 1000 0
DWIDTH 12 0
BBX 6 9 3 1
BITMAP
48
FC
80
80
80
FC
80
80
FC
ENDCHAR
STARTCHAR 0410
ENCODING 1040
SWIDTH 1000 0
DWIDTH 12 0
BBX 8 8 2 1
BITMAP
18
18
24
24
66
7E
42
81
ENDCHAR
STARTCHAR 0411
ENCODING 1041
SWIDTH 1000 0
DWIDTH 12 0
BBX 7 8 3 1
BITMAP
FC
80
80
80
FC
86
86
FC
ENDCHAR
STARTCHAR 0412
ENCODING 1042
SWIDTH 1000 0
DWIDTH 12 0
BBX 7 8 3 1
BITMAP
F8
84
84
84
F8
86
86
FC
ENDCHAR
STARTCHAR 0413
ENCODING 1043
SWIDTH 1000 0
DWIDTH 12 0
BBX 6 8 3 1
BITMAP
FC
80
80
80
80
80
80
80
ENDCHAR
STARTCHAR 0414
ENCODING 1044
SWIDTH 1000 0
DWIDTH 12 0
BBX 8 10 2 -1
BITMAP
3E
22
22
22
22
42
42
FF
81
81
ENDCHAR
STARTCHAR 0415
ENCODING 1045
SWIDTH 1000 0
DWIDTH 12 0
BBX 6 8 3 1
BITMAP
FC
80
80
80
FC
80
80
FC
ENDCHAR
STARTCHAR 0416
ENCODING 1046
SWIDTH 1000 0
DWIDTH 12 0
BBX 10 8 1 1
BITMAP
4C80
4C80
2D00
1E00
2D00
2D00
4C80
CCC0
ENDCHAR
STARTCHAR 0417
ENCODING 1047
SWIDTH 1000 0
DWIDTH 12 0
BBX 7 9 2 0
BITMAP
3C
42
02
1C
06
02
C2
42
3C
ENDCHAR
STARTCHAR 0418
ENCODING 1048
SWIDTH 1000 0
DWIDTH 12 0
BBX 6 8 3 1
BITMAP
84
84
8C
94
A4
C4
84
84
ENDCHAR
STARTCHAR 0419
ENCODING 1049
SWIDTH 1000 0
DWIDTH 12 0
BBX 6 9 3 1
BITMAP
78
84
84
8C
94
A4
C4
84
84
ENDCHAR
STARTCHAR 041A
ENCODING 1050
SWIDTH 1000 0
DWIDTH 12 0
BBX 7 8 3 1
BITMAP
84
8C
98
F0
90
88
84
86
ENDCHAR
STARTCHAR 041B
ENCODING 1051
SWIDTH 1000 0
DWIDTH 12 0
BBX 8 9 1 0
BITMAP
0F
09
09
09
19
11
11
D1
61
ENDCHAR
STARTCHAR 041C
ENCODING 1052
SWIDTH 1000 0
DWIDTH 12 0
BBX 8 8 2 1
BITMAP
C3
C3
C3
A5
A5
A5
99
99
ENDCHAR
STARTCHAR 041D
ENCODING 1053
SWIDTH 1000 0
DWIDTH 12 0
BBX 6 9 3 0
BITMAP
84
84
84
84
FC
84
84
84
84
ENDCHAR
STARTCHAR 041E
ENCODING 1054
SWIDTH 1000 0
DWIDTH 12 0
BBX 8 9 2 0
BITMAP
3C
42
C3
81
81
81
C3
42
3C
ENDCHAR
STARTCHAR 041F
ENCODING 1055
SWIDTH 1000 0
DWIDTH 12 0
BBX 6 9 3 0
BITMAP
FC
84
84
84
84
84
84
84
84
ENDCHAR
STARTCHAR 0420
ENCODING 1056
SWIDTH 1000 0
DWIDTH 12 0
BBX 7 9 3 0
BITMAP
FC
84
86
84
FC
80
80
80
80
ENDCHAR
STARTCHAR 0421
ENCODING 1057
SWIDTH 1000 0
DWIDTH 12 0
BBX 8 9 2 0
BITMAP
3C
42
80
80
80
81
C2
46
3C
ENDCHAR
STARTCHAR 0422
ENCODING 1058
SWIDTH 1000 0
DWIDTH 12 0
BBX 8 8 2 1
BITMAP
FF
18
18
18
18
18
18
18
ENDCHAR
STARTCHAR 0423
ENCODING 1059
SWIDTH 1000 0
DWIDTH 12 0
BBX 7 9 3 0
BITMAP
86
C4
44
28
28
10
10
70
80
ENDCHAR
STARTCHAR 0424
ENCODING 1060
SWIDTH 1000 0
DWIDTH 12 0
BBX 8 8 2 1
BITMAP
18
3C
DB
99
99
99
7E
18
ENDCHAR
STARTCHAR 0425
ENCODING 1061
SWIDTH 1000 0
DWIDTH 12 0
BBX 8 8 2 1
BITMAP
42
24
3C
18
18
24
66
C3
ENDCHAR
STARTCHAR 0426
ENCODING 1062
SWIDTH 1000 0
DWIDTH 12 0
BBX 7 10 3 -1
BITMAP
84
84
84
84
84
84
84
FE
02
02
ENDCHAR
STARTCHAR 0427
ENCODING 1063
SWIDTH 1000 0
DWIDTH 12 0
BBX 6 8 3 1
BITMAP
84
84
84
84
8C
74
04
04
ENDCHAR
STARTCHAR 0428
ENCODING 1064
SWIDTH 1000 0
DWIDTH 12 0
BBX 8 8 2 1
BITMAP
91
91
91
91
91
91
91
FF
ENDCHAR
STARTCHAR 0429
ENCODING 1065
SWIDTH 1000 0
DWIDTH 12 0
BBX 9 10 2 -1
BITMAP
9100
9100
9100
9100
9100
9100
9100
FF80
0080
0080
ENDCHAR
STARTCHAR 042A
ENCODING 1066
SWIDTH 1000 0
DWIDTH 12 0
BBX 8 8 2 1
BITMAP
E0
20
20
20
3E
21
21
3E
ENDCHAR
STARTCHAR 042B
ENCODING 1067
SWIDTH 1000 0
DWIDTH 12 0
BBX 8 8 2 1
BITMAP
81
81
81
81
F9
85
85
F9
ENDCHAR
STARTCHAR 042C
ENCODING 1068
SWIDTH 1000 0
DWIDTH 12 0
BBX 7 8 3 1
BITMAP
80
80
80
80
FC
86
86
FC
ENDCHAR
STARTCHAR 042D
ENCODING 1069
SWIDTH 1000 0
DWIDTH 12 0
BBX 8 9 2 0
BITMAP
3C
42
03
71
0D
01
C3
42
3C
ENDCHAR
STARTCHAR 042E
ENCODING 1070
SWIDTH 1000 0
DWIDTH 12 0
BBX 9 9 2 0
BITMAP
8E00
9100
A180
A080
E080
A080
B180
9100
8E00
ENDCHAR
STARTCHAR 042F
ENCODING 1071
SWIDTH 1000 0
DWIDTH 12 0
BBX 6 8 3 1
BITMAP
7C
84
84
84
7C
24
44
84
ENDCHAR
STARTCHAR 0430
ENCODING 1072
SWIDTH 1000 0
DWIDTH 12 0
BBX 6 6 3 0
BITMAP
78
C8
78
88
88
74
ENDCHAR
STARTCHAR 0431
ENCODING 1073
SWIDTH 1000 0
DWIDTH 12 0
BBX 6 9 3 0
BITMAP
08
30
40
B8
C8
84
84
48
78
ENDCHAR
STARTCHAR 0432
ENCODING 1074
SWIDTH 1000 0
DWIDTH 12 0
BBX 4 5 4 1
BITMAP
F0
90
E0
90
F0
ENDCHAR
STARTCHAR 0433
ENCODING 1075
SWIDTH 1000 0
DWIDTH 12 0
BBX 5 6 4 0
BITMAP
F8
80
80
80
80
80
ENDCHAR
STARTCHAR 0434
ENCODING 1076
SWIDTH 1000 0
DWIDTH 12 0
BBX 6 7 3 -1
BITMAP
38
68
48
48
FC
84
04
ENDCHAR
STARTCHAR 0435
ENCODING 1077
SWIDTH 1000 0
DWIDTH 12 0
BBX 6 6 3 0
BITMAP
78
84
FC
80
CC
78
ENDCHAR
STARTCHAR 0436
ENCODING 1078
SWIDTH 1000 0
DWIDTH 12 0
BBX 8 6 2 1
BITMAP
4A
4A
6E
3C
4A
CB
ENDCHAR
STARTCHAR 0437
ENCODING 1079
SWIDTH 1000 0
DWIDTH 12 0
BBX 5 6 3 0
BITMAP
78
08
38
08
C8
78
ENDCHAR
STARTCHAR 0438
ENCODING 1080
SWIDTH 1000 0
DWIDTH 12 0
BBX 6 5 3 1
BITMAP
8C
9C
B4
E4
C4
ENDCHAR
STARTCHAR 0439
ENCODING 1081
SWIDTH 1000 0
DWIDTH 12 0
BBX 6 7 3 1
BITMAP
78
00
8C
9C
B4
E4
C4
ENDCHAR
STARTCHAR 043A
ENCODING 1082
SWIDTH 1000 0
DWIDTH 12 0
BBX 6 6 3 1
BITMAP
88
88
90
F0
88
8C
ENDCHAR
STARTCHAR 043B
ENCODING 1083
SWIDTH 1000 0
DWIDTH 12 0
BBX 6 6 2 0
BITMAP
1C
14
14
24
A4
64
ENDCHAR
STARTCHAR 043C
ENCODING 1084
SWIDTH 1000 0
DWIDTH 12 0
BBX 6 6 3 0
BITMAP
CC
CC
CC
B4
B4
84
ENDCHAR
STARTCHAR 043D
ENCODING 1085
SWIDTH 1000 0
DWIDTH 12 0
BBX 6 6 3 0
BITMAP
84
84
FC
84
84
84
ENDCHAR
STARTCHAR 043E
ENCODING 1086
SWIDTH 1000 0
DWIDTH 12 0
BBX 6 6 3 0
BITMAP
78
CC
84
84
CC
78
ENDCHAR
STARTCHAR 043F
ENCODING 1087
SWIDTH 1000 0
DWIDTH 12 0
BBX 6 6 3 0
BITMAP
FC
84
84
84
84
84
ENDCHAR
STARTCHAR 0440
ENCODING 1088
SWIDTH 1000 0
DWIDTH 12 0
BBX 6 7 3 -1
BITMAP
B8
C4
C4
C4
C4
F8
C0
ENDCHAR
STARTCHAR 0441
ENCODING 1089
SWIDTH 1000 0
DWIDTH 12 0
BBX 6 6 3 0
BITMAP
78
84
80
80
CC
78
ENDCHAR
STARTCHAR 0442
ENCODING 1090
SWIDTH 1000 0
DWIDTH 12 0
BBX 6 6 3 0
BITMAP
FC
30
30
30
30
30
ENDCHAR
STARTCHAR 0443
ENCODING 1091
SWIDTH 1000 0
DWIDTH 12 0
BBX 6 7 3 -1
BITMAP
84
4C
48
38
30
30
E0
ENDCHAR
STARTCHAR 0444
ENCODING 1092
SWIDTH 1000 0
DWIDTH 12 0
BBX 8 10 2 -1
BITMAP
10
10
10
7E
91
91
91
99
76
10
ENDCHAR
STARTCHAR 0445
ENCODING 1093
SWIDTH 1000 0
DWIDTH 12 0
BBX 6 5 3 1
BITMAP
CC
78
30
48
84
ENDCHAR
STARTCHAR 0446
ENCODING 1094
SWIDTH 1000 0
DWIDTH 12 0
BBX 7 8 3 -1
BITMAP
88
88
88
88
88
FE
02
02
ENDCHAR
STARTCHAR 0447
ENCODING 1095
SWIDTH 1000 0
DWIDTH 12 0
BBX 6 5 3 1
BITMAP
8C
8C
7C
0C
0C
ENDCHAR
STARTCHAR 0448
ENCODING 1096
SWIDTH 1000 0
DWIDTH 12 0
BBX 8 6 2 1
BITMAP
89
89
89
89
89
FF
ENDCHAR
STARTCHAR 0449
ENCODING 1097
SWIDTH 1000 0
DWIDTH 12 0
BBX 9 8 2 -1
BITMAP
9100
9100
9100
9100
9100
FF80
0080
0080
ENDCHAR
STARTCHAR 044A
ENCODING 1098
SWIDTH 1000 0
DWIDTH 12 0
BBX 6 5 3 1
BITMAP
C0
7C
44
44
78
ENDCHAR
STARTCHAR 044B
ENCODING 1099
SWIDTH 1000 0
DWIDTH 12 0
BBX 8 6 2 1
BITMAP
C3
C3
FB
CB
CB
FB
ENDCHAR
STARTCHAR 044C
ENCODING 1100
SWIDTH 1000 0
DWIDTH 12 0
BBX 6 6 3 1
BITMAP
80
80
F8
84
84
F8
ENDCHAR
STARTCHAR 044D
ENCODING 1101
SWIDTH 1000 0
DWIDTH 12 0
BBX 6 6 3 0
BITMAP
78
84
74
04
CC
78
ENDCHAR
STARTCHAR 044E
ENCODING 1102
SWIDTH 1000 0
DWIDTH 12 0
BBX 8 6 2 0
BITMAP
8E
91
F1
91
91
8E
ENDCHAR
STARTCHAR 044F
ENCODING 1103
SWIDTH 1000 0
DWIDTH 12 0
BBX 5 5 3 1
BITMAP
78
48
78
68
C8
ENDCHAR
STARTCHAR 0451
ENCODING 1105
SWIDTH 1000 0
DWIDTH 12 0
BBX 6 8 3 0
BITMAP
48
00
78
84
FC
80
CC
78
ENDCHAR
STARTCHAR 1E3E
ENCODING 7742
SWIDTH 916 0
DWIDTH 11 0
BBX 9 11 1 0
BITMAP
0800
0000
C180
C280
A280
A280
A480
9480
9880
8880
8080
ENDCHAR
STARTCHAR 1E3F
ENCODING 7743
SWIDTH 833 0
DWIDTH 10 0
BBX 8 9 1 0
BITMAP
04
08
00
F7
C9
89
89
89
89
ENDCHAR
STARTCHAR 1F70
ENCODING 8048
SWIDTH 583 0
DWIDTH 7 0
BBX 6 9 1 0
BITMAP
40
20
00
70
88
88
88
88
74
ENDCHAR
STARTCHAR 1F71
ENCODING 8049
SWIDTH 583 0
DWIDTH 7 0
BBX 6 9 1 0
BITMAP
10
20
00
70
88
88
88
88
74
ENDCHAR
STARTCHAR 1F72
ENCODING 8050
SWIDTH 500 0
DWIDTH 6 0
BBX 5 9 1 0
BITMAP
40
20
00
F0
80
F0
80
80
F8
ENDCHAR
STARTCHAR 1F73
ENCODING 8051
SWIDTH 500 0
DWIDTH 6 0
BBX 5 9 1 0
BITMAP
10
20
00
F0
80
F0
80
80
F8
ENDCHAR
STARTCHAR 2002
ENCODING 8194
SWIDTH 500 0
DWIDTH 6 0
BBX 0 0 0 0
BITMAP
ENDCHAR
STARTCHAR 2003
ENCODING 8195
SWIDTH 1000 0
DWIDTH 12 0
BBX 0 0 0 0
BITMAP
ENDCHAR
STARTCHAR 2010
ENCODING 8208
SWIDTH 333 0
DWIDTH 4 0
BBX 3 1 1 3
BITMAP
E0
ENDCHAR
STARTCHAR 2011
ENCODING 8209
SWIDTH 333 0
DWIDTH 4 0
BBX 3 1 1 3
BITMAP
E0
ENDCHAR
STARTCHAR 2012
ENCODING 8210
SWIDTH 333 0
DWIDTH 4 0
BBX 3 1 1 3
BITMAP
E0
ENDCHAR
STARTCHAR 2013
ENCODING 8211
SWIDTH 583 0
DWIDTH 7 0
BBX 5 1 1 3
BITMAP
F8
ENDCHAR
STARTCHAR 2014
ENCODING 8212
SWIDTH 1000 0
DWIDTH 12 0
BBX 10 1 1 4
BITMAP
FFC0
ENDCHAR
STARTCHAR 2015
ENCODING 8213
SWIDTH 1000 0
DWIDTH 12 0
BBX 10 1 1 4
BITMAP
FFC0
ENDCHAR
STARTCHAR 2016
ENCODING 8214
SWIDTH 1000 0
DWIDTH 12 0
BBX 4 12 4 -1
BITMAP
90
90
90
90
90
90
90
90
90
90
90
90
ENDCHAR
STARTCHAR 2018
ENCODING 8216
SWIDTH 1000 0
DWIDTH 12 0
BBX 1 3 10 7
BITMAP
80
80
80
ENDCHAR
STARTCHAR 2019
ENCODING 8217
SWIDTH 1000 0
DWIDTH 12 0
BBX 1 3 1 7
BITMAP
80
80
80
ENDCHAR
STARTCHAR 201C
ENCODING 8220
SWIDTH 1000 0
DWIDTH 12 0
BBX 4 3 7 7
BITMAP
90
A0
D0
ENDCHAR
STARTCHAR 201D
ENCODING 8221
SWIDTH 1000 0
DWIDTH 12 0
BBX 4 3 1 7
BITMAP
B0
90
A0
ENDCHAR
STARTCHAR 2020
ENCODING 8224
SWIDTH 1000 0
DWIDTH 12 0
BBX 6 10 3 -1
BITMAP
30
30
EC
FC
30
30
20
20
20
20
ENDCHAR
STARTCHAR 2021
ENCODING 8225
SWIDTH 1000 0
DWIDTH 12 0
BBX 6 11 3 -1
BITMAP
30
EC
FC
30
20
20
20
30
FC
20
30
ENDCHAR
STARTCHAR 2022
ENCODING 8226
SWIDTH 333 0
DWIDTH 4 0
BBX 3 3 1 3
BITMAP
C0
E0
C0
ENDCHAR
STARTCHAR 2025
ENCODING 8229
SWIDTH 1000 0
DWIDTH 12 0
BBX 8 1 2 4
BITMAP
C3
ENDCHAR
STARTCHAR 2026
ENCODING 8230
SWIDTH 1000 0
DWIDTH 12 0
BBX 10 1 1 4
BITMAP
CCC0
ENDCHAR
STARTCHAR 2030
ENCODING 8240
SWIDTH 1000 0
DWIDTH 12 0
BBX 10 11 1 -1
BITMAP
0200
C400
A800
A800
D000
1000
2CC0
5340
5340
8CC0
8000
ENDCHAR
STARTCHAR 2032
ENCODING 8242
SWIDTH 250 0
DWIDTH 3 0
BBX 1 3 1 7
BITMAP
80
80
80
ENDCHAR
STARTCHAR 2033
ENCODING 8243
SWIDTH 416 0
DWIDTH 5 0
BBX 3 3 1 7
BITMAP
A0
A0
C0
ENDCHAR
STARTCHAR 203B
ENCODING 8251
SWIDTH 1000 0
DWIDTH 12 0
BBX 10 10 1 -1
BITMAP
0C00
8C40
4080
2100
D280
CCC0
0C00
1200
2D00
4C80
ENDCHAR
STARTCHAR 203C
ENCODING 8252
SWIDTH 500 0
DWIDTH 6 0
BBX 4 9 1 0
BITMAP
90
90
90
90
90
90
90
00
90
ENDCHAR
STARTCHAR 203E
ENCODING 8254
SWIDTH 500 0
DWIDTH 6 0
BBX 4 1 1 7
BITMAP
F0
ENDCHAR
STARTCHAR 203F
ENCODING 8255
SWIDTH 416 0
DWIDTH 5 0
BBX 5 2 0 -2
BITMAP
80
78
ENDCHAR
STARTCHAR 2042
ENCODING 8258
SWIDTH 1000 0
DWIDTH 12 0
BBX 8 9 2 0
BITMAP
10
34
3C
10
00
42
E7
E7
42
ENDCHAR
STARTCHAR 2047
ENCODING 8263
SWIDTH 1000 0
DWIDTH 12 0
BBX 11 9 0 0
BITMAP
39E0
4D20
8620
0820
1860
1040
2080
0000
3080
ENDCHAR
STARTCHAR 2048
ENCODING 8264
SWIDTH 750 0
DWIDTH 9 0
BBX 8 9 0 0
BITMAP
39
4D
85
05
09
11
11
00
31
ENDCHAR
STARTCHAR 2049
ENCODING 8265
SWIDTH 750 0
DWIDTH 9 0
BBX 8 9 1 0
BITMAP
9E
B2
A1
82
84
84
88
00
88
ENDCHAR
STARTCHAR 2051
ENCODING 8273
SWIDTH 1000 0
DWIDTH 12 0
BBX 4 9 4 0
BITMAP
40
E0
D0
40
00
40
D0
F0
40
ENDCHAR
STARTCHAR 205A
ENCODING 8282
SWIDTH 1000 0
DWIDTH 12 0
BBX 2 7 5 1
BITMAP
C0
00
00
00
00
00
C0
ENDCHAR
STARTCHAR 205D
ENCODING 8285
SWIDTH 1000 0
DWIDTH 12 0
BBX 2 9 5 0
BITMAP
C0
00
00
00
C0
00
00
00
C0
ENDCHAR
STARTCHAR 20AC
ENCODING 8364
SWIDTH 666 0
DWIDTH 8 0
BBX 7 9 0 0
BITMAP
1C
20
40
FC
40
FC
40
22
1E
ENDCHAR
STARTCHAR 2103
ENCODING 8451
SWIDTH 1000 0
DWIDTH 12 0
BBX 10 9 1 1
BITMAP
CF00
D180
3080
2000
2000
2000
20C0
1080
0F00
ENDCHAR
STARTCHAR 210F
ENCODING 8463
SWIDTH 583 0
DWIDTH 7 0
BBX 6 9 0 0
BITMAP
20
38
60
5C
64
44
44
48
88
ENDCHAR
STARTCHAR 2113
ENCODING 8467
SWIDTH 1000 0
DWIDTH 12 0
BBX 6 9 3 0
BITMAP
18
28
48
48
48
50
50
64
B8
ENDCHAR
STARTCHAR 2116
ENCODING 8470
SWIDTH 1000 0
DWIDTH 12 0
BBX 10 8 1 1
BITMAP
9000
D000
D300
B480
B480
B480
9480
9340
ENDCHAR
STARTCHAR 2121
ENCODING 8481
SWIDTH 1000 0
DWIDTH 12 0
BBX 10 8 1 1
BITMAP
F000
4000
4D00
5100
5100
4D00
5100
4FC0
ENDCHAR
STARTCHAR 2127
ENCODING 8487
SWIDTH 833 0
DWIDTH 10 0
BBX 8 9 1 0
BITMAP
E7
24
42
43
C1
C1
43
66
3C
ENDCHAR
STARTCHAR 212B
ENCODING 8491
SWIDTH 1000 0
DWIDTH 12 0
BBX 8 10 2 1
BITMAP
18
28
18
18
18
24
24
7E
42
81
ENDCHAR
STARTCHAR 2135
ENCODING 8501
SWIDTH 666 0
DWIDTH 8 0
BBX 7 8 0 1
BITMAP
42
42
64
38
4C
42
62
C2
ENDCHAR
STARTCHAR 2153
ENCODING 8531
SWIDTH 833 0
DWIDTH 10 0
BBX 8 9 1 0
BITMAP
42
C2
44
48
4B
15
23
41
47
ENDCHAR
STARTCHAR 2154
ENCODING 8532
SWIDTH 833 0
DWIDTH 10 0
BBX 8 9 1 0
BITMAP
E2
22
44
88
F3
15
23
41
47
ENDCHAR
STARTCHAR 2155
ENCODING 8533
SWIDTH 833 0
DWIDTH 10 0
BBX 9 9 1 0
BITMAP
4200
C200
4400
4800
0B00
1400
2700
4080
4700
ENDCHAR
STARTCHAR 2160
ENCODING 8544
SWIDTH 1000 0
DWIDTH 12 0
BBX 2 8 5 1
BITMAP
C0
C0
C0
C0
C0
C0
C0
C0
ENDCHAR
STARTCHAR 2161
ENCODING 8545
SWIDTH 1000 0
DWIDTH 12 0
BBX 4 8 4 1
BITMAP
90
90
90
90
90
90
90
90
ENDCHAR
STARTCHAR 2162
ENCODING 8546
SWIDTH 1000 0
DWIDTH 12 0
BBX 8 8 2 1
BITMAP
99
99
99
99
99
99
99
99
ENDCHAR
STARTCHAR 2163
ENCODING 8547
SWIDTH 1000 0
DWIDTH 12 0
BBX 9 8 2 1
BITMAP
A080
A100
9100
9300
9A00
8A00
8C00
8400
ENDCHAR
STARTCHAR 2164
ENCODING 8548
SWIDTH 1000 0
DWIDTH 12 0
BBX 8 8 2 1
BITMAP
C3
42
42
24
24
24
18
18
ENDCHAR
STARTCHAR 2165
ENCODING 8549
SWIDTH 1000 0
DWIDTH 12 0
BBX 9 8 1 1
BITMAP
8280
4280
4480
6480
2C80
2880
1880
1080
ENDCHAR
STARTCHAR 2166
ENCODING 8550
SWIDTH 1000 0
DWIDTH 12 0
BBX 10 8 1 1
BITMAP
8D40
8940
4940
4940
5140
7140
3140
3140
ENDCHAR
STARTCHAR 2167
ENCODING 8551
SWIDTH 1000 0
DWIDTH 12 0
BBX 10 8 1 1
BITMAP
8B40
9B40
9340
5340
5340
5340
6340
2340
ENDCHAR
STARTCHAR 2168
ENCODING 8552
SWIDTH 1000 0
DWIDTH 12 0
BBX 9 8 2 1
BITMAP
9100
9B00
8A00
8400
8E00
8A00
9100
B180
ENDCHAR
STARTCHAR 2169
ENCODING 8553
SWIDTH 1000 0
DWIDTH 12 0
BBX 8 8 2 1
BITMAP
42
24
3C
18
18
24
66
C3
ENDCHAR
STARTCHAR 216A
ENCODING 8554
SWIDTH 1000 0
DWIDTH 12 0
BBX 9 8 1 1
BITMAP
4480
6C80
2880
1080
3880
2880
4480
C680
ENDCHAR
STARTCHAR 216B
ENCODING 8555
SWIDTH 1000 0
DWIDTH 12 0
BBX 10 8 1 1
BITMAP
4B40
5340
3340
2340
3340
5340
4B40
8F40
ENDCHAR
STARTCHAR 2170
ENCODING 8560
SWIDTH 1000 0
DWIDTH 12 0
BBX 2 8 5 1
BITMAP
C0
00
C0
C0
C0
C0
C0
C0
ENDCHAR
STARTCHAR 2171
ENCODING 8561
SWIDTH 1000 0
DWIDTH 12 0
BBX 4 8 4 1
BITMAP
90
00
90
90
90
90
90
90
ENDCHAR
STARTCHAR 2172
ENCODING 8562
SWIDTH 1000 0
DWIDTH 12 0
BBX 6 8 3 1
BITMAP
B4
00
A4
A4
A4
A4
A4
A4
ENDCHAR
STARTCHAR 2173
ENCODING 8563
SWIDTH 1000 0
DWIDTH 12 0
BBX 7 8 3 1
BITMAP
80
00
A2
A2
A4
94
94
88
ENDCHAR
STARTCHAR 2174
ENCODING 8564
SWIDTH 1000 0
DWIDTH 12 0
BBX 6 5 3 1
BITMAP
84
48
48
30
30
ENDCHAR
STARTCHAR 2175
ENCODING 8565
SWIDTH 1000 0
DWIDTH 12 0
BBX 7 8 2 1
BITMAP
02
00
8A
8A
4A
52
52
22
ENDCHAR
STARTCHAR 2176
ENCODING 8566
SWIDTH 1000 0
DWIDTH 12 0
BBX 8 8 2 1
BITMAP
05
00
00
95
95
A5
65
65
ENDCHAR
STARTCHAR 2177
ENCODING 8567
SWIDTH 1000 0
DWIDTH 12 0
BBX 10 8 1 1
BITMAP
0340
0000
0000
8B40
5340
5340
5340
2340
ENDCHAR
STARTCHAR 2178
ENCODING 8568
SWIDTH 1000 0
DWIDTH 12 0
BBX 8 8 2 1
BITMAP
80
00
00
93
8A
84
8A
91
ENDCHAR
STARTCHAR 2179
ENCODING 8569
SWIDTH 1000 0
DWIDTH 12 0
BBX 6 5 3 1
BITMAP
CC
78
30
48
84
ENDCHAR
STARTCHAR 217A
ENCODING 8570
SWIDTH 1000 0
DWIDTH 12 0
BBX 8 8 2 1
BITMAP
01
00
00
C9
51
21
51
89
ENDCHAR
STARTCHAR 217B
ENCODING 8571
SWIDTH 1000 0
DWIDTH 12 0
BBX 8 8 2 1
BITMAP
05
05
00
95
65
65
A5
95
ENDCHAR
STARTCHAR 2190
ENCODING 8592
SWIDTH 1000 0
DWIDTH 12 0
BBX 10 5 1 2
BITMAP
2000
4000
FFC0
4000
2000
ENDCHAR
STARTCHAR 2191
ENCODING 8593
SWIDTH 1000 0
DWIDTH 12 0
BBX 4 9 4 0
BITMAP
60
D0
40
40
40
40
40
40
40
ENDCHAR
STARTCHAR 2192
ENCODING 8594
SWIDTH 1000 0
DWIDTH 12 0
BBX 10 5 1 2
BITMAP
0100
0080
FFC0
0080
0100
ENDCHAR
STARTCHAR 2193
ENCODING 8595
SWIDTH 1000 0
DWIDTH 12 0
BBX 4 9 4 0
BITMAP
40
40
40
40
40
40
D0
D0
60
ENDCHAR
STARTCHAR 2194
ENCODING 8596
SWIDTH 750 0
DWIDTH 9 0
BBX 7 5 1 1
BITMAP
48
84
FE
84
44
ENDCHAR
STARTCHAR 2196
ENCODING 8598
SWIDTH 1000 0
DWIDTH 12 0
BBX 8 9 2 0
BITMAP
80
F0
E0
B0
18
0C
06
03
01
ENDCHAR
STARTCHAR 2197
ENCODING 8599
SWIDTH 1000 0
DWIDTH 12 0
BBX 8 9 2 0
BITMAP
01
0F
07
0D
18
30
60
C0
80
ENDCHAR
STARTCHAR 2198
ENCODING 8600
SWIDTH 1000 0
DWIDTH 12 0
BBX 8 9 2 0
BITMAP
80
C0
60
30
18
0D
07
0B
05
ENDCHAR
STARTCHAR 2199
ENCODING 8601
SWIDTH 1000 0
DWIDTH 12 0
BBX 8 9 2 0
BITMAP
01
03
06
0C
18
B0
E0
D0
A0
ENDCHAR
STARTCHAR 21C4
ENCODING 8644
SWIDTH 1000 0
DWIDTH 12 0
BBX 10 9 1 0
BITMAP
0100
0080
FFC0
0180
0000
6000
FFC0
4000
2000
ENDCHAR
STARTCHAR 21D2
ENCODING 8658
SWIDTH 750 0
DWIDTH 9 0
BBX 7 4 1 3
BITMAP
04
FE
FE
04
ENDCHAR
STARTCHAR 21D4
ENCODING 8660
SWIDTH 750 0
DWIDTH 9 0
BBX 7 4 1 2
BITMAP
44
FE
FE
44
ENDCHAR
STARTCHAR 21E6
ENCODING 8678
SWIDTH 1000 0
DWIDTH 12 0
BBX 10 4 1 2
BITMAP
2000
DFC0
9FC0
6000
ENDCHAR
STARTCHAR 21E7
ENCODING 8679
SWIDTH 1000 0
DWIDTH 12 0
BBX 4 9 4 0
BITMAP
60
A0
90
60
60
60
60
60
60
ENDCHAR
STARTCHAR 21E8
ENCODING 8680
SWIDTH 1000 0
DWIDTH 12 0
BBX 10 4 1 2
BITMAP
0100
FE80
FEC0
0100
ENDCHAR
STARTCHAR 21E9
ENCODING 8681
SWIDTH 1000 0
DWIDTH 12 0
BBX 4 9 4 -1
BITMAP
60
60
60
60
60
60
90
A0
60
ENDCHAR
STARTCHAR 2200
ENCODING 8704
SWIDTH 750 0
DWIDTH 9 0
BBX 9 9 0 0
BITMAP
8080
4100
4100
3E00
2200
2400
1400
1800
0800
ENDCHAR
STARTCHAR 2202
ENCODING 8706
SWIDTH 583 0
DWIDTH 7 0
BBX 5 9 1 0
BITMAP
70
08
08
78
88
88
88
90
60
ENDCHAR
STARTCHAR 2203
ENCODING 8707
SWIDTH 750 0
DWIDTH 9 0
BBX 6 9 1 0
BITMAP
FC
04
04
04
FC
04
04
04
FC
ENDCHAR
STARTCHAR 2205
ENCODING 8709
SWIDTH 750 0
DWIDTH 9 0
BBX 8 8 1 0
BITMAP
3C
42
86
89
91
A2
46
BC
ENDCHAR
STARTCHAR 2207
ENCODING 8711
SWIDTH 750 0
DWIDTH 9 0
BBX 7 9 1 0
BITMAP
FE
82
C4
44
44
28
28
10
10
ENDCHAR
STARTCHAR 2208
ENCODING 8712
SWIDTH 666 0
DWIDTH 8 0
BBX 6 6 1 1
BITMAP
7C
80
80
FC
80
7C
ENDCHAR
STARTCHAR 2209
ENCODING 8713
SWIDTH 666 0
DWIDTH 8 0
BBX 6 8 1 0
BITMAP
08
7C
90
90
FC
A0
7C
40
ENDCHAR
STARTCHAR 220B
ENCODING 8715
SWIDTH 666 0
DWIDTH 8 0
BBX 6 6 1 1
BITMAP
F8
04
04
FC
04
F8
ENDCHAR
STARTCHAR 2212
ENCODING 8722
SWIDTH 666 0
DWIDTH 8 0
BBX 6 1 1 3
BITMAP
FC
ENDCHAR
STARTCHAR 2213
ENCODING 8723
SWIDTH 666 0
DWIDTH 8 0
BBX 6 6 1 0
BITMAP
FC
00
20
FC
20
20
ENDCHAR
STARTCHAR 2219
ENCODING 8729
SWIDTH 250 0
DWIDTH 3 0
BBX 1 1 1 3
BITMAP
80
ENDCHAR
STARTCHAR 221A
ENCODING 8730
SWIDTH 583 0
DWIDTH 7 0
BBX 7 11 1 -1
BITMAP
02
04
04
04
08
08
88
D0
D0
A0
20
ENDCHAR
STARTCHAR 221D
ENCODING 8733
SWIDTH 666 0
DWIDTH 8 0
BBX 6 4 1 2
BITMAP
6C
90
90
6C
ENDCHAR
STARTCHAR 221E
ENCODING 8734
SWIDTH 666 0
DWIDTH 8 0
BBX 7 4 1 2
BITMAP
CC
B2
B2
CC
ENDCHAR
STARTCHAR 221F
ENCODING 8735
SWIDTH 666 0
DWIDTH 8 0
BBX 6 8 1 1
BITMAP
80
80
80
80
80
80
80
FC
ENDCHAR
STARTCHAR 2220
ENCODING 8736
SWIDTH 666 0
DWIDTH 8 0
BBX 7 8 1 1
BITMAP
10
10
20
40
40
80
80
FE
ENDCHAR
STARTCHAR 2225
ENCODING 8741
SWIDTH 666 0
DWIDTH 8 0
BBX 6 11 1 -1
BITMAP
10
14
24
28
28
48
50
50
90
A0
A0
ENDCHAR
STARTCHAR 2226
ENCODING 8742
SWIDTH 666 0
DWIDTH 8 0
BBX 6 11 1 -1
BITMAP
10
14
24
A8
68
38
58
54
90
A0
A0
ENDCHAR
STARTCHAR 2227
ENCODING 8743
SWIDTH 666 0
DWIDTH 8 0
BBX 6 6 1 0
BITMAP
10
30
48
48
84
84
ENDCHAR
STARTCHAR 2228
ENCODING 8744
SWIDTH 666 0
DWIDTH 8 0
BBX 6 6 1 1
BITMAP
84
84
48
48
30
30
ENDCHAR
STARTCHAR 2229
ENCODING 8745
SWIDTH 666 0
DWIDTH 8 0
BBX 6 8 1 0
BITMAP
78
48
84
84
84
84
84
84
ENDCHAR
STARTCHAR 222A
ENCODING 8746
SWIDTH 666 0
DWIDTH 8 0
BBX 6 7 1 0
BITMAP
84
84
84
84
84
44
78
ENDCHAR
STARTCHAR 222B
ENCODING 8747
SWIDTH 583 0
DWIDTH 7 0
BBX 6 11 0 -2
BITMAP
0C
14
10
10
10
10
10
10
10
A0
60
ENDCHAR
STARTCHAR 222C
ENCODING 8748
SWIDTH 916 0
DWIDTH 11 0
BBX 10 11 0 -2
BITMAP
0CC0
1500
1100
1100
1100
1100
1100
1100
1100
AA00
6600
ENDCHAR
STARTCHAR 222E
ENCODING 8750
SWIDTH 583 0
DWIDTH 7 0
BBX 6 11 0 -2
BITMAP
0C
14
10
10
78
58
58
30
10
A0
60
ENDCHAR
STARTCHAR 2234
ENCODING 8756
SWIDTH 666 0
DWIDTH 8 0
BBX 6 6 1 1
BITMAP
30
30
00
00
84
84
ENDCHAR
STARTCHAR 2235
ENCODING 8757
SWIDTH 666 0
DWIDTH 8 0
BBX 6 6 1 1
BITMAP
84
84
00
00
30
30
ENDCHAR
STARTCHAR 223C
ENCODING 8764
SWIDTH 500 0
DWIDTH 6 0
BBX 4 1 1 8
BITMAP
F0
ENDCHAR
STARTCHAR 223D
ENCODING 8765
SWIDTH 666 0
DWIDTH 8 0
BBX 7 4 1 2
BITMAP
CC
92
A2
EC
ENDCHAR
STARTCHAR 2243
ENCODING 8771
SWIDTH 666 0
DWIDTH 8 0
BBX 6 4 1 2
BITMAP
E0
1C
00
FC
ENDCHAR
STARTCHAR 2245
ENCODING 8773
SWIDTH 666 0
DWIDTH 8 0
BBX 6 5 1 1
BITMAP
FC
00
FC
00
FC
ENDCHAR
STARTCHAR 2248
ENCODING 8776
SWIDTH 666 0
DWIDTH 8 0
BBX 6 4 1 2
BITMAP
E0
9C
00
FC
ENDCHAR
STARTCHAR 2252
ENCODING 8786
SWIDTH 666 0
DWIDTH 8 0
BBX 6 8 1 0
BITMAP
C0
C0
00
FC
00
FC
0C
0C
ENDCHAR
STARTCHAR 2260
ENCODING 8800
SWIDTH 666 0
DWIDTH 8 0
BBX 6 6 1 0
BITMAP
10
10
FC
20
FC
20
ENDCHAR
STARTCHAR 2261
ENCODING 8801
SWIDTH 666 0
DWIDTH 8 0
BBX 6 4 1 2
BITMAP
FC
00
FC
FC
ENDCHAR
STARTCHAR 2262
ENCODING 8802
SWIDTH 666 0
DWIDTH 8 0
BBX 6 6 1 0
BITMAP
10
FC
10
FC
FC
20
ENDCHAR
STARTCHAR 2266
ENCODING 8806
SWIDTH 666 0
DWIDTH 8 0
BBX 6 8 1 0
BITMAP
0C
70
C0
38
04
FC
00
FC
ENDCHAR
STARTCHAR 2267
ENCODING 8807
SWIDTH 666 0
DWIDTH 8 0
BBX 6 8 1 0
BITMAP
C0
38
0C
70
80
FC
00
FC
ENDCHAR
STARTCHAR 226A
ENCODING 8810
SWIDTH 666 0
DWIDTH 8 0
BBX 6 6 1 1
BITMAP
14
28
D0
A0
58
34
ENDCHAR
STARTCHAR 226B
ENCODING 8811
SWIDTH 666 0
DWIDTH 8 0
BBX 6 6 1 1
BITMAP
A0
58
24
14
28
D0
ENDCHAR
STARTCHAR 2276
ENCODING 8822
SWIDTH 666 0
DWIDTH 8 0
BBX 7 8 1 0
BITMAP
0E
70
C0
3C
E0
1C
18
E0
ENDCHAR
STARTCHAR 2277
ENCODING 8823
SWIDTH 666 0
DWIDTH 8 0
BBX 6 8 1 0
BITMAP
C0
38
0C
F0
1C
E0
70
0C
ENDCHAR
STARTCHAR 2282
ENCODING 8834
SWIDTH 666 0
DWIDTH 8 0
BBX 6 6 1 1
BITMAP
7C
80
80
80
80
7C
ENDCHAR
STARTCHAR 2283
ENCODING 8835
SWIDTH 666 0
DWIDTH 8 0
BBX 6 6 1 1
BITMAP
F8
04
04
04
04
F8
ENDCHAR
STARTCHAR 2284
ENCODING 8836
SWIDTH 666 0
DWIDTH 8 0
BBX 6 8 1 0
BITMAP
08
7C
88
90
90
A0
7C
20
ENDCHAR
STARTCHAR 2285
ENCODING 8837
SWIDTH 666 0
DWIDTH 8 0
BBX 6 7 1 1
BITMAP
F8
14
24
24
44
F8
40
ENDCHAR
STARTCHAR 2286
ENCODING 8838
SWIDTH 666 0
DWIDTH 8 0
BBX 6 7 1 1
BITMAP
7C
80
80
80
80
7C
FC
ENDCHAR
STARTCHAR 2287
ENCODING 8839
SWIDTH 666 0
DWIDTH 8 0
BBX 6 7 1 1
BITMAP
F8
04
04
04
04
F8
FC
ENDCHAR
STARTCHAR 228A
ENCODING 8842
SWIDTH 666 0
DWIDTH 8 0
BBX 6 8 1 0
BITMAP
7C
80
80
80
7C
10
FC
20
ENDCHAR
STARTCHAR 228B
ENCODING 8843
SWIDTH 666 0
DWIDTH 8 0
BBX 6 8 1 0
BITMAP
F8
04
04
04
FC
10
FC
20
ENDCHAR
STARTCHAR 2295
ENCODING 8853
SWIDTH 833 0
DWIDTH 10 0
BBX 9 9 1 0
BITMAP
3C00
4200
9100
9100
FE80
9100
9100
4200
3C00
ENDCHAR
STARTCHAR 2296
ENCODING 8854
SWIDTH 833 0
DWIDTH 10 0
BBX 9 9 1 0
BITMAP
3C00
4200
8100
8100
FE80
8100
8100
4200
3C00
ENDCHAR
STARTCHAR 2297
ENCODING 8855
SWIDTH 833 0
DWIDTH 10 0
BBX 9 9 1 0
BITMAP
3C00
4200
A500
9500
8880
9500
A300
4200
3C00
ENDCHAR
STARTCHAR 22A5
ENCODING 8869
SWIDTH 666 0
DWIDTH 8 0
BBX 7 7 1 2
BITMAP
20
20
20
20
20
20
FE
ENDCHAR
STARTCHAR 22BF
ENCODING 8895
SWIDTH 666 0
DWIDTH 8 0
BBX 7 8 1 1
BITMAP
02
06
0A
12
22
42
82
FE
ENDCHAR
STARTCHAR 22DA
ENCODING 8922
SWIDTH 666 0
DWIDTH 8 0
BBX 6 9 1 0
BITMAP
04
F8
70
0C
FC
00
F0
0C
F0
ENDCHAR
STARTCHAR 22DB
ENCODING 8923
SWIDTH 666 0
DWIDTH 8 0
BBX 6 9 1 0
BITMAP
80
7C
38
C0
FC
00
3C
C0
3C
ENDCHAR
STARTCHAR 2305
ENCODING 8965
SWIDTH 666 0
DWIDTH 8 0
BBX 6 5 1 0
BITMAP
FC
30
30
48
48
ENDCHAR
STARTCHAR 2306
ENCODING 8966
SWIDTH 666 0
DWIDTH 8 0
BBX 6 7 1 0
BITMAP
FC
FC
30
30
48
48
40
ENDCHAR
STARTCHAR 2312
ENCODING 8978
SWIDTH 1000 0
DWIDTH 12 0
BBX 10 2 1 7
BITMAP
3F00
C0C0
ENDCHAR
STARTCHAR 2318
ENCODING 8984
SWIDTH 1000 0
DWIDTH 12 0
BBX 10 11 1 -1
BITMAP
E1C0
A140
A140
FFC0
2100
2100
2100
FFC0
A140
A140
E1C0
ENDCHAR
STARTCHAR 23BE
ENCODING 9150
SWIDTH 1000 0
DWIDTH 12 0
BBX 6 12 6 -2
BITMAP
FC
80
80
80
80
80
80
80
80
80
80
80
ENDCHAR
STARTCHAR 23BF
ENCODING 9151
SWIDTH 1000 0
DWIDTH 12 0
BBX 6 12 6 0
BITMAP
80
80
80
80
80
80
80
80
80
80
80
FC
ENDCHAR
STARTCHAR 23C0
ENCODING 9152
SWIDTH 1000 0
DWIDTH 12 0
BBX 10 10 1 0
BITMAP
0800
1E00
6900
8880
8880
8840
8880
8880
4900
3E00
ENDCHAR
STARTCHAR 23C1
ENCODING 9153
SWIDTH 1000 0
DWIDTH 12 0
BBX 12 12 0 -2
BITMAP
FFF0
0400
0F00
3480
4440
4440
4420
4440
4440
2480
1D00
0600
ENDCHAR
STARTCHAR 23C2
ENCODING 9154
SWIDTH 1000 0
DWIDTH 12 0
BBX 12 12 0 0
BITMAP
0400
0F00
3480
4440
4440
4420
4440
4440
2480
1D00
0600
FFF0
ENDCHAR
STARTCHAR 23C3
ENCODING 9155
SWIDTH 1000 0
DWIDTH 12 0
BBX 10 11 1 -1
BITMAP
0800
0800
0C00
1A00
2A00
2900
4900
4880
8880
FFC0
0800
ENDCHAR
STARTCHAR 23C4
ENCODING 9156
SWIDTH 1000 0
DWIDTH 12 0
BBX 12 12 0 -2
BITMAP
FFF0
0400
0400
0600
0D00
1500
1480
2480
2440
4440
7FE0
0400
ENDCHAR
STARTCHAR 23C5
ENCODING 9157
SWIDTH 1000 0
DWIDTH 12 0
BBX 12 11 0 0
BITMAP
0400
0400
0600
0D00
1500
1480
2480
2440
4440
7FE0
FFF0
ENDCHAR
STARTCHAR 23C6
ENCODING 9158
SWIDTH 1000 0
DWIDTH 12 0
BBX 10 10 1 0
BITMAP
0800
0800
0800
0800
F800
0400
0BC0
0800
0800
0800
ENDCHAR
STARTCHAR 23C7
ENCODING 9159
SWIDTH 1000 0
DWIDTH 12 0
BBX 12 12 0 -2
BITMAP
FFF0
0400
0400
0400
0400
7C00
0600
05E0
0400
0400
0400
0400
ENDCHAR
STARTCHAR 23C8
ENCODING 9160
SWIDTH 1000 0
DWIDTH 12 0
BBX 12 12 0 0
BITMAP
0400
0400
0400
0400
7C00
0600
05E0
0400
0400
0400
0400
FFF0
ENDCHAR
STARTCHAR 23C9
ENCODING 9161
SWIDTH 1000 0
DWIDTH 12 0
BBX 12 12 0 -2
BITMAP
FFF0
0400
0400
0400
0400
0400
0400
0400
0400
0400
0400
0400
ENDCHAR
STARTCHAR 23CA
ENCODING 9162
SWIDTH 1000 0
DWIDTH 12 0
BBX 12 12 0 0
BITMAP
0400
0400
0400
0400
0400
0400
0400
0400
0400
0400
0400
FFF0
ENDCHAR
STARTCHAR 23CB
ENCODING 9163
SWIDTH 1000 0
DWIDTH 12 0
BBX 6 12 0 -2
BITMAP
FC
04
04
04
04
04
04
04
04
04
04
04
ENDCHAR
STARTCHAR 23CC
ENCODING 9164
SWIDTH 1000 0
DWIDTH 12 0
BBX 6 12 0 0
BITMAP
04
04
04
04
04
04
04
04
04
04
04
FC
ENDCHAR
STARTCHAR 23CE
ENCODING 9166
SWIDTH 1000 0
DWIDTH 12 0
BBX 10 10 1 -1
BITMAP
03C0
0240
0240
1240
7E40
8040
8080
5F80
3000
1000
ENDCHAR
STARTCHAR 2423
ENCODING 9251
SWIDTH 1000 0
DWIDTH 12 0
BBX 10 3 1 0
BITMAP
8040
8040
FFC0
ENDCHAR
STARTCHAR 2460
ENCODING 9312
SWIDTH 1000 0
DWIDTH 12 0
BBX 12 11 0 -1
BITMAP
1F00
30C0
4E20
8220
8210
8210
8210
8220
4220
30C0
0F00
ENDCHAR
STARTCHAR 2461
ENCODING 9313
SWIDTH 1000 0
DWIDTH 12 0
BBX 12 11 0 -1
BITMAP
1F00
37C0
4920
88A0
8110
8210
8410
8820
5FA0
30C0
0F00
ENDCHAR
STARTCHAR 2462
ENCODING 9314
SWIDTH 1000 0
DWIDTH 12 0
BBX 12 11 0 -1
BITMAP
1F00
37C0
4920
9120
8110
8710
8090
90A0
4F20
30C0
0F00
ENDCHAR
STARTCHAR 2463
ENCODING 9315
SWIDTH 1000 0
DWIDTH 12 0
BBX 12 12 0 -1
BITMAP
0F00
30C0
4220
4620
8620
8A10
9210
9FA0
4220
4220
30C0
0F00
ENDCHAR
STARTCHAR 2464
ENCODING 9316
SWIDTH 1000 0
DWIDTH 12 0
BBX 12 11 0 -1
BITMAP
0F00
30C0
4F20
8820
8810
8F10
8190
80A0
4920
37C0
0F00
ENDCHAR
STARTCHAR 2465
ENCODING 9317
SWIDTH 1000 0
DWIDTH 12 0
BBX 12 11 0 -1
BITMAP
1F00
37C0
4920
8820
9710
9910
9090
8920
4720
30C0
0F00
ENDCHAR
STARTCHAR 2466
ENCODING 9318
SWIDTH 1000 0
DWIDTH 12 0
BBX 12 11 0 -1
BITMAP
1F00
30C0
4FA0
8120
8110
8210
8210
8420
4420
30C0
0F00
ENDCHAR
STARTCHAR 2467
ENCODING 9319
SWIDTH 1000 0
DWIDTH 12 0
BBX 12 11 0 -1
BITMAP
1F00
3FC0
4920
90A0
8910
8F10
9090
90A0
4F20
30C0
0F00
ENDCHAR
STARTCHAR 2468
ENCODING 9320
SWIDTH 1000 0
DWIDTH 12 0
BBX 12 11 0 -1
BITMAP
1F00
36C0
4920
88A0
8890
8990
8690
8920
4F20
30C0
0F00
ENDCHAR
STARTCHAR 2469
ENCODING 9321
SWIDTH 1000 0
DWIDTH 12 0
BBX 12 11 0 -1
BITMAP
1F00
30C0
73A0
96A0
9450
9450
9450
92A0
53A0
30C0
0F00
ENDCHAR
STARTCHAR 246A
ENCODING 9322
SWIDTH 1000 0
DWIDTH 12 0
BBX 12 11 0 -1
BITMAP
1F00
30C0
59A0
88A0
8890
8890
8890
88A0
48A0
30C0
0F00
ENDCHAR
STARTCHAR 246B
ENCODING 9323
SWIDTH 1000 0
DWIDTH 12 0
BBX 12 12 0 -1
BITMAP
0F00
10C0
73A0
72A0
94A0
9090
9110
9220
5220
57A0
30C0
0F00
ENDCHAR
STARTCHAR 246C
ENCODING 9324
SWIDTH 1000 0
DWIDTH 12 0
BBX 12 11 0 -1
BITMAP
1F00
30C0
73A0
94A0
9090
9390
9090
94A0
53A0
30C0
0F00
ENDCHAR
STARTCHAR 246D
ENCODING 9325
SWIDTH 1000 0
DWIDTH 12 0
BBX 12 12 0 -1
BITMAP
0F00
10C0
70A0
71A0
92A0
9290
9490
97E0
50A0
50A0
30C0
0F00
ENDCHAR
STARTCHAR 246E
ENCODING 9326
SWIDTH 1000 0
DWIDTH 12 0
BBX 12 12 0 -2
BITMAP
0F00
30C0
53A0
7420
9420
9790
9090
9060
54A0
53A0
30C0
0F00
ENDCHAR
STARTCHAR 246F
ENCODING 9327
SWIDTH 1000 0
DWIDTH 12 0
BBX 12 11 0 -1
BITMAP
1F00
30C0
73A0
92A0
9590
9690
9490
94A0
53A0
30C0
0F00
ENDCHAR
STARTCHAR 2470
ENCODING 9328
SWIDTH 1000 0
DWIDTH 12 0
BBX 12 12 0 -2
BITMAP
0F00
30C0
57A0
70A0
90A0
9110
9110
9120
5220
5220
30C0
0F00
ENDCHAR
STARTCHAR 2471
ENCODING 9329
SWIDTH 1000 0
DWIDTH 12 0
BBX 12 11 0 -1
BITMAP
1F00
30C0
73A0
94A0
9490
9390
9450
94A0
53A0
30C0
0F00
ENDCHAR
STARTCHAR 2472
ENCODING 9330
SWIDTH 1000 0
DWIDTH 12 0
BBX 12 11 0 -1
BITMAP
1F00
30C0
73A0
94A0
9490
9390
9090
94A0
5320
30C0
0F00
ENDCHAR
STARTCHAR 2473
ENCODING 9331
SWIDTH 1000 0
DWIDTH 12 0
BBX 12 11 0 -1
BITMAP
1F00
3DC0
5560
8660
8650
8A50
9250
9160
5DA0
30C0
0F00
ENDCHAR
STARTCHAR 24D0
ENCODING 9424
SWIDTH 1000 0
DWIDTH 12 0
BBX 12 11 0 -1
BITMAP
1F00
30C0
4020
8F20
8910
8F10
8910
8FA0
4020
30C0
0F00
ENDCHAR
STARTCHAR 24D1
ENCODING 9425
SWIDTH 1000 0
DWIDTH 12 0
BBX 12 11 0 -1
BITMAP
1F00
30C0
4820
8820
8F10
8890
8890
88A0
4F20
30C0
0F00
ENDCHAR
STARTCHAR 24D2
ENCODING 9426
SWIDTH 1000 0
DWIDTH 12 0
BBX 12 11 0 -1
BITMAP
1F00
30C0
4020
8720
8910
8810
8910
8720
4020
30C0
0F00
ENDCHAR
STARTCHAR 24D3
ENCODING 9427
SWIDTH 1000 0
DWIDTH 12 0
BBX 12 11 0 -1
BITMAP
1F00
30C0
4120
8120
8F10
9110
9110
9120
4F20
30C0
0F00
ENDCHAR
STARTCHAR 24D4
ENCODING 9428
SWIDTH 1000 0
DWIDTH 12 0
BBX 12 12 0 -2
BITMAP
1F00
30C0
4020
4620
8920
8F10
8810
8720
4020
4020
30C0
0F00
ENDCHAR
STARTCHAR 24D5
ENCODING 9429
SWIDTH 1000 0
DWIDTH 12 0
BBX 12 11 0 -1
BITMAP
1F00
30C0
4720
8420
8F10
8410
8410
8420
4420
30C0
0F00
ENDCHAR
STARTCHAR 24D6
ENCODING 9430
SWIDTH 1000 0
DWIDTH 12 0
BBX 12 11 0 -1
BITMAP
1F00
30C0
4620
8920
8910
8910
8710
8920
4620
30C0
0F00
ENDCHAR
STARTCHAR 24D7
ENCODING 9431
SWIDTH 1000 0
DWIDTH 12 0
BBX 12 11 0 -1
BITMAP
1F00
30C0
4820
8820
8F10
8910
8910
8920
4820
30C0
0F00
ENDCHAR
STARTCHAR 24D8
ENCODING 9432
SWIDTH 1000 0
DWIDTH 12 0
BBX 12 11 0 -1
BITMAP
1F00
30C0
4620
8020
8010
8410
8410
8420
4020
30C0
0F00
ENDCHAR
STARTCHAR 24D9
ENCODING 9433
SWIDTH 1000 0
DWIDTH 12 0
BBX 12 11 0 -1
BITMAP
1F00
32C0
4020
8220
8210
8210
8210
8220
4E20
30C0
0F00
ENDCHAR
STARTCHAR 24DA
ENCODING 9434
SWIDTH 1000 0
DWIDTH 12 0
BBX 12 11 0 -1
BITMAP
1F00
30C0
4820
8820
8910
8A10
8E10
8920
48A0
30C0
0F00
ENDCHAR
STARTCHAR 24DB
ENCODING 9435
SWIDTH 1000 0
DWIDTH 12 0
BBX 12 11 0 -1
BITMAP
1F00
30C0
4420
8420
8410
8410
8410
8420
4020
30C0
0F00
ENDCHAR
STARTCHAR 24DC
ENCODING 9436
SWIDTH 1000 0
DWIDTH 12 0
BBX 12 11 0 -1
BITMAP
1F00
30C0
4020
9DA0
9290
9490
9490
90A0
4020
30C0
0F00
ENDCHAR
STARTCHAR 24DD
ENCODING 9437
SWIDTH 1000 0
DWIDTH 12 0
BBX 12 11 0 -1
BITMAP
1F00
30C0
4020
8F20
8910
8910
8910
8920
4020
30C0
0F00
ENDCHAR
STARTCHAR 24DE
ENCODING 9438
SWIDTH 1000 0
DWIDTH 12 0
BBX 12 11 0 -1
BITMAP
1F00
30C0
4020
8620
8910
8910
8910
8720
4020
30C0
0F00
ENDCHAR
STARTCHAR 24DF
ENCODING 9439
SWIDTH 1000 0
DWIDTH 12 0
BBX 12 11 0 -1
BITMAP
1F00
30C0
4020
8F20
8890
8890
8F10
8820
4820
30C0
0F00
ENDCHAR
STARTCHAR 24E0
ENCODING 9440
SWIDTH 1000 0
DWIDTH 12 0
BBX 12 11 0 -1
BITMAP
1F00
30C0
4020
8F20
9110
9110
8F10
8120
4120
30C0
0F00
ENDCHAR
STARTCHAR 24E1
ENCODING 9441
SWIDTH 1000 0
DWIDTH 12 0
BBX 12 11 0 -1
BITMAP
1F00
30C0
4020
8520
8610
8410
8410
8420
4020
30C0
0F00
ENDCHAR
STARTCHAR 24E2
ENCODING 9442
SWIDTH 1000 0
DWIDTH 12 0
BBX 12 11 0 -1
BITMAP
1F00
30C0
4020
8E20
8810
8610
8910
8F20
4020
30C0
0F00
ENDCHAR
STARTCHAR 24E3
ENCODING 9443
SWIDTH 1000 0
DWIDTH 12 0
BBX 12 12 0 -2
BITMAP
0F00
30C0
4020
4420
8E20
8410
8410
8420
4720
4020
30C0
0F00
ENDCHAR
STARTCHAR 24E4
ENCODING 9444
SWIDTH 1000 0
DWIDTH 12 0
BBX 12 11 0 -1
BITMAP
1F00
30C0
4020
8920
8910
8910
8910
8F20
4020
30C0
0F00
ENDCHAR
STARTCHAR 24E5
ENCODING 9445
SWIDTH 1000 0
DWIDTH 12 0
BBX 12 11 0 -1
BITMAP
1F00
30C0
4020
90A0
8910
8910
8610
8620
4020
30C0
0F00
ENDCHAR
STARTCHAR 24E6
ENCODING 9446
SWIDTH 1000 0
DWIDTH 12 0
BBX 12 11 0 -1
BITMAP
1F00
30C0
4020
A460
9690
9690
9A90
8920
4020
30C0
0F00
ENDCHAR
STARTCHAR 24E7
ENCODING 9447
SWIDTH 1000 0
DWIDTH 12 0
BBX 12 11 0 -1
BITMAP
1F00
30C0
4020
8920
8610
8610
8F10
8920
4020
30C0
0F00
ENDCHAR
STARTCHAR 24E8
ENCODING 9448
SWIDTH 1000 0
DWIDTH 12 0
BBX 12 11 0 -1
BITMAP
1F00
30C0
4020
8920
8910
8510
8610
8220
4C20
30C0
0F00
ENDCHAR
STARTCHAR 24E9
ENCODING 9449
SWIDTH 1000 0
DWIDTH 12 0
BBX 12 11 0 -1
BITMAP
1F00
30C0
4020
8F20
8210
8410
8810
8F20
4020
30C0
0F00
ENDCHAR
STARTCHAR 24EB
ENCODING 9451
SWIDTH 1000 0
DWIDTH 12 0
BBX 12 11 0 -1
BITMAP
1F00
3FC0
6E60
6F60
EF70
EF70
EF70
6F60
6F60
3FC0
0F00
ENDCHAR
STARTCHAR 24EC
ENCODING 9452
SWIDTH 1000 0
DWIDTH 12 0
BBX 12 12 0 -1
BITMAP
0F00
1FC0
2C60
4D60
6BE0
EF70
EEF0
EDE0
6DE0
6860
3FC0
0F00
ENDCHAR
STARTCHAR 24ED
ENCODING 9453
SWIDTH 1000 0
DWIDTH 12 0
BBX 12 11 0 -1
BITMAP
1F00
3FC0
4D60
6B60
EF70
EE70
EFB0
6B20
6C60
3FC0
0F00
ENDCHAR
STARTCHAR 24EE
ENCODING 9454
SWIDTH 1000 0
DWIDTH 12 0
BBX 12 12 0 -1
BITMAP
0F00
1FC0
2F60
4E60
6C60
ED70
EB70
E820
6F60
6F60
3FC0
0F00
ENDCHAR
STARTCHAR 24EF
ENCODING 9455
SWIDTH 1000 0
DWIDTH 12 0
BBX 12 12 0 -2
BITMAP
0F00
3FC0
6C60
4FE0
EFE0
ED70
EFB0
6FA0
6B60
6C60
3FC0
0F00
ENDCHAR
STARTCHAR 24F0
ENCODING 9456
SWIDTH 1000 0
DWIDTH 12 0
BBX 12 11 0 -1
BITMAP
1F00
3FC0
4D60
6FA0
EA70
E970
EBB0
6D60
6C60
3FC0
0F00
ENDCHAR
STARTCHAR 24F1
ENCODING 9457
SWIDTH 1000 0
DWIDTH 12 0
BBX 12 12 0 -2
BITMAP
0F00
3FC0
6860
4F60
EF60
EEF0
EEF0
6EE0
6CE0
6DE0
3FC0
0F00
ENDCHAR
STARTCHAR 24F2
ENCODING 9458
SWIDTH 1000 0
DWIDTH 12 0
BBX 12 11 0 -1
BITMAP
1F00
3FC0
4C60
6B60
EF70
EC70
EBB0
6BA0
6C60
3FC0
0F00
ENDCHAR
STARTCHAR 24F3
ENCODING 9459
SWIDTH 1000 0
DWIDTH 12 0
BBX 12 11 0 -1
BITMAP
1F00
3FC0
4D60
6BE0
EBB0
ED30
EFB0
6B60
6C60
3FC0
0F00
ENDCHAR
STARTCHAR 24F4
ENCODING 9460
SWIDTH 1000 0
DWIDTH 12 0
BBX 12 11 0 -1
BITMAP
1F00
26C0
5AA0
5BA0
F7B0
F7B0
EFB0
7EA0
4260
3FC0
0F00
ENDCHAR
STARTCHAR 24F5
ENCODING 9461
SWIDTH 1000 0
DWIDTH 12 0
BBX 12 11 0 -1
BITMAP
0F00
3FC0
52A0
AE60
C230
C230
C230
A260
52A0
2FC0
1F00
ENDCHAR
STARTCHAR 24F6
ENCODING 9462
SWIDTH 1000 0
DWIDTH 12 0
BBX 12 12 0 -1
BITMAP
0F00
3FC0
57A0
6960
C960
C330
C430
C850
AF60
50A0
3FC0
0F00
ENDCHAR
STARTCHAR 24F7
ENCODING 9463
SWIDTH 1000 0
DWIDTH 12 0
BBX 12 11 0 -1
BITMAP
0F00
3FC0
57A0
A960
C130
C630
C130
A960
5FA0
2FC0
1F00
ENDCHAR
STARTCHAR 24F8
ENCODING 9464
SWIDTH 1000 0
DWIDTH 12 0
BBX 12 12 0 -1
BITMAP
0F00
3FC0
50C0
6260
C660
CA30
D230
DFD0
A260
52A0
2FC0
1F00
ENDCHAR
STARTCHAR 24F9
ENCODING 9465
SWIDTH 1000 0
DWIDTH 12 0
BBX 12 12 0 -1
BITMAP
0F00
3F80
50C0
6F60
C860
CF30
C930
C150
A960
56A0
2FC0
1F00
ENDCHAR
STARTCHAR 24FA
ENCODING 9466
SWIDTH 1000 0
DWIDTH 12 0
BBX 12 11 0 -1
BITMAP
0F00
3FC0
56A0
A960
C830
CF30
C930
A960
57A0
2FC0
1F00
ENDCHAR
STARTCHAR 24FB
ENCODING 9467
SWIDTH 1000 0
DWIDTH 12 0
BBX 12 11 0 -1
BITMAP
0F00
3FC0
50A0
AF60
C130
C230
C230
A260
54A0
2F40
1F80
ENDCHAR
STARTCHAR 24FC
ENCODING 9468
SWIDTH 1000 0
DWIDTH 12 0
BBX 12 11 0 -1
BITMAP
0F00
3FC0
5FA0
A960
C930
C630
C930
A960
5FA0
2FC0
1F00
ENDCHAR
STARTCHAR 24FD
ENCODING 9469
SWIDTH 1000 0
DWIDTH 12 0
BBX 12 11 0 -1
BITMAP
0F00
3FC0
56A0
A960
C930
C930
C730
A960
56A0
2FC0
1F00
ENDCHAR
STARTCHAR 24FE
ENCODING 9470
SWIDTH 1000 0
DWIDTH 12 0
BBX 12 11 0 -1
BITMAP
0F00
3FC0
53A0
BAE0
CCB0
CCB0
CCB0
AAE0
5BA0
2FC0
1F00
ENDCHAR
STARTCHAR 2500
ENCODING 9472
SWIDTH 1000 0
DWIDTH 12 0
BBX 12 1 0 4
BITMAP
FFF0
ENDCHAR
STARTCHAR 2501
ENCODING 9473
SWIDTH 1000 0
DWIDTH 12 0
BBX 12 1 0 4
BITMAP
FFF0
ENDCHAR
STARTCHAR 2502
ENCODING 9474
SWIDTH 1000 0
DWIDTH 12 0
BBX 1 10 5 0
BITMAP
80
80
80
80
80
80
80
80
80
80
ENDCHAR
STARTCHAR 2503
ENCODING 9475
SWIDTH 1000 0
DWIDTH 12 0
BBX 2 12 5 -1
BITMAP
C0
C0
C0
C0
C0
C0
C0
C0
C0
C0
C0
C0
ENDCHAR
STARTCHAR 250C
ENCODING 9484
SWIDTH 1000 0
DWIDTH 12 0
BBX 6 6 6 -2
BITMAP
FC
80
80
80
80
80
ENDCHAR
STARTCHAR 250F
ENCODING 9487
SWIDTH 1000 0
DWIDTH 12 0
BBX 7 6 5 -1
BITMAP
FE
C0
C0
C0
C0
C0
ENDCHAR
STARTCHAR 2510
ENCODING 9488
SWIDTH 1000 0
DWIDTH 12 0
BBX 6 6 0 -2
BITMAP
FC
04
04
04
04
04
ENDCHAR
STARTCHAR 2513
ENCODING 9491
SWIDTH 1000 0
DWIDTH 12 0
BBX 7 6 0 -1
BITMAP
FE
06
06
06
06
06
ENDCHAR
STARTCHAR 2514
ENCODING 9492
SWIDTH 1000 0
DWIDTH 12 0
BBX 6 6 6 5
BITMAP
80
80
80
80
80
FC
ENDCHAR
STARTCHAR 2517
ENCODING 9495
SWIDTH 1000 0
DWIDTH 12 0
BBX 7 7 5 4
BITMAP
C0
C0
C0
C0
C0
C0
FE
ENDCHAR
STARTCHAR 2518
ENCODING 9496
SWIDTH 1000 0
DWIDTH 12 0
BBX 6 6 0 5
BITMAP
04
04
04
04
04
FC
ENDCHAR
STARTCHAR 251B
ENCODING 9499
SWIDTH 1000 0
DWIDTH 12 0
BBX 7 7 0 4
BITMAP
06
06
06
06
06
06
FE
ENDCHAR
STARTCHAR 251C
ENCODING 9500
SWIDTH 1000 0
DWIDTH 12 0
BBX 6 11 6 -1
BITMAP
80
80
80
80
80
FC
80
80
80
80
80
ENDCHAR
STARTCHAR 251D
ENCODING 9501
SWIDTH 1000 0
DWIDTH 12 0
BBX 6 9 6 0
BITMAP
80
80
80
80
FC
80
80
80
80
ENDCHAR
STARTCHAR 2520
ENCODING 9504
SWIDTH 1000 0
DWIDTH 12 0
BBX 7 12 5 -1
BITMAP
C0
C0
C0
C0
C0
C0
FE
C0
C0
C0
C0
C0
ENDCHAR
STARTCHAR 2523
ENCODING 9507
SWIDTH 1000 0
DWIDTH 12 0
BBX 7 12 5 -1
BITMAP
C0
C0
C0
C0
C0
C0
FE
C0
C0
C0
C0
C0
ENDCHAR
STARTCHAR 2524
ENCODING 9508
SWIDTH 1000 0
DWIDTH 12 0
BBX 6 11 0 -1
BITMAP
04
04
04
04
04
FC
04
04
04
04
04
ENDCHAR
STARTCHAR 2525
ENCODING 9509
SWIDTH 1000 0
DWIDTH 12 0
BBX 6 9 0 0
BITMAP
04
04
04
04
FC
04
04
04
04
ENDCHAR
STARTCHAR 2528
ENCODING 9512
SWIDTH 1000 0
DWIDTH 12 0
BBX 7 12 0 -1
BITMAP
06
06
06
06
06
06
FE
06
06
06
06
06
ENDCHAR
STARTCHAR 252B
ENCODING 9515
SWIDTH 1000 0
DWIDTH 12 0
BBX 7 12 0 -1
BITMAP
06
06
06
06
06
06
FE
06
06
06
06
06
ENDCHAR
STARTCHAR 252C
ENCODING 9516
SWIDTH 1000 0
DWIDTH 12 0
BBX 12 6 0 -2
BITMAP
FFF0
0400
0400
0400
0400
0400
ENDCHAR
STARTCHAR 252F
ENCODING 9519
SWIDTH 1000 0
DWIDTH 12 0
BBX 12 5 0 -1
BITMAP
FFF0
0400
0400
0400
0400
ENDCHAR
STARTCHAR 2530
ENCODING 9520
SWIDTH 1000 0
DWIDTH 12 0
BBX 12 6 0 -1
BITMAP
FFF0
0600
0600
0600
0600
0600
ENDCHAR
STARTCHAR 2533
ENCODING 9523
SWIDTH 1000 0
DWIDTH 12 0
BBX 12 6 0 -1
BITMAP
FFF0
0600
0600
0600
0600
0600
ENDCHAR
STARTCHAR 2534
ENCODING 9524
SWIDTH 1000 0
DWIDTH 12 0
BBX 12 6 0 5
BITMAP
0400
0400
0400
0400
0400
FFF0
ENDCHAR
STARTCHAR 2537
ENCODING 9527
SWIDTH 1000 0
DWIDTH 12 0
BBX 12 5 0 5
BITMAP
0400
0400
0400
0400
FFF0
ENDCHAR
STARTCHAR 2538
ENCODING 9528
SWIDTH 1000 0
DWIDTH 12 0
BBX 12 7 0 4
BITMAP
0600
0600
0600
0600
0600
0600
FFF0
ENDCHAR
STARTCHAR 253B
ENCODING 9531
SWIDTH 1000 0
DWIDTH 12 0
BBX 12 7 0 4
BITMAP
0600
0600
0600
0600
0600
0600
FFF0
ENDCHAR
STARTCHAR 253C
ENCODING 9532
SWIDTH 1000 0
DWIDTH 12 0
BBX 12 11 0 -1
BITMAP
0400
0400
0400
0400
0400
FFF0
0400
0400
0400
0400
0400
ENDCHAR
STARTCHAR 253F
ENCODING 9535
SWIDTH 1000 0
DWIDTH 12 0
BBX 12 9 0 0
BITMAP
0400
0400
0400
0400
FFF0
0400
0400
0400
0400
ENDCHAR
STARTCHAR 2542
ENCODING 9538
SWIDTH 1000 0
DWIDTH 12 0
BBX 12 12 0 -1
BITMAP
0600
0600
0600
0600
0600
0600
FFF0
0600
0600
0600
0600
0600
ENDCHAR
STARTCHAR 254B
ENCODING 9547
SWIDTH 1000 0
DWIDTH 12 0
BBX 12 12 0 -1
BITMAP
0600
0600
0600
0600
0600
0600
FFF0
0600
0600
0600
0600
0600
ENDCHAR
STARTCHAR 25A0
ENCODING 9632
SWIDTH 1000 0
DWIDTH 12 0
BBX 8 9 2 0
BITMAP
FF
FF
FF
FF
FF
FF
FF
FF
FF
ENDCHAR
STARTCHAR 25A1
ENCODING 9633
SWIDTH 1000 0
DWIDTH 12 0
BBX 8 9 2 0
BITMAP
FF
81
81
81
81
81
81
81
FF
ENDCHAR
STARTCHAR 25B1
ENCODING 9649
SWIDTH 1000 0
DWIDTH 12 0
BBX 10 5 1 2
BITMAP
3FC0
4040
8080
8080
FF00
ENDCHAR
STARTCHAR 25B2
ENCODING 9650
SWIDTH 1000 0
DWIDTH 12 0
BBX 10 9 1 0
BITMAP
0800
0C00
0C00
1E00
1E00
3F00
7F80
7F80
FFC0
ENDCHAR
STARTCHAR 25B3
ENCODING 9651
SWIDTH 1000 0
DWIDTH 12 0
BBX 10 9 1 0
BITMAP
0800
0C00
1200
1200
2100
2100
4080
4080
FFC0
ENDCHAR
STARTCHAR 25B6
ENCODING 9654
SWIDTH 1000 0
DWIDTH 12 0
BBX 9 9 2 0
BITMAP
8000
E000
F800
FE00
FF80
FE00
F800
E000
8000
ENDCHAR
STARTCHAR 25B7
ENCODING 9655
SWIDTH 1000 0
DWIDTH 12 0
BBX 9 9 2 0
BITMAP
8000
E000
9800
8600
8180
8600
9800
E000
8000
ENDCHAR
STARTCHAR 25BC
ENCODING 9660
SWIDTH 1000 0
DWIDTH 12 0
BBX 10 9 1 0
BITMAP
FFC0
7F80
7F80
3F00
1E00
1E00
0C00
0C00
0800
ENDCHAR
STARTCHAR 25BD
ENCODING 9661
SWIDTH 1000 0
DWIDTH 12 0
BBX 10 9 1 0
BITMAP
FFC0
4080
4080
2100
2100
1200
1200
0C00
0800
ENDCHAR
STARTCHAR 25C0
ENCODING 9664
SWIDTH 1000 0
DWIDTH 12 0
BBX 9 9 1 0
BITMAP
0080
0380
0F80
3F80
FF80
3F80
0F80
0380
0080
ENDCHAR
STARTCHAR 25C1
ENCODING 9665
SWIDTH 1000 0
DWIDTH 12 0
BBX 9 9 1 0
BITMAP
0080
0380
0C80
3080
C080
3080
0C80
0380
0080
ENDCHAR
STARTCHAR 25C6
ENCODING 9670
SWIDTH 1000 0
DWIDTH 12 0
BBX 10 9 1 0
BITMAP
0C00
1E00
3F00
7F80
FFC0
7F80
3F00
1E00
0C00
ENDCHAR
STARTCHAR 25C7
ENCODING 9671
SWIDTH 1000 0
DWIDTH 12 0
BBX 10 9 1 0
BITMAP
0C00
1200
2100
4080
8040
4080
2100
1200
0C00
ENDCHAR
STARTCHAR 25C9
ENCODING 9673
SWIDTH 1000 0
DWIDTH 12 0
BBX 10 10 1 0
BITMAP
1E00
6180
5E80
BF40
BF40
BF40
BF40
5E80
6080
1F00
ENDCHAR
STARTCHAR 25CB
ENCODING 9675
SWIDTH 1000 0
DWIDTH 12 0
BBX 10 10 1 0
BITMAP
1E00
6180
4080
8040
8040
8040
8040
4080
6180
1E00
ENDCHAR
STARTCHAR 25CE
ENCODING 9678
SWIDTH 1000 0
DWIDTH 12 0
BBX 10 10 1 0
BITMAP
1E00
6180
5E80
B140
A140
A140
A140
5E80
6080
1F00
ENDCHAR
STARTCHAR 25CF
ENCODING 9679
SWIDTH 1000 0
DWIDTH 12 0
BBX 10 10 1 0
BITMAP
1E00
7F80
7F80
FFC0
FFC0
FFC0
FFC0
7F80
7F80
1E00
ENDCHAR
STARTCHAR 25D0
ENCODING 9680
SWIDTH 1000 0
DWIDTH 12 0
BBX 10 10 1 0
BITMAP
1E00
7980
7880
F840
F840
F840
F840
7880
7880
1F00
ENDCHAR
STARTCHAR 25D1
ENCODING 9681
SWIDTH 1000 0
DWIDTH 12 0
BBX 10 10 1 0
BITMAP
1E00
7780
4780
87C0
87C0
87C0
87C0
8780
4780
3E00
ENDCHAR
STARTCHAR 25D2
ENCODING 9682
SWIDTH 1000 0
DWIDTH 12 0
BBX 10 10 1 0
BITMAP
1E00
6180
4080
8040
8040
FFC0
FFC0
7F80
7F80
1E00
ENDCHAR
STARTCHAR 25D3
ENCODING 9683
SWIDTH 1000 0
DWIDTH 12 0
BBX 10 10 1 0
BITMAP
1E00
7F80
7F80
FFC0
FFC0
8040
8040
4080
6180
1E00
ENDCHAR
STARTCHAR 25E6
ENCODING 9702
SWIDTH 1000 0
DWIDTH 12 0
BBX 4 4 4 3
BITMAP
60
90
90
60
ENDCHAR
STARTCHAR 25EF
ENCODING 9711
SWIDTH 1000 0
DWIDTH 12 0
BBX 12 11 0 -1
BITMAP
1F00
30C0
4020
8020
8010
8010
8010
8020
4020
30C0
0F00
ENDCHAR
STARTCHAR 2600
ENCODING 9728
SWIDTH 1000 0
DWIDTH 12 0
BBX 12 9 0 0
BITMAP
2040
1080
0F00
1F80
FFF0
1F80
1F00
1F80
2040
ENDCHAR
STARTCHAR 2601
ENCODING 9729
SWIDTH 1000 0
DWIDTH 12 0
BBX 10 9 1 -1
BITMAP
1C00
3E00
3EC0
3FC0
FFC0
FFC0
FFC0
F7C0
0380
ENDCHAR
STARTCHAR 2602
ENCODING 9730
SWIDTH 1000 0
DWIDTH 12 0
BBX 10 10 1 0
BITMAP
3F00
7F80
FFC0
A940
0800
0800
0800
0800
0800
1800
ENDCHAR
STARTCHAR 2603
ENCODING 9731
SWIDTH 1000 0
DWIDTH 12 0
BBX 12 11 0 -1
BITMAP
8D20
1280
C440
3AE0
2780
6080
1090
E040
4240
4240
3FC0
ENDCHAR
STARTCHAR 2605
ENCODING 9733
SWIDTH 1000 0
DWIDTH 12 0
BBX 10 10 1 0
BITMAP
0C00
0C00
0C00
FFC0
3F00
1E00
3F00
3300
2100
4080
ENDCHAR
STARTCHAR 2606
ENCODING 9734
SWIDTH 1000 0
DWIDTH 12 0
BBX 10 10 1 0
BITMAP
0C00
0C00
0C00
F3C0
4080
3300
2200
2D00
3300
4100
ENDCHAR
STARTCHAR 260E
ENCODING 9742
SWIDTH 1000 0
DWIDTH 12 0
BBX 10 9 1 0
BITMAP
7F80
D2C0
9240
3F00
3300
6180
6180
F3C0
FFC0
ENDCHAR
STARTCHAR 2616
ENCODING 9750
SWIDTH 1000 0
DWIDTH 12 0
BBX 10 10 1 0
BITMAP
0C00
1200
6180
4080
4080
4080
8080
8080
8040
FFC0
ENDCHAR
STARTCHAR 2617
ENCODING 9751
SWIDTH 1000 0
DWIDTH 12 0
BBX 10 9 1 1
BITMAP
1E00
7F80
7F80
7F80
7F80
7F80
7F80
FFC0
FFC0
ENDCHAR
STARTCHAR 261E
ENCODING 9758
SWIDTH 1000 0
DWIDTH 12 0
BBX 10 5 1 2
BITMAP
FFC0
CF80
FB00
A500
DE00
ENDCHAR
STARTCHAR 2640
ENCODING 9792
SWIDTH 1000 0
DWIDTH 12 0
BBX 8 11 2 -1
BITMAP
18
24
42
42
24
18
10
FF
10
10
10
ENDCHAR
STARTCHAR 2642
ENCODING 9794
SWIDTH 1000 0
DWIDTH 12 0
BBX 10 9 1 0
BITMAP
03C0
00C0
0140
0240
7400
4800
8400
8800
7800
ENDCHAR
STARTCHAR 2660
ENCODING 9824
SWIDTH 1000 0
DWIDTH 12 0
BBX 8 11 2 -1
BITMAP
18
18
3C
7E
FF
FF
FF
FF
F7
18
18
ENDCHAR
STARTCHAR 2661
ENCODING 9825
SWIDTH 1000 0
DWIDTH 12 0
BBX 10 9 1 -1
BITMAP
7F80
8C40
8040
8040
8080
4080
2100
1200
0C00
ENDCHAR
STARTCHAR 2662
ENCODING 9826
SWIDTH 1000 0
DWIDTH 12 0
BBX 8 11 2 -1
BITMAP
18
24
44
42
81
81
81
42
24
28
18
ENDCHAR
STARTCHAR 2663
ENCODING 9827
SWIDTH 1000 0
DWIDTH 12 0
BBX 10 11 1 -1
BITMAP
0C00
1E00
1E00
1E00
6D80
FFC0
FFC0
FBC0
6980
0C00
0C00
ENDCHAR
STARTCHAR 2664
ENCODING 9828
SWIDTH 1000 0
DWIDTH 12 0
BBX 10 11 1 -1
BITMAP
0C00
1200
2200
4100
4080
8080
8040
8C80
7F80
1400
1E00
ENDCHAR
STARTCHAR 2665
ENCODING 9829
SWIDTH 1000 0
DWIDTH 12 0
BBX 10 9 1 -1
BITMAP
7380
FFC0
FFC0
FFC0
7F80
3F00
3F00
1E00
0C00
ENDCHAR
STARTCHAR 2666
ENCODING 9830
SWIDTH 1000 0
DWIDTH 12 0
BBX 8 11 2 -1
BITMAP
18
18
3C
7E
FF
FF
FF
7E
3C
18
18
ENDCHAR
STARTCHAR 2667
ENCODING 9831
SWIDTH 1000 0
DWIDTH 12 0
BBX 10 11 1 -1
BITMAP
1E00
1200
2100
2200
7380
8040
8040
8C40
7F80
1400
1E00
ENDCHAR
STARTCHAR 2668
ENCODING 9832
SWIDTH 1000 0
DWIDTH 12 0
BBX 10 9 1 0
BITMAP
2800
2A00
2A00
2900
2500
A540
A940
C0C0
3F00
ENDCHAR
STARTCHAR 2669
ENCODING 9833
SWIDTH 1000 0
DWIDTH 12 0
BBX 4 11 3 -1
BITMAP
10
10
10
10
10
10
10
10
70
F0
60
ENDCHAR
STARTCHAR 266A
ENCODING 9834
SWIDTH 1000 0
DWIDTH 12 0
BBX 8 11 2 -1
BITMAP
10
18
14
13
11
11
11
12
70
F0
60
ENDCHAR
STARTCHAR 266B
ENCODING 9835
SWIDTH 1000 0
DWIDTH 12 0
BBX 9 11 1 -1
BITMAP
0380
1F80
2080
2080
2080
2080
2080
2380
2780
E700
E000
ENDCHAR
STARTCHAR 266C
ENCODING 9836
SWIDTH 1000 0
DWIDTH 12 0
BBX 9 11 1 -1
BITMAP
0380
1E80
2180
1F80
1080
2080
2080
2380
2780
E700
E000
ENDCHAR
STARTCHAR 266D
ENCODING 9837
SWIDTH 1000 0
DWIDTH 12 0
BBX 5 10 4 0
BITMAP
80
80
80
80
B8
C8
88
88
90
E0
ENDCHAR
STARTCHAR 266E
ENCODING 9838
SWIDTH 1000 0
DWIDTH 12 0
BBX 4 10 4 0
BITMAP
80
80
80
F0
D0
90
B0
D0
10
10
ENDCHAR
STARTCHAR 266F
ENCODING 9839
SWIDTH 1000 0
DWIDTH 12 0
BBX 8 11 2 -1
BITMAP
04
24
24
3E
E4
24
27
FC
24
24
20
ENDCHAR
STARTCHAR 2713
ENCODING 10003
SWIDTH 1000 0
DWIDTH 12 0
BBX 8 8 3 1
BITMAP
01
02
04
08
10
90
A0
40
ENDCHAR
STARTCHAR 2756
ENCODING 10070
SWIDTH 1000 0
DWIDTH 12 0
BBX 10 9 1 0
BITMAP
0C00
1E00
0C00
6180
F3C0
6180
0C00
1E00
0C00
ENDCHAR
STARTCHAR 2776
ENCODING 10102
SWIDTH 1000 0
DWIDTH 12 0
BBX 12 11 0 -1
BITMAP
1F00
3FC0
71E0
7DE0
FDF0
FDF0
FDF0
7DE0
7DE0
3FC0
0F00
ENDCHAR
STARTCHAR 2777
ENCODING 10103
SWIDTH 1000 0
DWIDTH 12 0
BBX 12 11 0 -1
BITMAP
1F00
38C0
76E0
7760
FEF0
FDF0
FBF0
77E0
6060
3FC0
0F00
ENDCHAR
STARTCHAR 2778
ENCODING 10104
SWIDTH 1000 0
DWIDTH 12 0
BBX 12 11 0 -1
BITMAP
1F00
38C0
76E0
6EE0
FEF0
F8F0
FF70
6F60
76E0
3FC0
0F00
ENDCHAR
STARTCHAR 2779
ENCODING 10105
SWIDTH 1000 0
DWIDTH 12 0
BBX 12 11 0 -1
BITMAP
0F00
3FC0
7DE0
79E0
FDF0
F5F0
EDF0
7DE0
7DE0
3FC0
0F00
ENDCHAR
STARTCHAR 277A
ENCODING 10106
SWIDTH 1000 0
DWIDTH 12 0
BBX 12 12 0 -2
BITMAP
0F00
3FC0
70E0
77E0
F7E0
F6F0
FF70
7F60
7660
78E0
3FC0
0F00
ENDCHAR
STARTCHAR 277B
ENCODING 10107
SWIDTH 1000 0
DWIDTH 12 0
BBX 12 11 0 -1
BITMAP
1F00
38C0
76E0
77E0
E8F0
E6F0
E770
77E0
7EE0
3FC0
0F00
ENDCHAR
STARTCHAR 277C
ENCODING 10108
SWIDTH 1000 0
DWIDTH 12 0
BBX 12 11 0 -1
BITMAP
1F00
3FC0
7060
7EE0
FEF0
FDF0
FDF0
79E0
7BE0
3FC0
0F00
ENDCHAR
STARTCHAR 277D
ENCODING 10109
SWIDTH 1000 0
DWIDTH 12 0
BBX 12 11 0 -1
BITMAP
1F00
30C0
76E0
6F60
F6F0
F0F0
E670
6F60
76E0
3FC0
0F00
ENDCHAR
STARTCHAR 277E
ENCODING 10110
SWIDTH 1000 0
DWIDTH 12 0
BBX 12 11 0 -1
BITMAP
1F00
38C0
76E0
7760
F770
F670
F970
77E0
76E0
3FC0
0F00
ENDCHAR
STARTCHAR 277F
ENCODING 10111
SWIDTH 1000 0
DWIDTH 12 0
BBX 12 11 0 -1
BITMAP
1F00
3FC0
4D60
6FA0
EBB0
EBB0
EBB0
6D60
6C60
3FC0
0F00
ENDCHAR
STARTCHAR 2934
ENCODING 10548
SWIDTH 1000 0
DWIDTH 12 0
BBX 10 9 1 1
BITMAP
0180
03C0
0540
0100
0100
0100
0100
0300
FE00
ENDCHAR
STARTCHAR 2935
ENCODING 10549
SWIDTH 1000 0
DWIDTH 12 0
BBX 10 9 1 -1
BITMAP
FE00
0300
0100
0100
0100
0100
0540
03C0
0180
ENDCHAR
STARTCHAR 29BF
ENCODING 10687
SWIDTH 1000 0
DWIDTH 12 0
BBX 10 10 1 0
BITMAP
1E00
2180
4080
8040
8C40
9E40
8C40
4080
6180
1E00
ENDCHAR
STARTCHAR 29FA
ENCODING 10746
SWIDTH 666 0
DWIDTH 8 0
BBX 6 7 1 0
BITMAP
08
48
48
FC
48
48
48
ENDCHAR
STARTCHAR 29FB
ENCODING 10747
SWIDTH 666 0
DWIDTH 8 0
BBX 6 7 1 0
BITMAP
48
68
68
FC
68
68
68
ENDCHAR
STARTCHAR 2E83
ENCODING 11907
SWIDTH 1000 0
DWIDTH 12 0
BBX 7 9 3 0
BITMAP
80
80
80
80
80
80
82
82
FE
ENDCHAR
STARTCHAR 2E85
ENCODING 11909
SWIDTH 1000 0
DWIDTH 12 0
BBX 5 10 3 0
BITMAP
08
10
30
70
90
10
10
10
10
10
ENDCHAR
STARTCHAR 2E87
ENCODING 11911
SWIDTH 1000 0
DWIDTH 12 0
BBX 11 10 1 -1
BITMAP
7F80
4080
4080
4080
4080
4080
4080
40A0
80C0
8040
ENDCHAR
STARTCHAR 2E89
ENCODING 11913
SWIDTH 1000 0
DWIDTH 12 0
BBX 4 10 4 -1
BITMAP
10
90
90
90
90
90
10
10
10
70
ENDCHAR
STARTCHAR 2E8E
ENCODING 11918
SWIDTH 1000 0
DWIDTH 12 0
BBX 10 9 1 0
BITMAP
FFC0
1200
1200
1200
1200
1200
2240
2240
C3C0
ENDCHAR
STARTCHAR 2E8F
ENCODING 11919
SWIDTH 1000 0
DWIDTH 12 0
BBX 10 10 1 -1
BITMAP
1200
2100
4080
9240
1200
1200
1200
2240
63C0
8000
ENDCHAR
STARTCHAR 2E90
ENCODING 11920
SWIDTH 1000 0
DWIDTH 12 0
BBX 10 11 1 -1
BITMAP
0800
0800
0800
FFC0
0C00
0C00
0C00
1400
3440
6440
87C0
ENDCHAR
STARTCHAR 2E92
ENCODING 11922
SWIDTH 1000 0
DWIDTH 12 0
BBX 9 10 2 -1
BITMAP
FF00
8100
8100
8100
FF00
8100
8000
8080
8080
FF80
ENDCHAR
STARTCHAR 2E93
ENCODING 11923
SWIDTH 1000 0
DWIDTH 12 0
BBX 10 9 1 0
BITMAP
0800
1900
5100
2200
1400
0800
1100
2080
FF40
ENDCHAR
STARTCHAR 2E94
ENCODING 11924
SWIDTH 1000 0
DWIDTH 12 0
BBX 10 9 1 1
BITMAP
2000
3F00
2100
2100
2100
7F00
4100
0100
FFC0
ENDCHAR
STARTCHAR 2E96
ENCODING 11926
SWIDTH 1000 0
DWIDTH 12 0
BBX 5 11 3 -1
BITMAP
20
20
28
68
68
A0
20
20
20
20
20
ENDCHAR
STARTCHAR 2E97
ENCODING 11927
SWIDTH 1000 0
DWIDTH 12 0
BBX 10 10 1 -1
BITMAP
1000
1000
5580
5480
9240
9240
9240
1000
1000
7000
ENDCHAR
STARTCHAR 2E98
ENCODING 11928
SWIDTH 1000 0
DWIDTH 12 0
BBX 6 10 3 -1
BITMAP
20
20
FC
20
20
3C
E0
20
20
60
ENDCHAR
STARTCHAR 2E99
ENCODING 11929
SWIDTH 1000 0
DWIDTH 12 0
BBX 10 10 1 -1
BITMAP
1000
2000
3FC0
2100
6200
9200
0E00
0400
1A00
61C0
ENDCHAR
STARTCHAR 2E9B
ENCODING 11931
SWIDTH 1000 0
DWIDTH 12 0
BBX 10 11 1 -2
BITMAP
7F80
0400
4400
4400
7FC0
4800
0C00
1440
3440
47C0
8000
ENDCHAR
STARTCHAR 2E9E
ENCODING 11934
SWIDTH 1000 0
DWIDTH 12 0
BBX 9 11 2 -1
BITMAP
0800
0F80
0800
3F00
4100
A200
1C00
0800
1000
6000
8000
ENDCHAR
STARTCHAR 2E9F
ENCODING 11935
SWIDTH 1000 0
DWIDTH 12 0
BBX 10 10 1 -1
BITMAP
7F80
4880
4480
FFC0
4080
4C80
4480
7FC0
8080
0700
ENDCHAR
STARTCHAR 2EA0
ENCODING 11936
SWIDTH 1000 0
DWIDTH 12 0
BBX 10 10 1 -1
BITMAP
7F80
4080
7F80
4480
4400
7FC0
4400
4240
4D40
F0C0
ENDCHAR
STARTCHAR 2EA1
ENCODING 11937
SWIDTH 1000 0
DWIDTH 12 0
BBX 4 9 4 -1
BITMAP
40
20
80
40
00
10
20
20
40
ENDCHAR
STARTCHAR 2EA3
ENCODING 11939
SWIDTH 1000 0
DWIDTH 12 0
BBX 10 4 1 2
BITMAP
0480
5280
5240
8000
ENDCHAR
STARTCHAR 2EA4
ENCODING 11940
SWIDTH 1000 0
DWIDTH 12 0
BBX 9 5 1 3
BITMAP
0380
FC00
4880
4900
2500
ENDCHAR
STARTCHAR 2EA6
ENCODING 11942
SWIDTH 1000 0
DWIDTH 12 0
BBX 4 11 3 -1
BITMAP
10
10
90
50
10
10
30
D0
10
10
10
ENDCHAR
STARTCHAR 2EA8
ENCODING 11944
SWIDTH 1000 0
DWIDTH 12 0
BBX 5 11 3 -1
BITMAP
08
50
20
50
90
10
30
50
90
10
70
ENDCHAR
STARTCHAR 2EAA
ENCODING 11946
SWIDTH 1000 0
DWIDTH 12 0
BBX 6 9 3 0
BITMAP
FC
08
10
A0
9C
A0
A0
AC
F0
ENDCHAR
STARTCHAR 2EAB
ENCODING 11947
SWIDTH 1000 0
DWIDTH 12 0
BBX 9 5 1 2
BITMAP
FF80
9280
9280
FF80
8000
ENDCHAR
STARTCHAR 2EAD
ENCODING 11949
SWIDTH 1000 0
DWIDTH 12 0
BBX 6 11 3 -1
BITMAP
20
20
FC
08
10
30
5C
90
10
10
10
ENDCHAR
STARTCHAR 2EB2
ENCODING 11954
SWIDTH 1000 0
DWIDTH 12 0
BBX 9 5 1 2
BITMAP
FF80
9280
9280
FF80
8000
ENDCHAR
STARTCHAR 2EB9
ENCODING 11961
SWIDTH 1000 0
DWIDTH 12 0
BBX 10 10 1 0
BITMAP
0800
0880
7E80
0900
0BC0
FC00
0800
3000
4000
8000
ENDCHAR
STARTCHAR 2EBD
ENCODING 11965
SWIDTH 1000 0
DWIDTH 12 0
BBX 8 10 2 -1
BITMAP
20
CF
81
81
E7
81
81
81
EF
81
ENDCHAR
STARTCHAR 2EBE
ENCODING 11966
SWIDTH 1000 0
DWIDTH 12 0
BBX 10 4 1 4
BITMAP
1200
1200
FFC0
1200
ENDCHAR
STARTCHAR 2EBF
ENCODING 11967
SWIDTH 1000 0
DWIDTH 12 0
BBX 10 4 1 4
BITMAP
2100
2100
FFC0
2100
ENDCHAR
STARTCHAR 2EC0
ENCODING 11968
SWIDTH 1000 0
DWIDTH 12 0
BBX 10 5 1 3
BITMAP
1200
1200
F3C0
1200
1200
ENDCHAR
STARTCHAR 2EC1
ENCODING 11969
SWIDTH 1000 0
DWIDTH 12 0
BBX 10 11 1 -1
BITMAP
0800
0F80
7FC0
4840
7F00
4880
4780
4A00
8A00
9240
A3C0
ENDCHAR
STARTCHAR 2EC2
ENCODING 11970
SWIDTH 1000 0
DWIDTH 12 0
BBX 7 11 2 -1
BITMAP
10
10
7E
04
08
12
3C
D2
10
10
10
ENDCHAR
STARTCHAR 2EC3
ENCODING 11971
SWIDTH 1000 0
DWIDTH 12 0
BBX 10 6 1 2
BITMAP
FFC0
1200
7F80
5280
7F80
4080
ENDCHAR
STARTCHAR 2EC4
ENCODING 11972
SWIDTH 1000 0
DWIDTH 12 0
BBX 10 9 1 -1
BITMAP
FFC0
1400
1400
7F80
9480
9480
A380
8080
7F80
ENDCHAR
STARTCHAR 2ECA
ENCODING 11978
SWIDTH 1000 0
DWIDTH 12 0
BBX 6 10 3 -1
BITMAP
F8
88
88
F8
20
5C
60
60
5C
E0
ENDCHAR
STARTCHAR 2ECC
ENCODING 11980
SWIDTH 1000 0
DWIDTH 12 0
BBX 10 10 1 -1
BITMAP
4000
2000
0000
0000
E000
2000
2000
2000
7000
8FC0
ENDCHAR
STARTCHAR 2ECD
ENCODING 11981
SWIDTH 1000 0
DWIDTH 12 0
BBX 10 10 1 -1
BITMAP
4000
2000
8000
6000
0000
E000
2000
2000
6000
9FC0
ENDCHAR
STARTCHAR 2ECF
ENCODING 11983
SWIDTH 1000 0
DWIDTH 12 0
BBX 5 10 4 -1
BITMAP
F8
88
90
90
90
88
88
B8
80
80
ENDCHAR
STARTCHAR 2ED1
ENCODING 11985
SWIDTH 1000 0
DWIDTH 12 0
BBX 10 10 1 -1
BITMAP
3F80
3F80
2000
3F80
FFC0
2480
2500
2200
3980
C040
ENDCHAR
STARTCHAR 2ED2
ENCODING 11986
SWIDTH 1000 0
DWIDTH 12 0
BBX 10 10 1 -1
BITMAP
3F80
2000
3F80
3F80
2000
FFC0
1000
2100
2F80
5040
ENDCHAR
STARTCHAR 2ED6
ENCODING 11990
SWIDTH 1000 0
DWIDTH 12 0
BBX 5 10 4 -1
BITMAP
F8
88
90
90
90
88
88
B8
80
80
ENDCHAR
STARTCHAR 2ED8
ENCODING 11992
SWIDTH 1000 0
DWIDTH 12 0
BBX 10 11 1 -1
BITMAP
0800
FFC0
0800
7F80
FFC0
7F80
7F80
4080
7F80
4080
4380
ENDCHAR
STARTCHAR 2EDE
ENCODING 11998
SWIDTH 1000 0
DWIDTH 12 0
BBX 6 10 3 0
BITMAP
30
48
F4
F8
78
48
78
78
78
40
ENDCHAR
STARTCHAR 2EDF
ENCODING 11999
SWIDTH 1000 0
DWIDTH 12 0
BBX 5 11 3 0
BITMAP
30
28
50
F8
48
78
48
78
50
48
78
ENDCHAR
STARTCHAR 2EE4
ENCODING 12004
SWIDTH 1000 0
DWIDTH 12 0
BBX 10 12 1 -2
BITMAP
0800
7F80
4880
7F80
4880
4880
7F80
1500
1580
2740
67C0
8000
ENDCHAR
STARTCHAR 2EE8
ENCODING 12008
SWIDTH 1000 0
DWIDTH 12 0
BBX 10 11 1 -1
BITMAP
0800
FFC0
0800
7F80
0800
FFC0
1F00
3100
CE00
1B00
E0C0
ENDCHAR
STARTCHAR 2EE9
ENCODING 12009
SWIDTH 1000 0
DWIDTH 12 0
BBX 10 11 1 -1
BITMAP
1200
FFC0
1200
FFC0
0800
7F80
7F80
4880
7F80
3300
C0C0
ENDCHAR
STARTCHAR 2EEB
ENCODING 12011
SWIDTH 1000 0
DWIDTH 12 0
BBX 10 11 1 -1
BITMAP
0800
FFC0
2300
1C00
1F00
E1C0
3F00
2100
3F00
2100
4100
ENDCHAR
STARTCHAR 2EED
ENCODING 12013
SWIDTH 1000 0
DWIDTH 12 0
BBX 10 10 1 0
BITMAP
0800
2780
2800
FFC0
8000
9A80
BF80
9480
A380
FF80
ENDCHAR
STARTCHAR 2EEF
ENCODING 12015
SWIDTH 1000 0
DWIDTH 12 0
BBX 10 11 1 -1
BITMAP
0800
FFC0
2200
FFC0
0000
7F80
7F80
4880
7F80
4840
07C0
ENDCHAR
STARTCHAR 2EF2
ENCODING 12018
SWIDTH 1000 0
DWIDTH 12 0
BBX 11 10 1 0
BITMAP
3E00
7F80
FF80
7F80
0800
7F80
7F80
7F80
0820
07C0
ENDCHAR
STARTCHAR 2F00
ENCODING 12032
SWIDTH 1000 0
DWIDTH 12 0
BBX 10 1 1 4
BITMAP
FFC0
ENDCHAR
STARTCHAR 2F01
ENCODING 12033
SWIDTH 1000 0
DWIDTH 12 0
BBX 0 0 6 -1
BITMAP
ENDCHAR
STARTCHAR 2F02
ENCODING 12034
SWIDTH 1000 0
DWIDTH 12 0
BBX 6 5 3 2
BITMAP
C0
60
30
18
0C
ENDCHAR
STARTCHAR 2F03
ENCODING 12035
SWIDTH 1000 0
DWIDTH 12 0
BBX 4 10 3 -1
BITMAP
10
10
10
10
10
10
30
20
40
80
ENDCHAR
STARTCHAR 2F04
ENCODING 12036
SWIDTH 1000 0
DWIDTH 12 0
BBX 9 9 2 0
BITMAP
FE00
0400
0800
1000
2000
4000
8080
8080
FF00
ENDCHAR
STARTCHAR 2F05
ENCODING 12037
SWIDTH 1000 0
DWIDTH 12 0
BBX 3 10 4 -1
BITMAP
20
20
20
20
20
20
20
20
20
C0
ENDCHAR
STARTCHAR 2F06
ENCODING 12038
SWIDTH 1000 0
DWIDTH 12 0
BBX 10 7 1 1
BITMAP
7F80
0000
0000
0000
0000
0000
FFC0
ENDCHAR
STARTCHAR 2F07
ENCODING 12039
SWIDTH 1000 0
DWIDTH 12 0
BBX 10 4 1 5
BITMAP
0800
0800
0800
FFC0
ENDCHAR
STARTCHAR 2F08
ENCODING 12040
SWIDTH 1000 0
DWIDTH 12 0
BBX 10 11 1 -1
BITMAP
0800
0800
0800
0C00
0C00
0C00
1200
1300
2180
C0C0
8000
ENDCHAR
STARTCHAR 2F09
ENCODING 12041
SWIDTH 1000 0
DWIDTH 12 0
BBX 10 10 1 -1
BITMAP
1200
1200
1200
1200
2200
2200
2240
2240
43C0
8000
ENDCHAR
STARTCHAR 2F0A
ENCODING 12042
SWIDTH 1000 0
DWIDTH 12 0
BBX 10 10 1 -1
BITMAP
3C00
0400
0400
0C00
0C00
0A00
1200
3100
6080
C040
ENDCHAR
STARTCHAR 2F0B
ENCODING 12043
SWIDTH 1000 0
DWIDTH 12 0
BBX 10 9 1 0
BITMAP
1E00
0200
1200
2100
2100
2100
4080
40C0
8040
ENDCHAR
STARTCHAR 2F0C
ENCODING 12044
SWIDTH 1000 0
DWIDTH 12 0
BBX 10 10 1 -1
BITMAP
FFC0
8040
8040
8040
8040
8040
8040
8040
8040
8180
ENDCHAR
STARTCHAR 2F0D
ENCODING 12045
SWIDTH 1000 0
DWIDTH 12 0
BBX 10 3 1 4
BITMAP
FFC0
8040
8040
ENDCHAR
STARTCHAR 2F0E
ENCODING 12046
SWIDTH 1000 0
DWIDTH 12 0
BBX 5 9 4 0
BITMAP
80
C0
40
08
10
30
20
40
80
ENDCHAR
STARTCHAR 2F0F
ENCODING 12047
SWIDTH 1000 0
DWIDTH 12 0
BBX 10 10 1 -1
BITMAP
3E00
2200
2200
2200
2200
2200
2240
4240
C3C0
8000
ENDCHAR
STARTCHAR 2F10
ENCODING 12048
SWIDTH 1000 0
DWIDTH 12 0
BBX 8 9 2 0
BITMAP
81
81
81
81
81
81
81
FF
81
ENDCHAR
STARTCHAR 2F11
ENCODING 12049
SWIDTH 1000 0
DWIDTH 12 0
BBX 9 9 1 -1
BITMAP
FF80
0880
0880
0880
1080
1080
1080
2080
4780
ENDCHAR
STARTCHAR 2F12
ENCODING 12050
SWIDTH 1000 0
DWIDTH 12 0
BBX 10 10 1 -1
BITMAP
0800
0800
FFC0
0840
0840
0840
1080
1080
2080
C780
ENDCHAR
STARTCHAR 2F13
ENCODING 12051
SWIDTH 1000 0
DWIDTH 12 0
BBX 9 11 1 -1
BITMAP
1000
2000
3F80
4080
4080
8080
0080
0080
0080
0080
0780
ENDCHAR
STARTCHAR 2F14
ENCODING 12052
SWIDTH 1000 0
DWIDTH 12 0
BBX 9 9 2 0
BITMAP
8000
8000
8700
B800
C000
8000
8080
8100
7F00
ENDCHAR
STARTCHAR 2F15
ENCODING 12053
SWIDTH 1000 0
DWIDTH 12 0
BBX 9 10 2 -1
BITMAP
FF80
8000
8000
8000
8000
8000
8000
8000
FF80
8000
ENDCHAR
STARTCHAR 2F16
ENCODING 12054
SWIDTH 1000 0
DWIDTH 12 0
BBX 10 9 1 0
BITMAP
FFC0
4000
4000
4000
4000
4000
4000
4000
7F80
ENDCHAR
STARTCHAR 2F17
ENCODING 12055
SWIDTH 1000 0
DWIDTH 12 0
BBX 10 11 1 -1
BITMAP
0800
0800
0800
0800
FFC0
0800
0800
0800
0800
0800
0800
ENDCHAR
STARTCHAR 2F18
ENCODING 12056
SWIDTH 1000 0
DWIDTH 12 0
BBX 6 11 4 -1
BITMAP
80
80
80
80
E0
98
8C
80
80
80
80
ENDCHAR
STARTCHAR 2F19
ENCODING 12057
SWIDTH 1000 0
DWIDTH 12 0
BBX 6 10 3 -1
BITMAP
FC
84
84
84
84
84
84
9C
80
80
ENDCHAR
STARTCHAR 2F1A
ENCODING 12058
SWIDTH 1000 0
DWIDTH 12 0
BBX 10 9 1 -1
BITMAP
7FC0
4000
4000
4000
4000
4000
4000
4000
8000
ENDCHAR
STARTCHAR 2F1B
ENCODING 12059
SWIDTH 1000 0
DWIDTH 12 0
BBX 10 9 1 0
BITMAP
0800
0800
0800
1000
1300
2100
2080
2F80
F040
ENDCHAR
STARTCHAR 2F1C
ENCODING 12060
SWIDTH 1000 0
DWIDTH 12 0
BBX 10 10 1 -1
BITMAP
FF80
2080
2100
1100
1200
0C00
0C00
1300
60C0
8000
ENDCHAR
STARTCHAR 2F1D
ENCODING 12061
SWIDTH 1000 0
DWIDTH 12 0
BBX 8 8 2 0
BITMAP
FF
81
81
81
81
81
FF
81
ENDCHAR
STARTCHAR 2F1E
ENCODING 12062
SWIDTH 1000 0
DWIDTH 12 0
BBX 10 10 1 -1
BITMAP
FFC0
8040
8040
8040
8040
8040
8040
8040
FFC0
8040
ENDCHAR
STARTCHAR 2F1F
ENCODING 12063
SWIDTH 1000 0
DWIDTH 12 0
BBX 10 10 1 0
BITMAP
0800
0800
0800
7F80
0800
0800
0800
0800
0800
FFC0
ENDCHAR
STARTCHAR 2F20
ENCODING 12064
SWIDTH 1000 0
DWIDTH 12 0
BBX 10 10 1 0
BITMAP
0800
0800
0800
FFC0
0800
0800
0800
0800
0800
FFC0
ENDCHAR
STARTCHAR 2F21
ENCODING 12065
SWIDTH 1000 0
DWIDTH 12 0
BBX 10 10 1 -1
BITMAP
1000
1F80
3100
3100
5200
0A00
0400
0A00
3180
C040
ENDCHAR
STARTCHAR 2F22
ENCODING 12066
SWIDTH 1000 0
DWIDTH 12 0
BBX 10 10 1 -1
BITMAP
0800
1F80
3100
2100
3200
4A00
8400
0A00
3180
C040
ENDCHAR
STARTCHAR 2F23
ENCODING 12067
SWIDTH 1000 0
DWIDTH 12 0
BBX 9 10 1 -1
BITMAP
0800
1F80
1080
2080
7900
C500
0200
0400
1800
6000
ENDCHAR
STARTCHAR 2F24
ENCODING 12068
SWIDTH 1000 0
DWIDTH 12 0
BBX 10 11 1 -1
BITMAP
0800
0800
0800
FFC0
0C00
0C00
0A00
1300
2180
40C0
8000
ENDCHAR
STARTCHAR 2F25
ENCODING 12069
SWIDTH 1000 0
DWIDTH 12 0
BBX 10 11 1 -1
BITMAP
0800
0800
1000
FFC0
1100
2100
2200
5E00
0700
3980
C000
ENDCHAR
STARTCHAR 2F26
ENCODING 12070
SWIDTH 1000 0
DWIDTH 12 0
BBX 10 10 1 -1
BITMAP
7F80
0100
0600
0400
FFC0
0400
0400
0400
0400
1800
ENDCHAR
STARTCHAR 2F27
ENCODING 12071
SWIDTH 1000 0
DWIDTH 12 0
BBX 10 5 1 3
BITMAP
0800
0800
FFC0
8040
8040
ENDCHAR
STARTCHAR 2F28
ENCODING 12072
SWIDTH 1000 0
DWIDTH 12 0
BBX 10 10 1 -1
BITMAP
0100
0100
FFC0
0100
2100
3100
1100
0100
0100
0F00
ENDCHAR
STARTCHAR 2F29
ENCODING 12073
SWIDTH 1000 0
DWIDTH 12 0
BBX 10 9 1 0
BITMAP
0800
0800
2900
4880
4880
4840
8840
0800
3800
ENDCHAR
STARTCHAR 2F2A
ENCODING 12074
SWIDTH 1000 0
DWIDTH 12 0
BBX 10 11 1 -1
BITMAP
0800
0800
0800
FFC0
0C00
0C00
0C00
1400
3440
6440
87C0
ENDCHAR
STARTCHAR 2F2B
ENCODING 12075
SWIDTH 1000 0
DWIDTH 12 0
BBX 9 10 1 -1
BITMAP
7F80
4080
4080
7F80
4080
4000
4000
4000
4000
8000
ENDCHAR
STARTCHAR 2F2C
ENCODING 12076
SWIDTH 1000 0
DWIDTH 12 0
BBX 8 10 2 -1
BITMAP
10
91
91
91
91
FF
91
10
10
60
ENDCHAR
STARTCHAR 2F2D
ENCODING 12077
SWIDTH 1000 0
DWIDTH 12 0
BBX 10 11 1 -1
BITMAP
0800
0800
0800
8840
8840
8840
8840
8840
8840
FFC0
8040
ENDCHAR
STARTCHAR 2F2E
ENCODING 12078
SWIDTH 1000 0
DWIDTH 12 0
BBX 10 9 1 -1
BITMAP
2480
4480
4880
4900
9100
4900
4880
4480
2440
ENDCHAR
STARTCHAR 2F2F
ENCODING 12079
SWIDTH 1000 0
DWIDTH 12 0
BBX 10 8 1 0
BITMAP
FFC0
0800
0800
0800
0800
0800
0800
FFC0
ENDCHAR
STARTCHAR 2F30
ENCODING 12080
SWIDTH 1000 0
DWIDTH 12 0
BBX 9 9 2 0
BITMAP
FF00
0100
0100
FF00
8100
8000
8080
8080
FF80
ENDCHAR
STARTCHAR 2F31
ENCODING 12081
SWIDTH 1000 0
DWIDTH 12 0
BBX 9 11 2 -1
BITMAP
1000
1000
FF80
9080
9080
9080
9080
9080
1300
1000
1000
ENDCHAR
STARTCHAR 2F32
ENCODING 12082
SWIDTH 1000 0
DWIDTH 12 0
BBX 10 10 1 -1
BITMAP
FFC0
0800
0800
0800
FFC0
0800
0800
0800
0800
0800
ENDCHAR
STARTCHAR 2F33
ENCODING 12083
SWIDTH 1000 0
DWIDTH 12 0
BBX 10 9 1 0
BITMAP
0800
1900
5100
2200
1400
0800
1100
2080
FF40
ENDCHAR
STARTCHAR 2F34
ENCODING 12084
SWIDTH 1000 0
DWIDTH 12 0
BBX 10 11 1 -1
BITMAP
0400
0400
7FC0
4000
4000
4000
4000
4000
4000
8000
8000
ENDCHAR
STARTCHAR 2F35
ENCODING 12085
SWIDTH 1000 0
DWIDTH 12 0
BBX 10 10 1 -1
BITMAP
7000
1000
2000
7800
5000
5000
3000
3000
7800
C7C0
ENDCHAR
STARTCHAR 2F36
ENCODING 12086
SWIDTH 1000 0
DWIDTH 12 0
BBX 10 11 1 -1
BITMAP
1100
1100
1100
1100
FFC0
1100
2100
2100
2100
4100
8000
ENDCHAR
STARTCHAR 2F37
ENCODING 12087
SWIDTH 1000 0
DWIDTH 12 0
BBX 10 11 1 -1
BITMAP
0800
0900
0800
0BC0
FC00
0800
0400
0400
0240
0340
00C0
ENDCHAR
STARTCHAR 2F38
ENCODING 12088
SWIDTH 1000 0
DWIDTH 12 0
BBX 8 10 2 -1
BITMAP
FF
01
01
FF
80
FF
81
01
01
1E
ENDCHAR
STARTCHAR 2F39
ENCODING 12089
SWIDTH 1000 0
DWIDTH 12 0
BBX 8 8 2 1
BITMAP
FE
02
02
02
7E
02
02
FF
ENDCHAR
STARTCHAR 2F3A
ENCODING 12090
SWIDTH 1000 0
DWIDTH 12 0
BBX 8 10 2 -1
BITMAP
04
0C
10
E2
04
18
61
02
0C
70
ENDCHAR
STARTCHAR 2F3B
ENCODING 12091
SWIDTH 1000 0
DWIDTH 12 0
BBX 5 11 3 -1
BITMAP
08
10
20
C8
10
30
50
90
10
10
10
ENDCHAR
STARTCHAR 2F3C
ENCODING 12092
SWIDTH 1000 0
DWIDTH 12 0
BBX 10 9 1 1
BITMAP
0C00
0200
1000
5080
5080
9040
9140
9100
1F00
ENDCHAR
STARTCHAR 2F3D
ENCODING 12093
SWIDTH 1000 0
DWIDTH 12 0
BBX 10 11 1 -1
BITMAP
0800
0900
0800
FFC0
0800
0900
0600
0400
0A40
7140
80C0
ENDCHAR
STARTCHAR 2F3E
ENCODING 12094
SWIDTH 1000 0
DWIDTH 12 0
BBX 10 10 1 -1
BITMAP
FFC0
0000
7F80
4080
4080
7F80
4080
4000
4000
8000
ENDCHAR
STARTCHAR 2F3F
ENCODING 12095
SWIDTH 1000 0
DWIDTH 12 0
BBX 10 9 1 0
BITMAP
0F80
7400
0400
FF80
0400
FFC0
0400
0400
3C00
ENDCHAR
STARTCHAR 2F40
ENCODING 12096
SWIDTH 1000 0
DWIDTH 12 0
BBX 10 11 1 -1
BITMAP
0800
0800
FFC0
0800
7F80
2100
1200
0E00
0C00
73C0
8000
ENDCHAR
STARTCHAR 2F41
ENCODING 12097
SWIDTH 1000 0
DWIDTH 12 0
BBX 10 11 1 -1
BITMAP
0800
0800
0F80
0800
7F80
2100
1200
0E00
0E00
71C0
8000
ENDCHAR
STARTCHAR 2F42
ENCODING 12098
SWIDTH 1000 0
DWIDTH 12 0
BBX 10 10 1 0
BITMAP
0800
0800
FFC0
2100
2200
1200
0C00
0C00
1300
E1C0
ENDCHAR
STARTCHAR 2F43
ENCODING 12099
SWIDTH 1000 0
DWIDTH 12 0
BBX 10 11 1 -1
BITMAP
0200
3200
0A00
0200
2200
1200
02C0
FF00
0200
0200
0200
ENDCHAR
STARTCHAR 2F44
ENCODING 12100
SWIDTH 1000 0
DWIDTH 12 0
BBX 10 11 1 -1
BITMAP
0100
7E00
4000
4000
7FC0
4200
4200
4200
4200
4200
8200
ENDCHAR
STARTCHAR 2F45
ENCODING 12101
SWIDTH 1000 0
DWIDTH 12 0
BBX 10 11 1 -1
BITMAP
0800
0800
FFC0
1000
1000
1F80
1080
1080
3080
2100
C700
ENDCHAR
STARTCHAR 2F46
ENCODING 12102
SWIDTH 1000 0
DWIDTH 12 0
BBX 10 10 1 -1
BITMAP
7F80
0800
0800
FFC0
0800
0C00
0C00
1440
2440
C7C0
ENDCHAR
STARTCHAR 2F47
ENCODING 12103
SWIDTH 1000 0
DWIDTH 12 0
BBX 8 10 2 -1
BITMAP
FF
81
81
81
FF
81
81
81
FF
81
ENDCHAR
STARTCHAR 2F48
ENCODING 12104
SWIDTH 1000 0
DWIDTH 12 0
BBX 8 10 2 -1
BITMAP
FF
81
81
81
FD
81
81
81
FF
81
ENDCHAR
STARTCHAR 2F49
ENCODING 12105
SWIDTH 1000 0
DWIDTH 12 0
BBX 7 10 2 -1
BITMAP
7E
42
7E
42
42
7E
42
82
82
8E
ENDCHAR
STARTCHAR 2F4A
ENCODING 12106
SWIDTH 1000 0
DWIDTH 12 0
BBX 10 11 1 -1
BITMAP
0800
0800
0800
FFC0
0C00
1A00
1A00
2980
48C0
8800
0800
ENDCHAR
STARTCHAR 2F4B
ENCODING 12107
SWIDTH 1000 0
DWIDTH 12 0
BBX 10 11 1 -1
BITMAP
1000
2000
3FC0
6880
4880
8D00
0C00
1200
1100
60C0
8040
ENDCHAR
STARTCHAR 2F4C
ENCODING 12108
SWIDTH 1000 0
DWIDTH 12 0
BBX 10 9 1 0
BITMAP
0400
0400
2400
2780
2400
2400
2400
2400
FFC0
ENDCHAR
STARTCHAR 2F4D
ENCODING 12109
SWIDTH 1000 0
DWIDTH 12 0
BBX 10 10 1 -1
BITMAP
FFC0
1000
1F80
2100
5100
0A00
0400
0800
3000
4000
ENDCHAR
STARTCHAR 2F4E
ENCODING 12110
SWIDTH 1000 0
DWIDTH 12 0
BBX 10 10 1 -1
BITMAP
1E00
2200
2240
23C0
C000
7F80
1100
0A00
0E00
F1C0
ENDCHAR
STARTCHAR 2F4F
ENCODING 12111
SWIDTH 1000 0
DWIDTH 12 0
BBX 10 10 1 -1
BITMAP
7F80
4880
4880
FFC0
4880
4880
4880
7FC0
8080
0700
ENDCHAR
STARTCHAR 2F50
ENCODING 12112
SWIDTH 1000 0
DWIDTH 12 0
BBX 10 11 1 -1
BITMAP
0400
4400
4400
4480
7F00
4400
4400
4400
4440
7440
87C0
ENDCHAR
STARTCHAR 2F51
ENCODING 12113
SWIDTH 1000 0
DWIDTH 12 0
BBX 10 10 1 0
BITMAP
1F00
6800
0880
FF00
0800
1FC0
E800
0840
0840
0FC0
ENDCHAR
STARTCHAR 2F52
ENCODING 12114
SWIDTH 1000 0
DWIDTH 12 0
BBX 10 11 1 -1
BITMAP
0380
7C00
4400
4400
47C0
7C00
4400
4200
4240
5940
E0C0
ENDCHAR
STARTCHAR 2F53
ENCODING 12115
SWIDTH 1000 0
DWIDTH 12 0
BBX 10 11 1 -1
BITMAP
2000
3F80
4000
BF00
8000
FF00
0100
0100
0140
00C0
00C0
ENDCHAR
STARTCHAR 2F54
ENCODING 12116
SWIDTH 1000 0
DWIDTH 12 0
BBX 10 11 1 -1
BITMAP
0400
0400
0480
F580
1700
2600
2700
4580
44C0
8400
1800
ENDCHAR
STARTCHAR 2F55
ENCODING 12117
SWIDTH 1000 0
DWIDTH 12 0
BBX 10 11 1 -1
BITMAP
0800
0800
0800
2880
4C80
4D00
0C00
1200
1100
60C0
8000
ENDCHAR
STARTCHAR 2F56
ENCODING 12118
SWIDTH 1000 0
DWIDTH 12 0
BBX 10 10 1 -1
BITMAP
1F80
6900
4900
4900
4900
4900
4880
4880
8840
8800
ENDCHAR
STARTCHAR 2F57
ENCODING 12119
SWIDTH 1000 0
DWIDTH 12 0
BBX 10 10 1 -1
BITMAP
1200
2100
4080
E240
1200
0C00
0C00
1A00
61C0
8000
ENDCHAR
STARTCHAR 2F58
ENCODING 12120
SWIDTH 1000 0
DWIDTH 12 0
BBX 10 10 1 0
BITMAP
7100
0E00
0B00
F0C0
2100
1200
0C00
0E00
3180
C040
ENDCHAR
STARTCHAR 2F59
ENCODING 12121
SWIDTH 1000 0
DWIDTH 12 0
BBX 6 11 3 -2
BITMAP
04
84
84
FC
84
04
FC
44
44
44
84
ENDCHAR
STARTCHAR 2F5A
ENCODING 12122
SWIDTH 1000 0
DWIDTH 12 0
BBX 9 11 2 -1
BITMAP
4800
4800
4800
7F80
4000
4000
7E00
4200
8200
8200
8200
ENDCHAR
STARTCHAR 2F5B
ENCODING 12123
SWIDTH 1000 0
DWIDTH 12 0
BBX 10 10 1 -1
BITMAP
7F80
2200
2200
2200
3FC0
4600
0A00
3200
C200
0E00
ENDCHAR
STARTCHAR 2F5C
ENCODING 12124
SWIDTH 1000 0
DWIDTH 12 0
BBX 10 11 1 -1
BITMAP
0400
2400
2400
7F80
4400
0400
FFC0
0400
0400
0400
0400
ENDCHAR
STARTCHAR 2F5D
ENCODING 12125
SWIDTH 1000 0
DWIDTH 12 0
BBX 10 10 1 0
BITMAP
0900
0900
0800
FFC0
0C00
0C00
1200
1300
2180
C040
ENDCHAR
STARTCHAR 2F5E
ENCODING 12126
SWIDTH 1000 0
DWIDTH 12 0
BBX 10 11 1 -1
BITMAP
0800
0800
FFC0
0800
1100
7200
3600
1C00
0880
1FC0
E040
ENDCHAR
STARTCHAR 2F5F
ENCODING 12127
SWIDTH 1000 0
DWIDTH 12 0
BBX 10 9 1 0
BITMAP
FFC0
0800
0800
0800
7F80
0800
0900
0800
FFC0
ENDCHAR
STARTCHAR 2F60
ENCODING 12128
SWIDTH 1000 0
DWIDTH 12 0
BBX 10 10 1 -1
BITMAP
0F80
7900
4900
4900
4900
4880
4A80
4980
BF40
8100
ENDCHAR
STARTCHAR 2F61
ENCODING 12129
SWIDTH 1000 0
DWIDTH 12 0
BBX 10 9 1 0
BITMAP
FFC0
2000
3F00
2100
2900
2D00
2500
4540
F9C0
ENDCHAR
STARTCHAR 2F62
ENCODING 12130
SWIDTH 1000 0
DWIDTH 12 0
BBX 10 10 1 -1
BITMAP
2100
2100
FFC0
2100
2100
3F00
2100
2100
3F00
2100
ENDCHAR
STARTCHAR 2F63
ENCODING 12131
SWIDTH 1000 0
DWIDTH 12 0
BBX 10 10 1 0
BITMAP
0400
2400
4400
7FC0
C400
8400
7F80
0400
0400
FFC0
ENDCHAR
STARTCHAR 2F64
ENCODING 12132
SWIDTH 1000 0
DWIDTH 12 0
BBX 9 10 1 -1
BITMAP
7F80
4880
7F80
4880
4880
7F80
4880
4880
8880
8180
ENDCHAR
STARTCHAR 2F65
ENCODING 12133
SWIDTH 1000 0
DWIDTH 12 0
BBX 8 9 2 -1
BITMAP
FF
91
91
91
FF
91
91
91
FF
ENDCHAR
STARTCHAR 2F66
ENCODING 12134
SWIDTH 1000 0
DWIDTH 12 0
BBX 10 10 1 -1
BITMAP
FFC0
0880
0880
2800
2780
4800
6800
5800
8FC0
8000
ENDCHAR
STARTCHAR 2F67
ENCODING 12135
SWIDTH 1000 0
DWIDTH 12 0
BBX 10 11 1 -2
BITMAP
0400
0400
3FC0
C000
C000
4000
4000
C000
4000
4000
8000
ENDCHAR
STARTCHAR 2F68
ENCODING 12136
SWIDTH 1000 0
DWIDTH 12 0
BBX 10 6 1 1
BITMAP
3C00
0D00
4A40
3180
2080
C040
ENDCHAR
STARTCHAR 2F69
ENCODING 12137
SWIDTH 1000 0
DWIDTH 12 0
BBX 8 11 2 -1
BITMAP
10
10
FF
81
81
FF
81
81
81
FF
81
ENDCHAR
STARTCHAR 2F6A
ENCODING 12138
SWIDTH 1000 0
DWIDTH 12 0
BBX 10 11 1 -1
BITMAP
0400
0400
7FC0
4440
4480
7F80
5100
4900
4600
4F00
B0C0
ENDCHAR
STARTCHAR 2F6B
ENCODING 12139
SWIDTH 1000 0
DWIDTH 12 0
BBX 12 9 0 0
BITMAP
3FC0
2940
2940
2940
2940
2940
2940
2940
FFF0
ENDCHAR
STARTCHAR 2F6C
ENCODING 12140
SWIDTH 1000 0
DWIDTH 12 0
BBX 8 10 2 -1
BITMAP
FF
81
81
FF
81
FF
81
81
FF
81
ENDCHAR
STARTCHAR 2F6D
ENCODING 12141
SWIDTH 1000 0
DWIDTH 12 0
BBX 10 10 1 -1
BITMAP
7F80
0200
1C00
FFC0
0C80
1580
2500
4400
8400
3C00
ENDCHAR
STARTCHAR 2F6E
ENCODING 12142
SWIDTH 1000 0
DWIDTH 12 0
BBX 10 11 1 -1
BITMAP
2000
2000
3F80
4800
0800
FFC0
0C00
0A00
1300
2080
C040
ENDCHAR
STARTCHAR 2F6F
ENCODING 12143
SWIDTH 1000 0
DWIDTH 12 0
BBX 10 10 1 -1
BITMAP
FFC0
1000
1000
2000
3F80
6080
A080
2080
3F80
2080
ENDCHAR
STARTCHAR 2F70
ENCODING 12144
SWIDTH 1000 0
DWIDTH 12 0
BBX 10 10 1 -1
BITMAP
7F80
0000
0000
FFC0
0400
2500
4480
C440
8440
1800
ENDCHAR
STARTCHAR 2F71
ENCODING 12145
SWIDTH 1000 0
DWIDTH 12 0
BBX 10 11 1 -1
BITMAP
0800
0800
FFC0
8840
9040
9240
9240
BD40
8040
8040
8180
ENDCHAR
STARTCHAR 2F72
ENCODING 12146
SWIDTH 1000 0
DWIDTH 12 0
BBX 10 11 1 -1
BITMAP
0100
7E00
0800
0800
FFC0
0C00
1A00
2900
4880
8840
0800
ENDCHAR
STARTCHAR 2F73
ENCODING 12147
SWIDTH 1000 0
DWIDTH 12 0
BBX 10 10 1 -1
BITMAP
0800
0800
FFC0
8040
9240
1200
1300
2100
2080
40C0
ENDCHAR
STARTCHAR 2F74
ENCODING 12148
SWIDTH 1000 0
DWIDTH 12 0
BBX 10 10 1 0
BITMAP
0800
0800
FFC0
0100
2100
2100
2200
1200
0200
FFC0
ENDCHAR
STARTCHAR 2F75
ENCODING 12149
SWIDTH 1000 0
DWIDTH 12 0
BBX 10 10 1 0
BITMAP
4200
4200
7FC0
A500
AD00
2100
2100
2100
2100
2300
ENDCHAR
STARTCHAR 2F76
ENCODING 12150
SWIDTH 1000 0
DWIDTH 12 0
BBX 10 10 1 -1
BITMAP
0800
4880
2900
0800
FFC0
0C00
1A00
2980
C8C0
0800
ENDCHAR
STARTCHAR 2F77
ENCODING 12151
SWIDTH 1000 0
DWIDTH 12 0
BBX 10 10 1 0
BITMAP
0800
5300
3200
1C80
1BC0
EC40
2900
6880
C840
0800
ENDCHAR
STARTCHAR 2F78
ENCODING 12152
SWIDTH 1000 0
DWIDTH 12 0
BBX 10 10 1 -1
BITMAP
2000
3F80
4800
0800
FFC0
0800
4880
4880
7F80
4080
ENDCHAR
STARTCHAR 2F79
ENCODING 12153
SWIDTH 1000 0
DWIDTH 12 0
BBX 10 10 1 -1
BITMAP
FFC0
8040
9140
B540
B240
9340
AB40
A440
8040
81C0
ENDCHAR
STARTCHAR 2F7A
ENCODING 12154
SWIDTH 1000 0
DWIDTH 12 0
BBX 10 10 1 -1
BITMAP
2100
1200
FFC0
0800
0800
7F80
0800
FFC0
0800
0800
ENDCHAR
STARTCHAR 2F7B
ENCODING 12155
SWIDTH 1000 0
DWIDTH 12 0
BBX 10 10 1 -1
BITMAP
FFC0
0840
4A40
6940
0840
2940
4E40
8840
0840
79C0
ENDCHAR
STARTCHAR 2F7C
ENCODING 12156
SWIDTH 1000 0
DWIDTH 12 0
BBX 10 11 1 -1
BITMAP
0800
0880
7E80
0900
FFC0
0800
1180
7E00
9040
1040
1F80
ENDCHAR
STARTCHAR 2F7D
ENCODING 12157
SWIDTH 1000 0
DWIDTH 12 0
BBX 10 10 1 -1
BITMAP
FFC0
0800
0800
FF80
9280
9280
9280
9280
9280
9380
ENDCHAR
STARTCHAR 2F7E
ENCODING 12158
SWIDTH 1000 0
DWIDTH 12 0
BBX 10 10 1 -1
BITMAP
0800
FF80
0800
7F80
0800
FFC0
1600
3900
48C0
8000
ENDCHAR
STARTCHAR 2F7F
ENCODING 12159
SWIDTH 1000 0
DWIDTH 12 0
BBX 10 10 1 -1
BITMAP
FFC0
2100
3F00
2100
2100
3F00
2100
21C0
FF00
0100
ENDCHAR
STARTCHAR 2F80
ENCODING 12160
SWIDTH 1000 0
DWIDTH 12 0
BBX 10 10 1 -1
BITMAP
0800
7F80
0880
FFC0
0880
7F80
FF80
0800
FFC0
0800
ENDCHAR
STARTCHAR 2F81
ENCODING 12161
SWIDTH 1000 0
DWIDTH 12 0
BBX 10 10 1 0
BITMAP
0800
FFC0
8840
8E40
B140
8840
8E40
B140
8040
81C0
ENDCHAR
STARTCHAR 2F82
ENCODING 12162
SWIDTH 1000 0
DWIDTH 12 0
BBX 9 10 2 -1
BITMAP
FF80
9000
9000
FF00
8100
FF00
9100
9000
FF80
8000
ENDCHAR
STARTCHAR 2F83
ENCODING 12163
SWIDTH 1000 0
DWIDTH 12 0
BBX 8 11 2 -1
BITMAP
10
10
FF
81
FF
81
FF
81
81
FF
81
ENDCHAR
STARTCHAR 2F84
ENCODING 12164
SWIDTH 1000 0
DWIDTH 12 0
BBX 10 9 1 0
BITMAP
FFC0
1000
1100
7F80
0000
0800
7F80
0800
FFC0
ENDCHAR
STARTCHAR 2F85
ENCODING 12165
SWIDTH 1000 0
DWIDTH 12 0
BBX 8 10 2 -1
BITMAP
20
CF
81
81
EF
81
81
81
FF
81
ENDCHAR
STARTCHAR 2F86
ENCODING 12166
SWIDTH 1000 0
DWIDTH 12 0
BBX 10 10 1 -1
BITMAP
1F00
6800
0800
FFC0
0800
7F80
4080
4080
7F80
4080
ENDCHAR
STARTCHAR 2F87
ENCODING 12167
SWIDTH 1000 0
DWIDTH 12 0
BBX 10 11 1 -2
BITMAP
2080
4080
7880
4FC0
5480
D480
B480
17C0
2480
4080
C080
ENDCHAR
STARTCHAR 2F88
ENCODING 12168
SWIDTH 1000 0
DWIDTH 12 0
BBX 10 11 1 -1
BITMAP
0800
3F00
2900
2500
2500
FFC0
2100
2900
4900
4100
4300
ENDCHAR
STARTCHAR 2F89
ENCODING 12169
SWIDTH 1000 0
DWIDTH 12 0
BBX 10 10 1 -1
BITMAP
7F80
4080
7F80
4080
7F80
4400
4580
4200
5900
E0C0
ENDCHAR
STARTCHAR 2F8A
ENCODING 12170
SWIDTH 1000 0
DWIDTH 12 0
BBX 10 11 1 -1
BITMAP
1000
3E00
2400
7F80
C480
4480
7F80
4080
4040
4040
3FC0
ENDCHAR
STARTCHAR 2F8B
ENCODING 12171
SWIDTH 1000 0
DWIDTH 12 0
BBX 10 11 1 -1
BITMAP
2100
2100
AD40
AD40
AD40
AD40
FFC0
A540
4100
4100
8100
ENDCHAR
STARTCHAR 2F8C
ENCODING 12172
SWIDTH 1000 0
DWIDTH 12 0
BBX 10 10 1 -1
BITMAP
0800
0780
0800
7FC0
4040
4800
5F80
4800
4840
8FC0
ENDCHAR
STARTCHAR 2F8D
ENCODING 12173
SWIDTH 1000 0
DWIDTH 12 0
BBX 10 11 1 -1
BITMAP
0800
0800
7F80
4880
4880
4880
7F80
4800
0880
08C0
FF40
ENDCHAR
STARTCHAR 2F8E
ENCODING 12174
SWIDTH 1000 0
DWIDTH 12 0
BBX 12 10 0 0
BITMAP
0400
0400
3FC0
2940
2940
2940
2940
2940
2940
FFF0
ENDCHAR
STARTCHAR 2F8F
ENCODING 12175
SWIDTH 1000 0
DWIDTH 12 0
BBX 10 10 1 0
BITMAP
2FC0
4000
A000
3FC0
4100
C100
4100
4100
4100
4700
ENDCHAR
STARTCHAR 2F90
ENCODING 12176
SWIDTH 1000 0
DWIDTH 12 0
BBX 10 11 1 -1
BITMAP
0800
0800
FFC0
0C00
1480
2300
6200
A100
2480
3840
4000
ENDCHAR
STARTCHAR 2F91
ENCODING 12177
SWIDTH 1000 0
DWIDTH 12 0
BBX 10 9 1 0
BITMAP
FFC0
1200
1200
FFC0
9240
9240
9E40
9240
8040
ENDCHAR
STARTCHAR 2F92
ENCODING 12178
SWIDTH 1000 0
DWIDTH 12 0
BBX 10 10 1 -1
BITMAP
7F80
7F80
4080
7F80
4080
7F80
1200
1240
2240
C3C0
ENDCHAR
STARTCHAR 2F93
ENCODING 12179
SWIDTH 1000 0
DWIDTH 12 0
BBX 9 11 1 -1
BITMAP
1000
3E00
2400
7F80
C480
7F80
4480
7F80
4080
4080
8380
ENDCHAR
STARTCHAR 2F94
ENCODING 12180
SWIDTH 1000 0
DWIDTH 12 0
BBX 10 10 1 -1
BITMAP
3F00
FFC0
0000
3F00
3F00
0000
7F80
4080
7F80
4080
ENDCHAR
STARTCHAR 2F95
ENCODING 12181
SWIDTH 1000 0
DWIDTH 12 0
BBX 10 10 1 -1
BITMAP
0200
2100
4C80
0E00
1300
2080
FF40
4100
4100
3F00
ENDCHAR
STARTCHAR 2F96
ENCODING 12182
SWIDTH 1000 0
DWIDTH 12 0
BBX 10 9 1 0
BITMAP
FFC0
0000
7F80
4080
4080
7F80
2100
1200
FFC0
ENDCHAR
STARTCHAR 2F97
ENCODING 12183
SWIDTH 1000 0
DWIDTH 12 0
BBX 10 10 1 -1
BITMAP
FFC0
0C00
3400
CB80
1B00
6D00
9580
24C0
C440
1C00
ENDCHAR
STARTCHAR 2F98
ENCODING 12184
SWIDTH 1000 0
DWIDTH 12 0
BBX 7 11 2 -1
BITMAP
0C
30
CA
2C
38
CC
34
CA
12
62
0C
ENDCHAR
STARTCHAR 2F99
ENCODING 12185
SWIDTH 1000 0
DWIDTH 12 0
BBX 10 10 1 -1
BITMAP
7F80
4080
7F80
4080
7F80
4080
7F80
1200
6180
8040
ENDCHAR
STARTCHAR 2F9A
ENCODING 12186
SWIDTH 1000 0
DWIDTH 12 0
BBX 10 10 1 0
BITMAP
0800
7F80
0800
FFC0
1200
5300
5280
9240
3200
6E00
ENDCHAR
STARTCHAR 2F9B
ENCODING 12187
SWIDTH 1000 0
DWIDTH 12 0
BBX 10 9 1 1
BITMAP
0800
7F80
0800
FFC0
2800
4780
6800
7800
8FC0
ENDCHAR
STARTCHAR 2F9C
ENCODING 12188
SWIDTH 1000 0
DWIDTH 12 0
BBX 10 10 1 -2
BITMAP
7F80
4080
4080
7F80
4880
2800
4780
4800
6800
9FC0
ENDCHAR
STARTCHAR 2F9D
ENCODING 12189
SWIDTH 1000 0
DWIDTH 12 0
BBX 10 11 1 -1
BITMAP
0800
3F00
2100
3F00
2140
3F80
2180
FF00
0500
1900
6700
ENDCHAR
STARTCHAR 2F9E
ENCODING 12190
SWIDTH 1000 0
DWIDTH 12 0
BBX 10 11 1 -1
BITMAP
0800
FFC0
0800
7F80
4880
7F80
7F80
0800
FFC0
0800
0800
ENDCHAR
STARTCHAR 2F9F
ENCODING 12191
SWIDTH 1000 0
DWIDTH 12 0
BBX 10 9 1 0
BITMAP
0800
FFC0
2100
1200
FFC0
0800
FFC0
0800
0800
ENDCHAR
STARTCHAR 2FA0
ENCODING 12192
SWIDTH 1000 0
DWIDTH 12 0
BBX 10 10 1 -1
BITMAP
7FC0
4000
7F80
4000
7FC0
5480
5380
9300
9580
B840
ENDCHAR
STARTCHAR 2FA1
ENCODING 12193
SWIDTH 1000 0
DWIDTH 12 0
BBX 10 10 1 0
BITMAP
0780
7980
1E00
2380
FC00
0800
4780
4800
6800
9FC0
ENDCHAR
STARTCHAR 2FA2
ENCODING 12194
SWIDTH 1000 0
DWIDTH 12 0
BBX 10 10 1 -1
BITMAP
7F00
4100
7F00
FF80
8880
8880
FF80
8000
8040
FFC0
ENDCHAR
STARTCHAR 2FA3
ENCODING 12195
SWIDTH 1000 0
DWIDTH 12 0
BBX 10 10 1 -1
BITMAP
FFC0
1400
FF80
9480
A380
8080
FF80
8080
FF80
8000
ENDCHAR
STARTCHAR 2FA4
ENCODING 12196
SWIDTH 1000 0
DWIDTH 12 0
BBX 10 10 1 -1
BITMAP
7F80
0980
2900
2A00
FFC0
0C00
1B00
2980
C840
0800
ENDCHAR
STARTCHAR 2FA5
ENCODING 12197
SWIDTH 1000 0
DWIDTH 12 0
BBX 10 9 1 0
BITMAP
7F80
4880
7F80
4880
7F80
0800
7F80
0800
FFC0
ENDCHAR
STARTCHAR 2FA6
ENCODING 12198
SWIDTH 1000 0
DWIDTH 12 0
BBX 10 10 1 0
BITMAP
0800
0C00
1200
2100
7FC0
8800
FFC0
2980
2900
FFC0
ENDCHAR
STARTCHAR 2FA7
ENCODING 12199
SWIDTH 1000 0
DWIDTH 12 0
BBX 10 10 1 -1
BITMAP
3F80
3F80
2000
3F80
FFC0
2480
2500
2200
3980
C040
ENDCHAR
STARTCHAR 2FA8
ENCODING 12200
SWIDTH 1000 0
DWIDTH 12 0
BBX 10 10 1 -1
BITMAP
F7C0
F7C0
9440
F7C0
8440
8040
8040
8040
8040
81C0
ENDCHAR
STARTCHAR 2FA9
ENCODING 12201
SWIDTH 1000 0
DWIDTH 12 0
BBX 10 11 1 -1
BITMAP
0800
7F80
4080
7F80
4000
7F80
7F80
0800
FFC0
0800
0800
ENDCHAR
STARTCHAR 2FAA
ENCODING 12202
SWIDTH 1000 0
DWIDTH 12 0
BBX 10 11 1 -1
BITMAP
0800
7F80
0880
FFC0
0880
7F80
4480
2B00
3B00
C8C0
1800
ENDCHAR
STARTCHAR 2FAB
ENCODING 12203
SWIDTH 1000 0
DWIDTH 12 0
BBX 10 11 1 -1
BITMAP
2200
2400
7FC0
4400
C400
FF80
4400
7F80
4400
7FC0
4000
ENDCHAR
STARTCHAR 2FAC
ENCODING 12204
SWIDTH 1000 0
DWIDTH 12 0
BBX 10 10 1 -1
BITMAP
FFC0
0800
FFC0
8840
AB40
9940
AA40
9940
8840
81C0
ENDCHAR
STARTCHAR 2FAD
ENCODING 12205
SWIDTH 1000 0
DWIDTH 12 0
BBX 10 11 1 -1
BITMAP
0800
FFC0
0800
7F80
FFC0
7F80
4880
7F80
4080
4380
4000
ENDCHAR
STARTCHAR 2FAE
ENCODING 12206
SWIDTH 1000 0
DWIDTH 12 0
BBX 10 11 1 -1
BITMAP
1200
1200
F3C0
1200
1200
F3C0
1200
7BC0
9200
2200
4200
ENDCHAR
STARTCHAR 2FAF
ENCODING 12207
SWIDTH 1000 0
DWIDTH 12 0
BBX 10 10 1 -1
BITMAP
FFC0
0800
FFC0
9240
9E40
9240
9E40
9240
FFC0
8040
ENDCHAR
STARTCHAR 2FB0
ENCODING 12208
SWIDTH 1000 0
DWIDTH 12 0
BBX 10 10 1 -1
BITMAP
2200
FFC0
2200
1E00
0800
7F80
4880
7F80
FFC0
0800
ENDCHAR
STARTCHAR 2FB1
ENCODING 12209
SWIDTH 1000 0
DWIDTH 12 0
BBX 10 11 1 -1
BITMAP
0800
7F00
1100
FFC0
3F00
3F00
0400
3F80
FFC0
0400
0400
ENDCHAR
STARTCHAR 2FB2
ENCODING 12210
SWIDTH 1000 0
DWIDTH 12 0
BBX 10 10 1 0
BITMAP
1400
1400
F3C0
1400
1400
7380
1400
F3C0
1400
FFC0
ENDCHAR
STARTCHAR 2FB3
ENCODING 12211
SWIDTH 1000 0
DWIDTH 12 0
BBX 10 11 1 -1
BITMAP
0800
FFC0
2100
1200
FFC0
0000
7F80
7F80
4080
7F80
4080
ENDCHAR
STARTCHAR 2FB4
ENCODING 12212
SWIDTH 1000 0
DWIDTH 12 0
BBX 10 10 1 -1
BITMAP
FFC0
0800
7F80
7F80
4080
7F80
4080
7F80
3300
C0C0
ENDCHAR
STARTCHAR 2FB5
ENCODING 12213
SWIDTH 1000 0
DWIDTH 12 0
BBX 12 10 0 -1
BITMAP
3FC0
2040
2F40
3F40
3540
3F40
3440
4550
5FE0
80A0
ENDCHAR
STARTCHAR 2FB6
ENCODING 12214
SWIDTH 1000 0
DWIDTH 12 0
BBX 10 10 1 -1
BITMAP
FE00
1B80
E900
28C0
FE00
2980
2980
4900
49C0
88C0
ENDCHAR
STARTCHAR 2FB7
ENCODING 12215
SWIDTH 1000 0
DWIDTH 12 0
BBX 10 12 1 -2
BITMAP
0C00
1200
2900
7FC0
A100
3F00
2100
3F80
2580
2200
3D80
4040
ENDCHAR
STARTCHAR 2FB8
ENCODING 12216
SWIDTH 1000 0
DWIDTH 12 0
BBX 10 11 1 -1
BITMAP
2100
1200
FFC0
0800
7F80
4080
7F80
7F80
4080
7F80
4080
ENDCHAR
STARTCHAR 2FB9
ENCODING 12217
SWIDTH 1000 0
DWIDTH 12 0
BBX 10 10 1 -1
BITMAP
7F00
0800
FFC0
1A00
61C0
FF80
4080
7F80
7F80
4080
ENDCHAR
STARTCHAR 2FBA
ENCODING 12218
SWIDTH 1000 0
DWIDTH 12 0
BBX 10 10 1 -1
BITMAP
7F80
7F80
4400
7F80
4400
7FC0
0040
5540
9440
8380
ENDCHAR
STARTCHAR 2FBB
ENCODING 12219
SWIDTH 1000 0
DWIDTH 12 0
BBX 10 11 1 -1
BITMAP
3F00
2100
2F00
2900
FFC0
BF40
3F00
2100
3F00
2100
2300
ENDCHAR
STARTCHAR 2FBC
ENCODING 12220
SWIDTH 1000 0
DWIDTH 12 0
BBX 10 11 1 -1
BITMAP
0800
FFC0
0000
3F00
3F00
0000
FFC0
9E40
9E40
81C0
8000
ENDCHAR
STARTCHAR 2FBD
ENCODING 12221
SWIDTH 1000 0
DWIDTH 12 0
BBX 10 10 1 -1
BITMAP
7880
7900
8640
7880
8080
FF00
4240
4880
F700
0200
ENDCHAR
STARTCHAR 2FBE
ENCODING 12222
SWIDTH 1000 0
DWIDTH 12 0
BBX 10 10 1 -1
BITMAP
FFC0
BF40
A240
FFC0
8040
8040
8040
8040
8040
81C0
ENDCHAR
STARTCHAR 2FBF
ENCODING 12223
SWIDTH 1000 0
DWIDTH 12 0
BBX 9 11 2 -1
BITMAP
9300
E500
DB00
A700
C900
FF00
0000
9E00
E080
8080
FF00
ENDCHAR
STARTCHAR 2FC0
ENCODING 12224
SWIDTH 1000 0
DWIDTH 12 0
BBX 10 10 1 -1
BITMAP
FFC0
3F00
2100
3F00
FFC0
94C0
A340
BF40
8840
81C0
ENDCHAR
STARTCHAR 2FC1
ENCODING 12225
SWIDTH 1000 0
DWIDTH 12 0
BBX 10 12 1 -2
BITMAP
0800
7F80
4880
7F80
4880
4880
7F80
1500
1580
2740
67C0
8000
ENDCHAR
STARTCHAR 2FC2
ENCODING 12226
SWIDTH 1000 0
DWIDTH 12 0
BBX 10 11 1 -1
BITMAP
1000
3E00
2400
7F80
C480
7F80
4480
7F80
0080
52C0
9240
ENDCHAR
STARTCHAR 2FC3
ENCODING 12227
SWIDTH 1000 0
DWIDTH 12 0
BBX 10 11 1 -1
BITMAP
0800
7F80
4080
7F80
7F80
7FC0
4000
7FC0
6A40
A540
8180
ENDCHAR
STARTCHAR 2FC4
ENCODING 12228
SWIDTH 1000 0
DWIDTH 12 0
BBX 10 10 1 0
BITMAP
0800
0F80
0800
FFC0
8940
B240
AD40
9240
A540
FFC0
ENDCHAR
STARTCHAR 2FC5
ENCODING 12229
SWIDTH 1000 0
DWIDTH 12 0
BBX 10 11 1 -1
BITMAP
0400
7FC0
9200
7F80
9280
7F80
A200
BB80
A240
BE40
43C0
ENDCHAR
STARTCHAR 2FC6
ENCODING 12230
SWIDTH 1000 0
DWIDTH 12 0
BBX 10 11 1 -1
BITMAP
0800
FFC0
2900
6D00
9A80
2900
5FC0
B200
4C00
1B00
6080
ENDCHAR
STARTCHAR 2FC7
ENCODING 12231
SWIDTH 1000 0
DWIDTH 12 0
BBX 10 11 1 -1
BITMAP
0400
0400
FFC0
9100
FBC0
9100
9980
BB80
D540
D500
1100
ENDCHAR
STARTCHAR 2FC8
ENCODING 12232
SWIDTH 1000 0
DWIDTH 12 0
BBX 10 11 1 -1
BITMAP
1200
FFC0
1E00
0000
FFC0
7F80
4880
7F80
7F80
3300
C0C0
ENDCHAR
STARTCHAR 2FC9
ENCODING 12233
SWIDTH 1000 0
DWIDTH 12 0
BBX 10 11 1 -1
BITMAP
0F00
7800
FFC0
1A00
6980
9E40
2180
E940
1600
69C0
1800
ENDCHAR
STARTCHAR 2FCA
ENCODING 12234
SWIDTH 1000 0
DWIDTH 12 0
BBX 10 10 1 -1
BITMAP
7F80
7F80
4880
7F80
0800
FFC0
FFC0
4480
5240
8A40
ENDCHAR
STARTCHAR 2FCB
ENCODING 12235
SWIDTH 1000 0
DWIDTH 12 0
BBX 10 10 1 0
BITMAP
5480
3500
FFC0
2980
FFC0
4880
5A80
5A80
6A80
4180
ENDCHAR
STARTCHAR 2FCC
ENCODING 12236
SWIDTH 1000 0
DWIDTH 12 0
BBX 10 9 1 0
BITMAP
7F80
9480
7380
F3C0
9440
F3C0
F3C0
9400
1FC0
ENDCHAR
STARTCHAR 2FCD
ENCODING 12237
SWIDTH 1000 0
DWIDTH 12 0
BBX 10 11 1 -1
BITMAP
3F00
A180
BF80
BF80
BF80
8080
7380
F3C0
5280
5280
9280
ENDCHAR
STARTCHAR 2FCE
ENCODING 12238
SWIDTH 1000 0
DWIDTH 12 0
BBX 10 11 1 -1
BITMAP
2100
F900
27C0
F900
07C0
F240
F280
1180
5180
7AC0
8400
ENDCHAR
STARTCHAR 2FCF
ENCODING 12239
SWIDTH 1000 0
DWIDTH 12 0
BBX 10 10 1 0
BITMAP
F7C0
F7C0
8040
FFC0
4080
7B80
6880
5B80
48C0
FF40
ENDCHAR
STARTCHAR 2FD0
ENCODING 12240
SWIDTH 1000 0
DWIDTH 12 0
BBX 10 11 1 -1
BITMAP
0800
3F00
3F00
3F00
3F00
7F80
7F80
7F80
FFC0
2200
4200
ENDCHAR
STARTCHAR 2FD1
ENCODING 12241
SWIDTH 1000 0
DWIDTH 12 0
BBX 10 11 1 -1
BITMAP
0800
FFC0
1200
FD80
7A80
C0C0
7F80
4080
7F80
4080
C080
ENDCHAR
STARTCHAR 2FD2
ENCODING 12242
SWIDTH 1000 0
DWIDTH 12 0
BBX 10 10 1 0
BITMAP
0800
2780
2800
FFC0
9200
AD80
FF80
9280
AD80
FF80
ENDCHAR
STARTCHAR 2FD3
ENCODING 12243
SWIDTH 1000 0
DWIDTH 12 0
BBX 10 11 1 -1
BITMAP
2400
FBC0
5400
FBC0
03C0
FC00
FBC0
FBC0
8BC0
8C40
B3C0
ENDCHAR
STARTCHAR 2FD4
ENCODING 12244
SWIDTH 1000 0
DWIDTH 12 0
BBX 10 11 1 -1
BITMAP
1000
3E00
FFC0
7BC0
EC00
FFC0
EDC0
EDC0
FFC0
E840
0FC0
ENDCHAR
STARTCHAR 2FD5
ENCODING 12245
SWIDTH 1000 0
DWIDTH 12 0
BBX 10 11 1 -1
BITMAP
0C00
1300
7EC0
8000
6DC0
6DC0
7F80
9280
7F80
9280
9380
ENDCHAR
STARTCHAR 2FF0
ENCODING 12272
SWIDTH 1000 0
DWIDTH 12 0
BBX 10 7 1 0
BITMAP
0040
0000
8040
8040
0000
8000
8040
ENDCHAR
STARTCHAR 2FF1
ENCODING 12273
SWIDTH 1000 0
DWIDTH 12 0
BBX 10 8 1 0
BITMAP
8040
0000
8040
8040
8040
0000
8040
8040
ENDCHAR
STARTCHAR 2FF2
ENCODING 12274
SWIDTH 1000 0
DWIDTH 12 0
BBX 10 9 1 0
BITMAP
1040
0000
9240
9240
0000
9200
9240
0000
8200
ENDCHAR
STARTCHAR 2FF3
ENCODING 12275
SWIDTH 1000 0
DWIDTH 12 0
BBX 10 7 1 1
BITMAP
8040
8040
8040
0000
8040
8040
8040
ENDCHAR
STARTCHAR 2FF4
ENCODING 12276
SWIDTH 1000 0
DWIDTH 12 0
BBX 3 7 8 1
BITMAP
20
A0
A0
00
20
A0
20
ENDCHAR
STARTCHAR 2FF5
ENCODING 12277
SWIDTH 1000 0
DWIDTH 12 0
BBX 10 8 1 0
BITMAP
8040
0000
0000
8040
8040
0000
8040
8040
ENDCHAR
STARTCHAR 2FF6
ENCODING 12278
SWIDTH 1000 0
DWIDTH 12 0
BBX 1 8 10 1
BITMAP
80
80
00
00
80
00
00
80
ENDCHAR
STARTCHAR 2FF7
ENCODING 12279
SWIDTH 1000 0
DWIDTH 12 0
BBX 10 7 1 1
BITMAP
8040
8040
8000
0000
0000
0000
8040
ENDCHAR
STARTCHAR 2FF8
ENCODING 12280
SWIDTH 1000 0
DWIDTH 12 0
BBX 10 8 1 1
BITMAP
8040
0000
0000
8000
8040
8040
0000
8000
ENDCHAR
STARTCHAR 2FF9
ENCODING 12281
SWIDTH 1000 0
DWIDTH 12 0
BBX 10 5 1 3
BITMAP
8040
8040
0000
8040
8040
ENDCHAR
STARTCHAR 2FFA
ENCODING 12282
SWIDTH 1000 0
DWIDTH 12 0
BBX 1 8 10 0
BITMAP
80
00
80
80
80
00
00
80
ENDCHAR
STARTCHAR 2FFB
ENCODING 12283
SWIDTH 1000 0
DWIDTH 12 0
BBX 0 0 2 0
BITMAP
ENDCHAR
STARTCHAR 3000
ENCODING 12288
SWIDTH 1000 0
DWIDTH 12 0
BBX 0 0 0 0
BITMAP
ENDCHAR
STARTCHAR 3001
ENCODING 12289
SWIDTH 1000 0
DWIDTH 12 0
BBX 2 3 1 -1
BITMAP
80
40
40
ENDCHAR
STARTCHAR 3002
ENCODING 12290
SWIDTH 1000 0
DWIDTH 12 0
BBX 3 3 1 -1
BITMAP
C0
A0
C0
ENDCHAR
STARTCHAR 3003
ENCODING 12291
SWIDTH 1000 0
DWIDTH 12 0
BBX 5 5 3 2
BITMAP
28
48
48
50
90
ENDCHAR
STARTCHAR 3004
ENCODING 12292
SWIDTH 1000 0
DWIDTH 12 0
BBX 12 11 0 -1
BITMAP
1800
21C0
4120
8120
8320
8410
9C20
5020
6820
3840
0380
ENDCHAR
STARTCHAR 3005
ENCODING 12293
SWIDTH 1000 0
DWIDTH 12 0
BBX 8 8 2 0
BITMAP
10
20
3F
62
42
94
08
04
ENDCHAR
STARTCHAR 3006
ENCODING 12294
SWIDTH 1000 0
DWIDTH 12 0
BBX 8 9 2 0
BITMAP
01
03
32
5C
4C
96
A0
C0
80
ENDCHAR
STARTCHAR 3007
ENCODING 12295
SWIDTH 1000 0
DWIDTH 12 0
BBX 10 10 1 0
BITMAP
1E00
2100
4080
8040
8040
8040
8040
C0C0
6180
1F00
ENDCHAR
STARTCHAR 3008
ENCODING 12296
SWIDTH 1000 0
DWIDTH 12 0
BBX 5 11 6 -1
BITMAP
08
10
10
20
40
80
40
20
10
10
08
ENDCHAR
STARTCHAR 3009
ENCODING 12297
SWIDTH 1000 0
DWIDTH 12 0
BBX 5 11 1 -1
BITMAP
80
40
40
20
10
08
10
20
40
40
80
ENDCHAR
STARTCHAR 300A
ENCODING 12298
SWIDTH 1000 0
DWIDTH 12 0
BBX 5 11 6 -1
BITMAP
10
28
30
50
60
A0
60
50
30
28
10
ENDCHAR
STARTCHAR 300B
ENCODING 12299
SWIDTH 1000 0
DWIDTH 12 0
BBX 5 11 1 -1
BITMAP
40
A0
A0
50
30
28
30
50
A0
C0
40
ENDCHAR
STARTCHAR 300C
ENCODING 12300
SWIDTH 1000 0
DWIDTH 12 0
BBX 3 9 8 1
BITMAP
E0
80
80
80
80
80
80
80
80
ENDCHAR
STARTCHAR 300D
ENCODING 12301
SWIDTH 1000 0
DWIDTH 12 0
BBX 3 9 1 -1
BITMAP
20
20
20
20
20
20
20
20
E0
ENDCHAR
STARTCHAR 300E
ENCODING 12302
SWIDTH 1000 0
DWIDTH 12 0
BBX 4 9 7 1
BITMAP
F0
90
F0
C0
C0
C0
C0
C0
C0
ENDCHAR
STARTCHAR 300F
ENCODING 12303
SWIDTH 1000 0
DWIDTH 12 0
BBX 4 9 1 -1
BITMAP
30
30
30
30
30
30
F0
90
F0
ENDCHAR
STARTCHAR 3010
ENCODING 12304
SWIDTH 1000 0
DWIDTH 12 0
BBX 3 11 8 -1
BITMAP
E0
C0
C0
80
80
80
80
80
C0
C0
E0
ENDCHAR
STARTCHAR 3011
ENCODING 12305
SWIDTH 1000 0
DWIDTH 12 0
BBX 3 11 1 -1
BITMAP
E0
60
60
20
20
20
20
20
60
60
E0
ENDCHAR
STARTCHAR 3012
ENCODING 12306
SWIDTH 1000 0
DWIDTH 12 0
BBX 8 10 2 -1
BITMAP
FF
00
00
FF
18
18
18
18
18
18
ENDCHAR
STARTCHAR 3013
ENCODING 12307
SWIDTH 1000 0
DWIDTH 12 0
BBX 8 5 2 2
BITMAP
FF
00
00
FF
FF
ENDCHAR
STARTCHAR 3014
ENCODING 12308
SWIDTH 1000 0
DWIDTH 12 0
BBX 3 11 8 -1
BITMAP
20
C0
80
80
80
80
80
80
80
C0
20
ENDCHAR
STARTCHAR 3015
ENCODING 12309
SWIDTH 1000 0
DWIDTH 12 0
BBX 3 11 1 -1
BITMAP
80
60
20
20
20
20
20
20
20
60
80
ENDCHAR
STARTCHAR 3016
ENCODING 12310
SWIDTH 1000 0
DWIDTH 12 0
BBX 4 11 7 -1
BITMAP
F0
A0
A0
C0
C0
C0
C0
C0
A0
A0
F0
ENDCHAR
STARTCHAR 3017
ENCODING 12311
SWIDTH 1000 0
DWIDTH 12 0
BBX 4 11 1 -1
BITMAP
F0
90
50
50
50
50
50
50
50
90
F0
ENDCHAR
STARTCHAR 3018
ENCODING 12312
SWIDTH 1000 0
DWIDTH 12 0
BBX 4 11 7 -1
BITMAP
10
F0
B0
A0
A0
A0
A0
A0
90
50
30
ENDCHAR
STARTCHAR 3019
ENCODING 12313
SWIDTH 1000 0
DWIDTH 12 0
BBX 4 11 1 -1
BITMAP
80
F0
D0
50
50
50
50
50
90
A0
C0
ENDCHAR
STARTCHAR 301C
ENCODING 12316
SWIDTH 1000 0
DWIDTH 12 0
BBX 10 3 1 3
BITMAP
7000
8C40
0380
ENDCHAR
STARTCHAR 301D
ENCODING 12317
SWIDTH 1000 0
DWIDTH 12 0
BBX 3 5 8 5
BITMAP
80
60
80
40
20
ENDCHAR
STARTCHAR 301F
ENCODING 12319
SWIDTH 1000 0
DWIDTH 12 0
BBX 3 5 1 -1
BITMAP
80
40
20
C0
20
ENDCHAR
STARTCHAR 3020
ENCODING 12320
SWIDTH 1000 0
DWIDTH 12 0
BBX 10 8 1 0
BITMAP
7F80
0000
7F80
8C40
AD40
8C40
9280
7F00
ENDCHAR
STARTCHAR 3033
ENCODING 12339
SWIDTH 1000 0
DWIDTH 12 0
BBX 5 10 3 -1
BITMAP
08
18
10
10
20
20
40
40
80
80
ENDCHAR
STARTCHAR 3034
ENCODING 12340
SWIDTH 1000 0
DWIDTH 12 0
BBX 7 10 3 -1
BITMAP
08
18
10
10
24
2A
44
40
80
80
ENDCHAR
STARTCHAR 3035
ENCODING 12341
SWIDTH 1000 0
DWIDTH 12 0
BBX 5 11 3 -1
BITMAP
80
80
C0
40
60
20
30
10
18
08
08
ENDCHAR
STARTCHAR 3036
ENCODING 12342
SWIDTH 1000 0
DWIDTH 12 0
BBX 12 12 0 -2
BITMAP
0F00
30C0
4020
BFE0
8020
BFD0
8610
8620
8620
4620
30C0
0F00
ENDCHAR
STARTCHAR 303B
ENCODING 12347
SWIDTH 1000 0
DWIDTH 12 0
BBX 4 7 4 0
BITMAP
40
20
C0
80
40
30
C0
ENDCHAR
STARTCHAR 303C
ENCODING 12348
SWIDTH 1000 0
DWIDTH 12 0
BBX 10 11 1 -1
BITMAP
FFC0
80C0
8140
8240
8640
8C40
9840
9040
A040
C040
FFC0
ENDCHAR
STARTCHAR 303D
ENCODING 12349
SWIDTH 1000 0
DWIDTH 12 0
BBX 9 11 2 -1
BITMAP
C000
5800
2800
0400
0400
0400
0200
0200
0100
0100
0080
ENDCHAR
STARTCHAR 3041
ENCODING 12353
SWIDTH 1000 0
DWIDTH 12 0
BBX 8 8 2 -1
BITMAP
20
7C
24
3A
69
91
E2
04
ENDCHAR
STARTCHAR 3042
ENCODING 12354
SWIDTH 1000 0
DWIDTH 12 0
BBX 10 10 1 -1
BITMAP
1000
7F00
1000
1F00
3480
5440
9840
9080
F180
0200
ENDCHAR
STARTCHAR 3043
ENCODING 12355
SWIDTH 1000 0
DWIDTH 12 0
BBX 7 6 3 0
BITMAP
88
84
84
82
A0
60
ENDCHAR
STARTCHAR 3044
ENCODING 12356
SWIDTH 1000 0
DWIDTH 12 0
BBX 9 8 2 0
BITMAP
8000
8200
8100
8100
8080
9000
5000
6000
ENDCHAR
STARTCHAR 3045
ENCODING 12357
SWIDTH 1000 0
DWIDTH 12 0
BBX 6 9 3 -1
BITMAP
20
18
00
F8
04
04
08
10
20
ENDCHAR
STARTCHAR 3046
ENCODING 12358
SWIDTH 1000 0
DWIDTH 12 0
BBX 7 10 2 -1
BITMAP
20
1C
00
3C
C2
02
02
02
04
18
ENDCHAR
STARTCHAR 3047
ENCODING 12359
SWIDTH 1000 0
DWIDTH 12 0
BBX 7 7 3 1
BITMAP
30
00
F8
10
30
50
8E
ENDCHAR
STARTCHAR 3048
ENCODING 12360
SWIDTH 1000 0
DWIDTH 12 0
BBX 8 9 2 0
BITMAP
38
00
0C
7C
08
10
38
68
87
ENDCHAR
STARTCHAR 3049
ENCODING 12361
SWIDTH 1000 0
DWIDTH 12 0
BBX 7 7 2 0
BITMAP
20
7A
20
3E
62
A2
6E
ENDCHAR
STARTCHAR 304A
ENCODING 12362
SWIDTH 1000 0
DWIDTH 12 0
BBX 10 9 1 0
BITMAP
1000
1100
78C0
1000
1F00
3080
5080
9080
7700
ENDCHAR
STARTCHAR 304B
ENCODING 12363
SWIDTH 1000 0
DWIDTH 12 0
BBX 10 9 1 0
BITMAP
1000
1100
3C80
D680
2240
2240
4400
4400
DC00
ENDCHAR
STARTCHAR 304C
ENCODING 12364
SWIDTH 1000 0
DWIDTH 12 0
BBX 11 10 1 0
BITMAP
0040
10A0
1140
3D00
D680
2240
2200
4400
4400
DC00
ENDCHAR
STARTCHAR 304D
ENCODING 12365
SWIDTH 1000 0
DWIDTH 12 0
BBX 8 9 2 1
BITMAP
12
FC
0B
FC
04
7E
42
40
3C
ENDCHAR
STARTCHAR 304E
ENCODING 12366
SWIDTH 1000 0
DWIDTH 12 0
BBX 10 10 2 0
BITMAP
0080
1540
F800
0B00
FC00
0400
7A00
8600
C000
7C00
ENDCHAR
STARTCHAR 304F
ENCODING 12367
SWIDTH 1000 0
DWIDTH 12 0
BBX 5 10 3 0
BITMAP
18
10
20
C0
80
40
20
10
08
08
ENDCHAR
STARTCHAR 3050
ENCODING 12368
SWIDTH 1000 0
DWIDTH 12 0
BBX 8 9 3 0
BITMAP
12
35
62
80
80
40
20
10
18
ENDCHAR
STARTCHAR 3051
ENCODING 12369
SWIDTH 1000 0
DWIDTH 12 0
BBX 9 10 2 -1
BITMAP
8200
8200
9F80
8200
8200
C200
C200
8200
8C00
0800
ENDCHAR
STARTCHAR 3052
ENCODING 12370
SWIDTH 1000 0
DWIDTH 12 0
BBX 10 11 2 -1
BITMAP
0180
8340
8200
9F80
8200
8200
C200
C200
8400
8C00
0800
ENDCHAR
STARTCHAR 3053
ENCODING 12371
SWIDTH 1000 0
DWIDTH 12 0
BBX 8 8 2 0
BITMAP
7E
08
10
00
40
80
C0
7F
ENDCHAR
STARTCHAR 3054
ENCODING 12372
SWIDTH 1000 0
DWIDTH 12 0
BBX 10 10 2 0
BITMAP
0080
0140
7E80
1800
0000
0000
8000
8000
8000
7F00
ENDCHAR
STARTCHAR 3055
ENCODING 12373
SWIDTH 1000 0
DWIDTH 12 0
BBX 8 9 2 0
BITMAP
10
0B
FC
04
04
7E
80
C0
7C
ENDCHAR
STARTCHAR 3056
ENCODING 12374
SWIDTH 1000 0
DWIDTH 12 0
BBX 10 10 2 0
BITMAP
0080
1140
1600
F800
0800
0400
7E00
8200
8000
7C00
ENDCHAR
STARTCHAR 3057
ENCODING 12375
SWIDTH 1000 0
DWIDTH 12 0
BBX 7 9 3 0
BITMAP
80
80
80
80
80
80
82
84
78
ENDCHAR
STARTCHAR 3058
ENCODING 12376
SWIDTH 1000 0
DWIDTH 12 0
BBX 7 9 3 0
BITMAP
82
86
84
80
80
80
82
84
78
ENDCHAR
STARTCHAR 3059
ENCODING 12377
SWIDTH 1000 0
DWIDTH 12 0
BBX 9 11 2 -1
BITMAP
0800
0800
FF80
0800
3800
2800
2800
3800
0800
1000
2000
ENDCHAR
STARTCHAR 305A
ENCODING 12378
SWIDTH 1000 0
DWIDTH 12 0
BBX 9 11 2 -1
BITMAP
0A80
0900
FF80
0800
3800
2800
2800
3800
0800
1000
2000
ENDCHAR
STARTCHAR 305B
ENCODING 12379
SWIDTH 1000 0
DWIDTH 12 0
BBX 10 9 1 0
BITMAP
2200
2200
2200
FFC0
2200
2200
2600
2000
1F80
ENDCHAR
STARTCHAR 305C
ENCODING 12380
SWIDTH 1000 0
DWIDTH 12 0
BBX 11 10 1 0
BITMAP
0040
02A0
2200
2200
FFC0
2200
2200
2600
2000
1F80
ENDCHAR
STARTCHAR 305D
ENCODING 12381
SWIDTH 1000 0
DWIDTH 12 0
BBX 9 9 1 0
BITMAP
3F00
0200
0C00
1380
FC00
0800
0800
0800
0F00
ENDCHAR
STARTCHAR 305E
ENCODING 12382
SWIDTH 1000 0
DWIDTH 12 0
BBX 11 9 1 0
BITMAP
3FC0
06A0
0800
1380
FC00
0800
1000
0800
0F00
ENDCHAR
STARTCHAR 305F
ENCODING 12383
SWIDTH 1000 0
DWIDTH 12 0
BBX 10 9 1 0
BITMAP
1000
1400
F800
2380
2400
2000
4000
4800
87C0
ENDCHAR
STARTCHAR 3060
ENCODING 12384
SWIDTH 1000 0
DWIDTH 12 0
BBX 10 10 1 0
BITMAP
0080
1140
1480
F800
2180
2600
2000
4000
4800
C7C0
ENDCHAR
STARTCHAR 3061
ENCODING 12385
SWIDTH 1000 0
DWIDTH 12 0
BBX 9 10 1 0
BITMAP
1000
1000
FF00
1000
2000
2F00
3080
2080
0080
1F00
ENDCHAR
STARTCHAR 3062
ENCODING 12386
SWIDTH 1000 0
DWIDTH 12 0
BBX 11 10 1 0
BITMAP
1040
10A0
FF00
1000
2000
2F00
3080
2080
0080
1F00
ENDCHAR
STARTCHAR 3063
ENCODING 12387
SWIDTH 1000 0
DWIDTH 12 0
BBX 8 6 2 0
BITMAP
3E
C2
01
01
02
3C
ENDCHAR
STARTCHAR 3064
ENCODING 12388
SWIDTH 1000 0
DWIDTH 12 0
BBX 9 7 1 1
BITMAP
1F00
E080
0080
0080
0080
0180
1E00
ENDCHAR
STARTCHAR 3065
ENCODING 12389
SWIDTH 1000 0
DWIDTH 12 0
BBX 11 10 1 0
BITMAP
0040
00A0
1F00
E080
0080
0080
0080
0180
0700
1800
ENDCHAR
STARTCHAR 3066
ENCODING 12390
SWIDTH 1000 0
DWIDTH 12 0
BBX 9 8 1 1
BITMAP
FF80
0400
0800
1000
1000
1000
0800
0700
ENDCHAR
STARTCHAR 3067
ENCODING 12391
SWIDTH 1000 0
DWIDTH 12 0
BBX 10 8 1 1
BITMAP
FF80
0480
0940
1080
1000
1000
0800
0700
ENDCHAR
STARTCHAR 3068
ENCODING 12392
SWIDTH 1000 0
DWIDTH 12 0
BBX 8 9 2 0
BITMAP
20
20
22
1C
30
40
80
C0
7F
ENDCHAR
STARTCHAR 3069
ENCODING 12393
SWIDTH 1000 0
DWIDTH 12 0
BBX 9 9 2 1
BITMAP
2280
2100
2200
1C00
3000
4000
8000
C000
7F00
ENDCHAR
STARTCHAR 306A
ENCODING 12394
SWIDTH 1000 0
DWIDTH 12 0
BBX 10 10 1 0
BITMAP
1000
1000
1D00
6080
2240
2200
4200
CE00
1380
0E00
ENDCHAR
STARTCHAR 306B
ENCODING 12395
SWIDTH 1000 0
DWIDTH 12 0
BBX 9 9 2 0
BITMAP
8000
8F00
8000
8000
8000
C000
D000
9000
8F80
ENDCHAR
STARTCHAR 306C
ENCODING 12396
SWIDTH 1000 0
DWIDTH 12 0
BBX 10 9 1 0
BITMAP
0400
4400
5F00
6880
6840
A840
9780
A4C0
C700
ENDCHAR
STARTCHAR 306D
ENCODING 12397
SWIDTH 1000 0
DWIDTH 12 0
BBX 10 9 1 0
BITMAP
2000
2700
F880
3080
2040
6040
E780
A8C0
2700
ENDCHAR
STARTCHAR 306E
ENCODING 12398
SWIDTH 1000 0
DWIDTH 12 0
BBX 10 8 1 0
BITMAP
1F00
6480
4840
8840
8840
90C0
5180
6700
ENDCHAR
STARTCHAR 306F
ENCODING 12399
SWIDTH 1000 0
DWIDTH 12 0
BBX 10 9 1 0
BITMAP
4100
4100
4FC0
4100
8100
8100
CF00
51C0
4E00
ENDCHAR
STARTCHAR 3070
ENCODING 12400
SWIDTH 1000 0
DWIDTH 12 0
BBX 10 10 1 0
BITMAP
00C0
4080
4200
4F80
8200
8100
8100
CF00
51C0
4E40
ENDCHAR
STARTCHAR 3071
ENCODING 12401
SWIDTH 1000 0
DWIDTH 12 0
BBX 11 10 1 0
BITMAP
00E0
40E0
4200
4F80
8200
8100
8100
AF00
5180
4E40
ENDCHAR
STARTCHAR 3072
ENCODING 12402
SWIDTH 1000 0
DWIDTH 12 0
BBX 10 8 1 0
BITMAP
3900
E300
2180
4140
4140
4100
6200
3C00
ENDCHAR
STARTCHAR 3073
ENCODING 12403
SWIDTH 1000 0
DWIDTH 12 0
BBX 10 10 1 0
BITMAP
0040
0080
3300
E100
2180
4140
4140
4200
6200
3C00
ENDCHAR
STARTCHAR 3074
ENCODING 12404
SWIDTH 1000 0
DWIDTH 12 0
BBX 11 10 1 0
BITMAP
00C0
00A0
33C0
E100
2180
4140
4140
4200
6200
3C00
ENDCHAR
STARTCHAR 3075
ENCODING 12405
SWIDTH 1000 0
DWIDTH 12 0
BBX 10 9 1 0
BITMAP
1800
0600
0000
0800
4900
4480
4240
8240
1C00
ENDCHAR
STARTCHAR 3076
ENCODING 12406
SWIDTH 1000 0
DWIDTH 12 0
BBX 10 9 1 1
BITMAP
1840
0680
0000
0800
4900
4480
4240
8240
1C00
ENDCHAR
STARTCHAR 3077
ENCODING 12407
SWIDTH 1000 0
DWIDTH 12 0
BBX 10 9 1 0
BITMAP
18C0
06C0
0000
0800
4900
4480
4240
8240
1C00
ENDCHAR
STARTCHAR 3078
ENCODING 12408
SWIDTH 1000 0
DWIDTH 12 0
BBX 10 5 1 2
BITMAP
1800
2400
4200
8180
00C0
ENDCHAR
STARTCHAR 3079
ENCODING 12409
SWIDTH 1000 0
DWIDTH 12 0
BBX 10 7 1 2
BITMAP
0080
0140
1800
2400
4200
8100
00C0
ENDCHAR
STARTCHAR 307A
ENCODING 12410
SWIDTH 1000 0
DWIDTH 12 0
BBX 10 7 1 2
BITMAP
0180
0280
1980
2400
4200
8100
00C0
ENDCHAR
STARTCHAR 307B
ENCODING 12411
SWIDTH 1000 0
DWIDTH 12 0
BBX 10 9 1 0
BITMAP
4F80
4200
4200
9FC0
8200
8100
CF00
51C0
4E00
ENDCHAR
STARTCHAR 307C
ENCODING 12412
SWIDTH 1000 0
DWIDTH 12 0
BBX 11 10 1 0
BITMAP
00C0
5FA0
4200
8200
9F80
8200
8200
CE00
D3C0
4E00
ENDCHAR
STARTCHAR 307D
ENCODING 12413
SWIDTH 1000 0
DWIDTH 12 0
BBX 11 10 1 0
BITMAP
0040
5FA0
4240
8200
9F80
8200
8200
CE00
D3C0
4E00
ENDCHAR
STARTCHAR 307E
ENCODING 12414
SWIDTH 1000 0
DWIDTH 12 0
BBX 8 9 2 0
BITMAP
08
FF
08
0A
7C
08
78
8E
79
ENDCHAR
STARTCHAR 307F
ENCODING 12415
SWIDTH 1000 0
DWIDTH 12 0
BBX 10 9 1 0
BITMAP
0C00
3400
0800
0880
3E80
5180
9140
A300
4600
ENDCHAR
STARTCHAR 3080
ENCODING 12416
SWIDTH 1000 0
DWIDTH 12 0
BBX 10 9 1 0
BITMAP
2000
FC00
2080
2040
6000
A100
E080
2180
3F00
ENDCHAR
STARTCHAR 3081
ENCODING 12417
SWIDTH 1000 0
DWIDTH 12 0
BBX 10 9 1 0
BITMAP
0400
4400
5F00
6480
6840
9840
9040
A880
6700
ENDCHAR
STARTCHAR 3082
ENCODING 12418
SWIDTH 1000 0
DWIDTH 12 0
BBX 8 9 2 0
BITMAP
20
20
FC
20
EC
31
21
21
1E
ENDCHAR
STARTCHAR 3083
ENCODING 12419
SWIDTH 1000 0
DWIDTH 12 0
BBX 8 8 2 0
BITMAP
10
48
4E
71
A1
1E
10
10
ENDCHAR
STARTCHAR 3084
ENCODING 12420
SWIDTH 1000 0
DWIDTH 12 0
BBX 10 10 1 -1
BITMAP
0800
0400
2000
2F80
7040
9040
1380
0800
0800
0800
ENDCHAR
STARTCHAR 3085
ENCODING 12421
SWIDTH 1000 0
DWIDTH 12 0
BBX 8 8 2 -1
BITMAP
88
9E
A9
C9
BB
8E
08
10
ENDCHAR
STARTCHAR 3086
ENCODING 12422
SWIDTH 1000 0
DWIDTH 12 0
BBX 10 10 1 -1
BITMAP
4400
4700
9A80
A240
C240
5280
4D80
4600
0C00
0800
ENDCHAR
STARTCHAR 3087
ENCODING 12423
SWIDTH 1000 0
DWIDTH 12 0
BBX 6 7 3 0
BITMAP
20
24
38
20
20
F8
E4
ENDCHAR
STARTCHAR 3088
ENCODING 12424
SWIDTH 1000 0
DWIDTH 12 0
BBX 8 9 2 0
BITMAP
10
10
1E
10
10
10
F8
96
F1
ENDCHAR
STARTCHAR 3089
ENCODING 12425
SWIDTH 1000 0
DWIDTH 12 0
BBX 7 10 3 0
BITMAP
40
30
80
80
80
BC
C2
82
02
3C
ENDCHAR
STARTCHAR 308A
ENCODING 12426
SWIDTH 1000 0
DWIDTH 12 0
BBX 6 9 3 -1
BITMAP
84
84
84
C4
C4
84
04
08
30
ENDCHAR
STARTCHAR 308B
ENCODING 12427
SWIDTH 1000 0
DWIDTH 12 0
BBX 8 9 2 0
BITMAP
7C
08
18
30
7E
C1
B1
49
3E
ENDCHAR
STARTCHAR 308C
ENCODING 12428
SWIDTH 1000 0
DWIDTH 12 0
BBX 10 9 1 0
BITMAP
2000
2700
F900
3100
2100
6100
6100
A140
2180
ENDCHAR
STARTCHAR 308D
ENCODING 12429
SWIDTH 1000 0
DWIDTH 12 0
BBX 8 9 2 0
BITMAP
7C
0C
08
10
3E
61
81
03
3E
ENDCHAR
STARTCHAR 308E
ENCODING 12430
SWIDTH 1000 0
DWIDTH 12 0
BBX 8 7 2 0
BITMAP
20
E0
3E
21
61
A1
2E
ENDCHAR
STARTCHAR 308F
ENCODING 12431
SWIDTH 1000 0
DWIDTH 12 0
BBX 10 9 1 0
BITMAP
2000
2000
F780
28C0
3040
6040
6040
A080
2700
ENDCHAR
STARTCHAR 3090
ENCODING 12432
SWIDTH 1000 0
DWIDTH 12 0
BBX 10 9 1 0
BITMAP
0C00
3400
0400
1F00
2880
4840
9040
A780
6700
ENDCHAR
STARTCHAR 3091
ENCODING 12433
SWIDTH 1000 0
DWIDTH 12 0
BBX 10 9 1 -1
BITMAP
3E00
0C00
1F00
2180
5D00
1A00
1400
7B80
CC40
ENDCHAR
STARTCHAR 3092
ENCODING 12434
SWIDTH 1000 0
DWIDTH 12 0
BBX 8 10 2 0
BITMAP
10
10
FC
20
78
4F
98
28
20
3F
ENDCHAR
STARTCHAR 3093
ENCODING 12435
SWIDTH 1000 0
DWIDTH 12 0
BBX 10 9 1 0
BITMAP
0800
0800
1000
1000
2C00
3400
6440
4480
8300
ENDCHAR
STARTCHAR 3094
ENCODING 12436
SWIDTH 1000 0
DWIDTH 12 0
BBX 9 10 2 -1
BITMAP
2000
1980
0100
3C00
C200
0200
0200
0200
0400
1800
ENDCHAR
STARTCHAR 3095
ENCODING 12437
SWIDTH 1000 0
DWIDTH 12 0
BBX 8 8 2 0
BITMAP
20
20
3A
EA
49
48
48
B0
ENDCHAR
STARTCHAR 3096
ENCODING 12438
SWIDTH 1000 0
DWIDTH 12 0
BBX 7 7 3 -1
BITMAP
88
8A
BC
88
C8
88
98
ENDCHAR
STARTCHAR 3099
ENCODING 12441
SWIDTH 1000 0
DWIDTH 12 0
BBX 3 3 8 7
BITMAP
40
A0
40
ENDCHAR
STARTCHAR 309A
ENCODING 12442
SWIDTH 1000 0
DWIDTH 12 0
BBX 3 3 8 7
BITMAP
60
A0
60
ENDCHAR
STARTCHAR 309B
ENCODING 12443
SWIDTH 1000 0
DWIDTH 12 0
BBX 3 3 0 7
BITMAP
40
A0
40
ENDCHAR
STARTCHAR 309C
ENCODING 12444
SWIDTH 1000 0
DWIDTH 12 0
BBX 2 3 1 7
BITMAP
C0
C0
C0
ENDCHAR
STARTCHAR 309D
ENCODING 12445
SWIDTH 1000 0
DWIDTH 12 0
BBX 4 6 4 2
BITMAP
80
60
10
10
30
40
ENDCHAR
STARTCHAR 309E
ENCODING 12446
SWIDTH 1000 0
DWIDTH 12 0
BBX 5 8 4 1
BITMAP
08
10
80
60
10
10
30
40
ENDCHAR
STARTCHAR 309F
ENCODING 12447
SWIDTH 1000 0
DWIDTH 12 0
BBX 6 11 3 -1
BITMAP
20
20
3C
40
40
78
C4
04
04
C8
70
ENDCHAR
STARTCHAR 30A0
ENCODING 12448
SWIDTH 1000 0
DWIDTH 12 0
BBX 6 3 3 3
BITMAP
FC
00
FC
ENDCHAR
STARTCHAR 30A1
ENCODING 12449
SWIDTH 1000 0
DWIDTH 12 0
BBX 7 7 2 0
BITMAP
FE
02
12
14
10
30
60
ENDCHAR
STARTCHAR 30A2
ENCODING 12450
SWIDTH 1000 0
DWIDTH 12 0
BBX 9 9 2 0
BITMAP
0F00
F180
1100
1200
1400
1000
1000
2000
C000
ENDCHAR
STARTCHAR 30A3
ENCODING 12451
SWIDTH 1000 0
DWIDTH 12 0
BBX 5 7 3 0
BITMAP
08
10
30
D0
10
10
10
ENDCHAR
STARTCHAR 30A4
ENCODING 12452
SWIDTH 1000 0
DWIDTH 12 0
BBX 7 9 2 0
BITMAP
02
04
08
38
68
88
08
08
08
ENDCHAR
STARTCHAR 30A5
ENCODING 12453
SWIDTH 1000 0
DWIDTH 12 0
BBX 6 8 3 0
BITMAP
20
20
FC
84
84
08
08
30
ENDCHAR
STARTCHAR 30A6
ENCODING 12454
SWIDTH 1000 0
DWIDTH 12 0
BBX 8 10 2 -1
BITMAP
10
10
FF
81
81
82
02
04
08
30
ENDCHAR
STARTCHAR 30A7
ENCODING 12455
SWIDTH 1000 0
DWIDTH 12 0
BBX 8 5 2 1
BITMAP
7E
10
10
10
FF
ENDCHAR
STARTCHAR 30A8
ENCODING 12456
SWIDTH 1000 0
DWIDTH 12 0
BBX 10 7 1 1
BITMAP
7F80
0800
0800
0800
0800
0800
FFC0
ENDCHAR
STARTCHAR 30A9
ENCODING 12457
SWIDTH 1000 0
DWIDTH 12 0
BBX 8 7 2 1
BITMAP
08
FF
08
18
28
48
18
ENDCHAR
STARTCHAR 30AA
ENCODING 12458
SWIDTH 1000 0
DWIDTH 12 0
BBX 10 9 1 0
BITMAP
0200
0200
7FC0
0600
0A00
1200
2200
C200
0E00
ENDCHAR
STARTCHAR 30AB
ENCODING 12459
SWIDTH 1000 0
DWIDTH 12 0
BBX 8 9 2 0
BITMAP
10
10
FF
11
11
21
21
41
8E
ENDCHAR
STARTCHAR 30AC
ENCODING 12460
SWIDTH 1000 0
DWIDTH 12 0
BBX 9 10 2 0
BITMAP
0080
1100
1000
FF00
1100
1100
2100
2100
4100
8E00
ENDCHAR
STARTCHAR 30AD
ENCODING 12461
SWIDTH 1000 0
DWIDTH 12 0
BBX 10 9 1 0
BITMAP
0800
0900
7E00
0800
09C0
FE00
0400
0400
0400
ENDCHAR
STARTCHAR 30AE
ENCODING 12462
SWIDTH 1000 0
DWIDTH 12 0
BBX 10 10 1 0
BITMAP
0040
0880
0900
7E00
0800
09C0
FE00
0400
0400
0400
ENDCHAR
STARTCHAR 30AF
ENCODING 12463
SWIDTH 1000 0
DWIDTH 12 0
BBX 8 10 2 0
BITMAP
10
10
1F
21
42
82
04
0C
18
60
ENDCHAR
STARTCHAR 30B0
ENCODING 12464
SWIDTH 1000 0
DWIDTH 12 0
BBX 10 11 2 0
BITMAP
0080
0140
1080
3F00
2200
4200
8200
0400
0800
1000
6000
ENDCHAR
STARTCHAR 30B1
ENCODING 12465
SWIDTH 1000 0
DWIDTH 12 0
BBX 10 9 1 -1
BITMAP
1000
2000
3FC0
2200
4200
8600
0400
0C00
1800
ENDCHAR
STARTCHAR 30B2
ENCODING 12466
SWIDTH 1000 0
DWIDTH 12 0
BBX 9 10 2 -1
BITMAP
0080
2100
2000
7F80
4400
8400
0400
0800
1800
3000
ENDCHAR
STARTCHAR 30B3
ENCODING 12467
SWIDTH 1000 0
DWIDTH 12 0
BBX 8 8 2 0
BITMAP
FF
01
01
01
01
01
FF
01
ENDCHAR
STARTCHAR 30B4
ENCODING 12468
SWIDTH 1000 0
DWIDTH 12 0
BBX 10 11 2 0
BITMAP
0080
0140
0080
FE00
0200
0200
0200
0200
0200
FE00
0200
ENDCHAR
STARTCHAR 30B5
ENCODING 12469
SWIDTH 1000 0
DWIDTH 12 0
BBX 10 10 1 0
BITMAP
0200
2200
2200
FFC0
2200
2200
2200
0200
0400
0800
ENDCHAR
STARTCHAR 30B6
ENCODING 12470
SWIDTH 1000 0
DWIDTH 12 0
BBX 11 11 1 0
BITMAP
0040
02A0
2240
2200
FFC0
2200
2200
2200
0200
0400
0800
ENDCHAR
STARTCHAR 30B7
ENCODING 12471
SWIDTH 1000 0
DWIDTH 12 0
BBX 9 9 2 0
BITMAP
4000
3000
0000
C180
4100
0200
0C00
3800
E000
ENDCHAR
STARTCHAR 30B8
ENCODING 12472
SWIDTH 1000 0
DWIDTH 12 0
BBX 9 10 2 0
BITMAP
0100
4280
2100
0000
C100
4100
0200
0C00
1800
E000
ENDCHAR
STARTCHAR 30B9
ENCODING 12473
SWIDTH 1000 0
DWIDTH 12 0
BBX 9 8 1 0
BITMAP
7F00
0200
0200
0400
0C00
1B00
3180
C080
ENDCHAR
STARTCHAR 30BA
ENCODING 12474
SWIDTH 1000 0
DWIDTH 12 0
BBX 11 10 1 0
BITMAP
0040
00A0
7F00
0200
0200
0400
0C00
1B00
3180
C0C0
ENDCHAR
STARTCHAR 30BB
ENCODING 12475
SWIDTH 1000 0
DWIDTH 12 0
BBX 9 9 1 0
BITMAP
1000
1000
1380
FC80
1100
1200
1000
1000
1F80
ENDCHAR
STARTCHAR 30BC
ENCODING 12476
SWIDTH 1000 0
DWIDTH 12 0
BBX 10 10 1 0
BITMAP
0040
1080
1000
1380
FC80
1100
1200
1000
1000
1F80
ENDCHAR
STARTCHAR 30BD
ENCODING 12477
SWIDTH 1000 0
DWIDTH 12 0
BBX 8 8 2 1
BITMAP
81
41
42
02
04
0C
18
60
ENDCHAR
STARTCHAR 30BE
ENCODING 12478
SWIDTH 1000 0
DWIDTH 12 0
BBX 9 10 2 0
BITMAP
0180
0100
8100
4100
4200
0200
0400
0C00
1800
3000
ENDCHAR
STARTCHAR 30BF
ENCODING 12479
SWIDTH 1000 0
DWIDTH 12 0
BBX 8 10 2 -1
BITMAP
10
1F
21
62
92
0C
0C
18
20
40
ENDCHAR
STARTCHAR 30C0
ENCODING 12480
SWIDTH 1000 0
DWIDTH 12 0
BBX 9 11 2 0
BITMAP
0180
1100
3F00
2200
6200
B400
0C00
0800
1000
6000
4000
ENDCHAR
STARTCHAR 30C1
ENCODING 12481
SWIDTH 1000 0
DWIDTH 12 0
BBX 10 10 1 -1
BITMAP
0100
3E00
0400
0400
FFC0
0400
0400
0800
1800
2000
ENDCHAR
STARTCHAR 30C2
ENCODING 12482
SWIDTH 1000 0
DWIDTH 12 0
BBX 11 9 1 -1
BITMAP
0240
3CA0
0440
0400
FF80
0400
0800
0800
3000
ENDCHAR
STARTCHAR 30C3
ENCODING 12483
SWIDTH 1000 0
DWIDTH 12 0
BBX 6 7 3 0
BITMAP
20
A4
84
08
08
10
60
ENDCHAR
STARTCHAR 30C4
ENCODING 12484
SWIDTH 1000 0
DWIDTH 12 0
BBX 8 9 2 0
BITMAP
10
91
91
43
02
06
04
18
30
ENDCHAR
STARTCHAR 30C5
ENCODING 12485
SWIDTH 1000 0
DWIDTH 12 0
BBX 9 10 2 -1
BITMAP
0180
0000
9100
9100
D100
0200
0200
0400
0800
3000
ENDCHAR
STARTCHAR 30C6
ENCODING 12486
SWIDTH 1000 0
DWIDTH 12 0
BBX 10 9 1 0
BITMAP
3F00
0000
0000
FFC0
0400
0400
0800
1800
3000
ENDCHAR
STARTCHAR 30C7
ENCODING 12487
SWIDTH 1000 0
DWIDTH 12 0
BBX 11 11 1 0
BITMAP
0040
00A0
3F40
0000
0000
FFC0
0400
0400
0800
1800
3000
ENDCHAR
STARTCHAR 30C8
ENCODING 12488
SWIDTH 1000 0
DWIDTH 12 0
BBX 6 9 4 0
BITMAP
80
80
80
C0
B0
8C
80
80
80
ENDCHAR
STARTCHAR 30C9
ENCODING 12489
SWIDTH 1000 0
DWIDTH 12 0
BBX 6 9 4 0
BITMAP
84
88
80
C0
B0
8C
80
80
80
ENDCHAR
STARTCHAR 30CA
ENCODING 12490
SWIDTH 1000 0
DWIDTH 12 0
BBX 10 10 1 0
BITMAP
0400
0400
0400
FFC0
0400
0400
0C00
0800
1000
2000
ENDCHAR
STARTCHAR 30CB
ENCODING 12491
SWIDTH 1000 0
DWIDTH 12 0
BBX 10 6 1 1
BITMAP
3F00
0000
0000
0000
0000
FFC0
ENDCHAR
STARTCHAR 30CC
ENCODING 12492
SWIDTH 1000 0
DWIDTH 12 0
BBX 8 9 2 0
BITMAP
0E
72
02
24
14
0C
16
23
C0
ENDCHAR
STARTCHAR 30CD
ENCODING 12493
SWIDTH 1000 0
DWIDTH 12 0
BBX 8 10 2 0
BITMAP
18
00
FE
06
0C
1E
E9
08
08
08
ENDCHAR
STARTCHAR 30CE
ENCODING 12494
SWIDTH 1000 0
DWIDTH 12 0
BBX 7 8 2 0
BITMAP
02
06
04
04
08
10
20
C0
ENDCHAR
STARTCHAR 30CF
ENCODING 12495
SWIDTH 1000 0
DWIDTH 12 0
BBX 10 6 1 1
BITMAP
1300
2100
2080
4080
C040
8040
ENDCHAR
STARTCHAR 30D0
ENCODING 12496
SWIDTH 1000 0
DWIDTH 12 0
BBX 10 9 1 1
BITMAP
0080
0140
0080
3200
2100
2180
4080
C040
8040
ENDCHAR
STARTCHAR 30D1
ENCODING 12497
SWIDTH 1000 0
DWIDTH 12 0
BBX 10 9 1 1
BITMAP
00C0
0140
00C0
3200
2100
2180
4080
C040
8040
ENDCHAR
STARTCHAR 30D2
ENCODING 12498
SWIDTH 1000 0
DWIDTH 12 0
BBX 7 9 3 0
BITMAP
80
80
86
B8
C0
80
80
80
FE
ENDCHAR
STARTCHAR 30D3
ENCODING 12499
SWIDTH 1000 0
DWIDTH 12 0
BBX 9 10 3 0
BITMAP
0100
8280
8100
8600
B800
C000
8000
8000
8000
FE00
ENDCHAR
STARTCHAR 30D4
ENCODING 12500
SWIDTH 1000 0
DWIDTH 12 0
BBX 9 10 3 0
BITMAP
0300
0480
0300
0400
3800
C000
0000
0000
8000
FE00
ENDCHAR
STARTCHAR 30D5
ENCODING 12501
SWIDTH 1000 0
DWIDTH 12 0
BBX 8 8 2 0
BITMAP
FF
01
02
02
06
04
18
60
ENDCHAR
STARTCHAR 30D6
ENCODING 12502
SWIDTH 1000 0
DWIDTH 12 0
BBX 9 10 2 0
BITMAP
0180
0080
FF00
0200
0200
0200
0400
0C00
1800
6000
ENDCHAR
STARTCHAR 30D7
ENCODING 12503
SWIDTH 1000 0
DWIDTH 12 0
BBX 10 10 2 0
BITMAP
01C0
01C0
FE00
0200
0200
0200
0400
0C00
1800
6000
ENDCHAR
STARTCHAR 30D8
ENCODING 12504
SWIDTH 1000 0
DWIDTH 12 0
BBX 10 5 1 2
BITMAP
1800
2400
4200
8180
00C0
ENDCHAR
STARTCHAR 30D9
ENCODING 12505
SWIDTH 1000 0
DWIDTH 12 0
BBX 10 7 1 2
BITMAP
0080
0140
1800
2400
4200
8180
00C0
ENDCHAR
STARTCHAR 30DA
ENCODING 12506
SWIDTH 1000 0
DWIDTH 12 0
BBX 10 7 1 2
BITMAP
0180
0280
1980
2400
4200
8180
00C0
ENDCHAR
STARTCHAR 30DB
ENCODING 12507
SWIDTH 1000 0
DWIDTH 12 0
BBX 9 9 1 0
BITMAP
0400
0400
7F80
0400
0500
2480
4480
8400
1C00
ENDCHAR
STARTCHAR 30DC
ENCODING 12508
SWIDTH 1000 0
DWIDTH 12 0
BBX 10 11 1 -1
BITMAP
0040
0480
0480
7F80
0400
0400
2480
4480
8440
0400
1800
ENDCHAR
STARTCHAR 30DD
ENCODING 12509
SWIDTH 1000 0
DWIDTH 12 0
BBX 10 10 1 0
BITMAP
00C0
0540
04C0
7F80
0400
0500
2480
4480
8400
1C00
ENDCHAR
STARTCHAR 30DE
ENCODING 12510
SWIDTH 1000 0
DWIDTH 12 0
BBX 9 8 1 0
BITMAP
FF80
0080
0100
2200
1400
0800
0400
0200
ENDCHAR
STARTCHAR 30DF
ENCODING 12511
SWIDTH 1000 0
DWIDTH 12 0
BBX 7 9 2 0
BITMAP
60
1C
02
70
1C
00
E0
18
06
ENDCHAR
STARTCHAR 30E0
ENCODING 12512
SWIDTH 1000 0
DWIDTH 12 0
BBX 10 8 1 0
BITMAP
0800
0800
0800
1000
1200
2100
2080
FFC0
ENDCHAR
STARTCHAR 30E1
ENCODING 12513
SWIDTH 1000 0
DWIDTH 12 0
BBX 7 9 2 0
BITMAP
02
06
04
3C
08
14
32
60
C0
ENDCHAR
STARTCHAR 30E2
ENCODING 12514
SWIDTH 1000 0
DWIDTH 12 0
BBX 10 8 1 0
BITMAP
7F80
0800
0800
FFC0
0800
0800
0800
0F80
ENDCHAR
STARTCHAR 30E3
ENCODING 12515
SWIDTH 1000 0
DWIDTH 12 0
BBX 8 7 2 0
BITMAP
20
27
FA
12
14
10
10
ENDCHAR
STARTCHAR 30E4
ENCODING 12516
SWIDTH 1000 0
DWIDTH 12 0
BBX 9 9 1 0
BITMAP
1000
1000
1F80
F080
0900
0B00
0800
0800
0800
ENDCHAR
STARTCHAR 30E5
ENCODING 12517
SWIDTH 1000 0
DWIDTH 12 0
BBX 8 5 2 1
BITMAP
7C
04
04
04
FF
ENDCHAR
STARTCHAR 30E6
ENCODING 12518
SWIDTH 1000 0
DWIDTH 12 0
BBX 10 7 1 1
BITMAP
7F00
0200
0200
0200
0200
0200
FFC0
ENDCHAR
STARTCHAR 30E7
ENCODING 12519
SWIDTH 1000 0
DWIDTH 12 0
BBX 6 7 3 0
BITMAP
FC
04
04
FC
04
FC
04
ENDCHAR
STARTCHAR 30E8
ENCODING 12520
SWIDTH 1000 0
DWIDTH 12 0
BBX 8 8 2 0
BITMAP
FF
01
01
7F
01
01
FF
01
ENDCHAR
STARTCHAR 30E9
ENCODING 12521
SWIDTH 1000 0
DWIDTH 12 0
BBX 8 10 2 -1
BITMAP
7E
00
00
FF
01
03
02
04
18
20
ENDCHAR
STARTCHAR 30EA
ENCODING 12522
SWIDTH 1000 0
DWIDTH 12 0
BBX 6 10 3 -1
BITMAP
84
84
84
84
84
04
08
08
30
20
ENDCHAR
STARTCHAR 30EB
ENCODING 12523
SWIDTH 1000 0
DWIDTH 12 0
BBX 10 9 1 0
BITMAP
0400
2400
2400
2400
2440
2440
6580
4700
8400
ENDCHAR
STARTCHAR 30EC
ENCODING 12524
SWIDTH 1000 0
DWIDTH 12 0
BBX 7 9 3 0
BITMAP
80
80
80
80
82
84
88
B0
C0
ENDCHAR
STARTCHAR 30ED
ENCODING 12525
SWIDTH 1000 0
DWIDTH 12 0
BBX 8 8 2 0
BITMAP
FF
81
81
81
81
81
FF
81
ENDCHAR
STARTCHAR 30EE
ENCODING 12526
SWIDTH 1000 0
DWIDTH 12 0
BBX 6 7 3 0
BITMAP
FC
84
84
04
08
10
20
ENDCHAR
STARTCHAR 30EF
ENCODING 12527
SWIDTH 1000 0
DWIDTH 12 0
BBX 8 8 2 0
BITMAP
FF
81
81
82
02
04
0C
30
ENDCHAR
STARTCHAR 30F0
ENCODING 12528
SWIDTH 1000 0
DWIDTH 12 0
BBX 10 9 1 0
BITMAP
0200
0200
7F80
2200
2200
FFC0
0200
0200
0200
ENDCHAR
STARTCHAR 30F1
ENCODING 12529
SWIDTH 1000 0
DWIDTH 12 0
BBX 10 7 1 1
BITMAP
7F80
0080
0900
0A00
0800
0800
FFC0
ENDCHAR
STARTCHAR 30F2
ENCODING 12530
SWIDTH 1000 0
DWIDTH 12 0
BBX 8 8 2 0
BITMAP
FF
01
7F
02
06
0C
18
60
ENDCHAR
STARTCHAR 30F3
ENCODING 12531
SWIDTH 1000 0
DWIDTH 12 0
BBX 8 8 2 0
BITMAP
C0
21
01
02
06
0C
30
C0
ENDCHAR
STARTCHAR 30F4
ENCODING 12532
SWIDTH 1000 0
DWIDTH 12 0
BBX 10 11 2 -1
BITMAP
0080
1140
1000
FF00
8100
8100
8200
0200
0400
0800
3000
ENDCHAR
STARTCHAR 30F5
ENCODING 12533
SWIDTH 1000 0
DWIDTH 12 0
BBX 6 8 3 0
BITMAP
20
20
FC
24
24
44
44
9C
ENDCHAR
STARTCHAR 30F6
ENCODING 12534
SWIDTH 1000 0
DWIDTH 12 0
BBX 8 8 2 0
BITMAP
20
20
3F
44
88
08
18
30
ENDCHAR
STARTCHAR 30F7
ENCODING 12535
SWIDTH 1000 0
DWIDTH 12 0
BBX 10 11 2 -1
BITMAP
0080
0140
0080
FF00
8100
8200
8200
0200
0400
0C00
3000
ENDCHAR
STARTCHAR 30F8
ENCODING 12536
SWIDTH 1000 0
DWIDTH 12 0
BBX 10 10 1 -1
BITMAP
0040
0480
0400
7F80
2400
2400
2400
FFC0
0400
0400
ENDCHAR
STARTCHAR 30F9
ENCODING 12537
SWIDTH 1000 0
DWIDTH 12 0
BBX 11 9 1 1
BITMAP
0040
00A0
0040
7F80
0180
0B00
0800
0800
FFC0
ENDCHAR
STARTCHAR 30FA
ENCODING 12538
SWIDTH 1000 0
DWIDTH 12 0
BBX 10 11 2 -1
BITMAP
0080
0140
FE00
0100
0200
FE00
0200
0400
0C00
1000
6000
ENDCHAR
STARTCHAR 30FB
ENCODING 12539
SWIDTH 1000 0
DWIDTH 12 0
BBX 2 1 5 4
BITMAP
C0
ENDCHAR
STARTCHAR 30FC
ENCODING 12540
SWIDTH 1000 0
DWIDTH 12 0
BBX 10 1 1 4
BITMAP
FFC0
ENDCHAR
STARTCHAR 30FD
ENCODING 12541
SWIDTH 1000 0
DWIDTH 12 0
BBX 6 5 3 2
BITMAP
C0
60
30
18
0C
ENDCHAR
STARTCHAR 30FE
ENCODING 12542
SWIDTH 1000 0
DWIDTH 12 0
BBX 6 6 3 1
BITMAP
04
88
40
20
10
08
ENDCHAR
STARTCHAR 30FF
ENCODING 12543
SWIDTH 1000 0
DWIDTH 12 0
BBX 7 9 2 0
BITMAP
FE
02
02
02
02
02
02
02
02
ENDCHAR
STARTCHAR 31F0
ENCODING 12784
SWIDTH 1000 0
DWIDTH 12 0
BBX 6 8 3 -1
BITMAP
20
3C
44
88
08
10
20
40
ENDCHAR
STARTCHAR 31F1
ENCODING 12785
SWIDTH 1000 0
DWIDTH 12 0
BBX 7 7 3 0
BITMAP
40
20
82
44
0C
18
E0
ENDCHAR
STARTCHAR 31F2
ENCODING 12786
SWIDTH 1000 0
DWIDTH 12 0
BBX 8 6 2 0
BITMAP
7C
04
08
18
36
C3
ENDCHAR
STARTCHAR 31F3
ENCODING 12787
SWIDTH 1000 0
DWIDTH 12 0
BBX 4 7 5 0
BITMAP
80
80
80
E0
90
80
80
ENDCHAR
STARTCHAR 31F4
ENCODING 12788
SWIDTH 1000 0
DWIDTH 12 0
BBX 5 7 3 0
BITMAP
F8
08
48
30
10
28
C0
ENDCHAR
STARTCHAR 31F5
ENCODING 12789
SWIDTH 1000 0
DWIDTH 12 0
BBX 8 5 2 1
BITMAP
24
26
42
43
81
ENDCHAR
STARTCHAR 31F6
ENCODING 12790
SWIDTH 1000 0
DWIDTH 12 0
BBX 6 7 3 0
BITMAP
80
84
B8
C0
80
80
7C
ENDCHAR
STARTCHAR 31F7
ENCODING 12791
SWIDTH 1000 0
DWIDTH 12 0
BBX 6 6 3 0
BITMAP
FC
04
08
08
10
60
ENDCHAR
STARTCHAR 31F8
ENCODING 12792
SWIDTH 1000 0
DWIDTH 12 0
BBX 8 5 2 1
BITMAP
30
68
C4
83
01
ENDCHAR
STARTCHAR 31F9
ENCODING 12793
SWIDTH 1000 0
DWIDTH 12 0
BBX 8 7 2 1
BITMAP
10
FF
10
52
52
91
30
ENDCHAR
STARTCHAR 31FA
ENCODING 12794
SWIDTH 1000 0
DWIDTH 12 0
BBX 8 7 2 0
BITMAP
10
10
10
24
22
5F
E1
ENDCHAR
STARTCHAR 31FB
ENCODING 12795
SWIDTH 1000 0
DWIDTH 12 0
BBX 6 7 3 0
BITMAP
FC
00
FC
04
08
18
60
ENDCHAR
STARTCHAR 31FC
ENCODING 12796
SWIDTH 1000 0
DWIDTH 12 0
BBX 4 7 4 0
BITMAP
90
90
90
90
10
20
60
ENDCHAR
STARTCHAR 31FD
ENCODING 12797
SWIDTH 1000 0
DWIDTH 12 0
BBX 8 7 2 0
BITMAP
08
28
28
29
2B
4E
88
ENDCHAR
STARTCHAR 31FE
ENCODING 12798
SWIDTH 1000 0
DWIDTH 12 0
BBX 6 7 4 0
BITMAP
80
80
80
8C
98
B0
C0
ENDCHAR
STARTCHAR 31FF
ENCODING 12799
SWIDTH 1000 0
DWIDTH 12 0
BBX 6 6 3 0
BITMAP
FC
84
84
84
FC
84
ENDCHAR
STARTCHAR 3220
ENCODING 12832
SWIDTH 1000 0
DWIDTH 12 0
BBX 10 11 1 -1
BITMAP
4080
8040
8040
8040
8040
FFC0
8040
8040
8040
8040
8080
ENDCHAR
STARTCHAR 3221
ENCODING 12833
SWIDTH 1000 0
DWIDTH 12 0
BBX 10 10 1 -1
BITMAP
8080
8040
BF40
8040
8040
8040
8040
8040
FFC0
8040
ENDCHAR
STARTCHAR 3222
ENCODING 12834
SWIDTH 1000 0
DWIDTH 12 0
BBX 10 10 1 0
BITMAP
8040
BF40
8040
8040
BF40
8040
8040
FFC0
8040
4080
ENDCHAR
STARTCHAR 3223
ENCODING 12835
SWIDTH 1000 0
DWIDTH 12 0
BBX 10 11 1 -1
BITMAP
4080
8040
BF40
D540
D540
D540
B740
C140
BF40
8040
4080
ENDCHAR
STARTCHAR 3224
ENCODING 12836
SWIDTH 1000 0
DWIDTH 12 0
BBX 10 11 1 -1
BITMAP
4080
8040
BF40
8840
8840
BE40
8A40
9240
9240
FFC0
8080
ENDCHAR
STARTCHAR 3225
ENCODING 12837
SWIDTH 1000 0
DWIDTH 12 0
BBX 11 9 1 0
BITMAP
8840
8840
FFC0
8040
1220
9240
9140
A140
C040
ENDCHAR
STARTCHAR 3226
ENCODING 12838
SWIDTH 1000 0
DWIDTH 12 0
BBX 10 9 1 0
BITMAP
9040
9040
91C0
FE40
9040
9040
90C0
9140
8F40
ENDCHAR
STARTCHAR 3227
ENCODING 12839
SWIDTH 1000 0
DWIDTH 12 0
BBX 10 10 1 -1
BITMAP
8080
8C40
8240
9240
9240
9240
9340
A140
A140
8040
ENDCHAR
STARTCHAR 3228
ENCODING 12840
SWIDTH 1000 0
DWIDTH 12 0
BBX 11 10 1 -1
BITMAP
8080
9040
9040
FE40
9240
9220
9240
92C0
A2C0
E3C0
ENDCHAR
STARTCHAR 3229
ENCODING 12841
SWIDTH 1000 0
DWIDTH 12 0
BBX 10 10 1 -1
BITMAP
8040
8840
8840
8840
FFC0
8840
8840
8840
8840
8040
ENDCHAR
STARTCHAR 322A
ENCODING 12842
SWIDTH 1000 0
DWIDTH 12 0
BBX 10 10 1 -1
BITMAP
8080
9F40
A140
A140
9F40
A140
9F40
A140
A140
A740
ENDCHAR
STARTCHAR 322B
ENCODING 12843
SWIDTH 1000 0
DWIDTH 12 0
BBX 10 9 1 0
BITMAP
8040
8840
8940
AD40
AE40
8C40
8A40
9340
E1C0
ENDCHAR
STARTCHAR 322C
ENCODING 12844
SWIDTH 1000 0
DWIDTH 12 0
BBX 10 10 1 -1
BITMAP
8080
8840
8940
F540
9640
9C40
9A40
A940
C8C0
9840
ENDCHAR
STARTCHAR 322D
ENCODING 12845
SWIDTH 1000 0
DWIDTH 12 0
BBX 10 10 1 -1
BITMAP
8080
8840
8840
FFC0
8C40
9C40
9A40
A940
C8C0
8840
ENDCHAR
STARTCHAR 322E
ENCODING 12846
SWIDTH 1000 0
DWIDTH 12 0
BBX 10 9 1 0
BITMAP
8C40
8C40
9240
BFC0
C840
BF40
A940
9A40
BF40
ENDCHAR
STARTCHAR 322F
ENCODING 12847
SWIDTH 1000 0
DWIDTH 12 0
BBX 10 10 1 0
BITMAP
4080
8040
8840
8840
BF40
8840
8840
8840
FFC0
8040
ENDCHAR
STARTCHAR 3230
ENCODING 12848
SWIDTH 1000 0
DWIDTH 12 0
BBX 11 9 1 0
BITMAP
8040
BF40
A140
A140
3F20
A140
A140
BF40
A140
ENDCHAR
STARTCHAR 3231
ENCODING 12849
SWIDTH 1000 0
DWIDTH 12 0
BBX 10 11 1 -1
BITMAP
A280
A640
A7C0
FA40
AA40
BFC0
F240
E740
AAC0
AAC0
A280
ENDCHAR
STARTCHAR 3232
ENCODING 12850
SWIDTH 1000 0
DWIDTH 12 0
BBX 10 10 1 -1
BITMAP
8080
8840
FFC0
9040
9F40
B140
DF40
9F40
9140
9340
ENDCHAR
STARTCHAR 3233
ENCODING 12851
SWIDTH 1000 0
DWIDTH 12 0
BBX 10 10 1 -1
BITMAP
4080
A240
A240
F240
9FC0
A240
BA40
E240
A240
AFC0
ENDCHAR
STARTCHAR 3234
ENCODING 12852
SWIDTH 1000 0
DWIDTH 12 0
BBX 10 11 1 -1
BITMAP
4080
8840
8F40
9240
EC40
8840
BF40
D140
9140
9F40
9180
ENDCHAR
STARTCHAR 3235
ENCODING 12853
SWIDTH 1000 0
DWIDTH 12 0
BBX 10 10 1 -1
BITMAP
8280
E240
EFC0
F240
EFC0
A140
BFC0
E940
A540
A340
ENDCHAR
STARTCHAR 3236
ENCODING 12854
SWIDTH 1000 0
DWIDTH 12 0
BBX 10 10 1 -1
BITMAP
8080
F940
C940
FFC0
C940
FB40
CB40
FD40
B140
CB40
ENDCHAR
STARTCHAR 3237
ENCODING 12855
SWIDTH 1000 0
DWIDTH 12 0
BBX 10 10 1 -1
BITMAP
A080
AF40
F940
9940
A940
AF40
F640
A640
A6C0
A9C0
ENDCHAR
STARTCHAR 3238
ENCODING 12856
SWIDTH 1000 0
DWIDTH 12 0
BBX 10 9 1 0
BITMAP
A940
9240
FFC0
C8C0
8F40
B940
8940
9140
B740
ENDCHAR
STARTCHAR 3239
ENCODING 12857
SWIDTH 1000 0
DWIDTH 12 0
BBX 10 9 1 0
BITMAP
9540
A540
A440
AF40
E440
A440
A240
A2C0
A140
ENDCHAR
STARTCHAR 323A
ENCODING 12858
SWIDTH 1000 0
DWIDTH 12 0
BBX 10 10 1 -1
BITMAP
4080
8040
FF40
DAC0
DB40
D340
DFC0
F240
C240
8640
ENDCHAR
STARTCHAR 323B
ENCODING 12859
SWIDTH 1000 0
DWIDTH 12 0
BBX 10 10 1 -1
BITMAP
4080
A940
9A40
FFC0
DFC0
8440
FFC0
8840
8840
9840
ENDCHAR
STARTCHAR 323C
ENCODING 12860
SWIDTH 1000 0
DWIDTH 12 0
BBX 10 10 1 -1
BITMAP
8080
FA40
D3C0
FC40
FC40
FBC0
C040
BF40
B540
BF40
ENDCHAR
STARTCHAR 323D
ENCODING 12861
SWIDTH 1000 0
DWIDTH 12 0
BBX 10 9 1 0
BITMAP
8C40
8C40
9240
A9C0
C840
A740
A840
A840
BFC0
ENDCHAR
STARTCHAR 323E
ENCODING 12862
SWIDTH 1000 0
DWIDTH 12 0
BBX 10 11 1 -1
BITMAP
8080
AFC0
8D40
B640
F9C0
FF40
BF40
BF40
BF40
9340
2000
ENDCHAR
STARTCHAR 323F
ENCODING 12863
SWIDTH 1000 0
DWIDTH 12 0
BBX 10 10 1 -1
BITMAP
4080
A440
AF40
F540
AB40
A840
BFC0
B6C0
B6C0
BFC0
ENDCHAR
STARTCHAR 3240
ENCODING 12864
SWIDTH 1000 0
DWIDTH 12 0
BBX 10 10 1 -1
BITMAP
8080
BFC0
AD40
D340
F240
BF40
BFC0
8640
A540
DCC0
ENDCHAR
STARTCHAR 3241
ENCODING 12865
SWIDTH 1000 0
DWIDTH 12 0
BBX 10 10 1 -1
BITMAP
8080
A440
A440
BFC0
A640
E640
AD40
AD40
B4C0
A440
ENDCHAR
STARTCHAR 3242
ENCODING 12866
SWIDTH 1000 0
DWIDTH 12 0
BBX 11 11 1 -1
BITMAP
8880
8840
BF40
A140
BF40
2120
A140
BF40
A140
BF40
A180
ENDCHAR
STARTCHAR 3243
ENCODING 12867
SWIDTH 1000 0
DWIDTH 12 0
BBX 10 11 1 -1
BITMAP
8080
BF40
8840
9240
BF40
8040
8840
BF40
8840
FFC0
8080
ENDCHAR
STARTCHAR 3251
ENCODING 12881
SWIDTH 1000 0
DWIDTH 12 0
BBX 12 12 0 -1
BITMAP
0F00
10C0
78A0
65A0
A8A0
8890
9090
90A0
A0A0
7CA0
20C0
1F00
ENDCHAR
STARTCHAR 3252
ENCODING 12882
SWIDTH 1000 0
DWIDTH 12 0
BBX 12 12 0 -1
BITMAP
0F00
10C0
79A0
6660
AAA0
8890
9110
9120
A220
7FE0
2040
1F80
ENDCHAR
STARTCHAR 3253
ENCODING 12883
SWIDTH 1000 0
DWIDTH 12 0
BBX 12 12 0 -1
BITMAP
0F00
10C0
79A0
66A0
A4A0
8890
9090
90A0
92A0
7DA0
20C0
1F00
ENDCHAR
STARTCHAR 3254
ENCODING 12884
SWIDTH 1000 0
DWIDTH 12 0
BBX 12 12 0 -1
BITMAP
0F00
30C0
58A0
65A0
85A0
8A90
8A90
93E0
90A0
5CA0
20C0
1F00
ENDCHAR
STARTCHAR 3255
ENCODING 12885
SWIDTH 1000 0
DWIDTH 12 0
BBX 12 11 0 -1
BITMAP
0F00
30C0
59A0
A620
8990
8A90
9050
9260
5DA0
20C0
1F00
ENDCHAR
STARTCHAR 3256
ENCODING 12886
SWIDTH 1000 0
DWIDTH 12 0
BBX 12 12 0 -1
BITMAP
0F00
10C0
79A0
66A0
A620
8B90
9250
9260
9260
7DA0
20C0
1F00
ENDCHAR
STARTCHAR 3257
ENCODING 12887
SWIDTH 1000 0
DWIDTH 12 0
BBX 12 11 0 -1
BITMAP
0F00
30C0
5BA0
A4A0
8890
8890
9110
9120
5D20
20C0
1F00
ENDCHAR
STARTCHAR 3258
ENCODING 12888
SWIDTH 1000 0
DWIDTH 12 0
BBX 12 12 0 -1
BITMAP
0F00
10C0
79A0
66A0
A6A0
8990
8A90
9260
9260
5DA0
20C0
1F00
ENDCHAR
STARTCHAR 3259
ENCODING 12889
SWIDTH 1000 0
DWIDTH 12 0
BBX 12 12 0 -1
BITMAP
0F00
10C0
79A0
6660
A660
8A50
91D0
9060
92A0
7DA0
20C0
1F00
ENDCHAR
STARTCHAR 325A
ENCODING 12890
SWIDTH 1000 0
DWIDTH 12 0
BBX 12 11 0 -1
BITMAP
1F00
30C0
59A0
A660
8A50
9A50
8650
A660
59A0
30C0
0F00
ENDCHAR
STARTCHAR 325B
ENCODING 12891
SWIDTH 1000 0
DWIDTH 12 0
BBX 12 11 0 -1
BITMAP
1F00
30C0
59A0
84A0
8890
9890
8490
A4A0
58A0
30C0
0F00
ENDCHAR
STARTCHAR 325C
ENCODING 12892
SWIDTH 1000 0
DWIDTH 12 0
BBX 12 12 0 -1
BITMAP
0F00
10C0
79A0
6660
86A0
8890
8910
8520
6620
5BE0
3040
0F80
ENDCHAR
STARTCHAR 325D
ENCODING 12893
SWIDTH 1000 0
DWIDTH 12 0
BBX 12 11 0 -1
BITMAP
1F00
30C0
59A0
A6A0
8890
9990
8450
A660
59A0
30C0
0F00
ENDCHAR
STARTCHAR 325E
ENCODING 12894
SWIDTH 1000 0
DWIDTH 12 0
BBX 12 12 0 -1
BITMAP
0F00
30C0
58A0
64A0
89A0
9990
8A90
A7E0
64A0
58A0
30C0
0F00
ENDCHAR
STARTCHAR 325F
ENCODING 12895
SWIDTH 1000 0
DWIDTH 12 0
BBX 12 12 0 -2
BITMAP
0F00
30C0
59A0
6620
8A20
9B90
8850
8460
66A0
59A0
30C0
0F00
ENDCHAR
STARTCHAR 3280
ENCODING 12928
SWIDTH 1000 0
DWIDTH 12 0
BBX 12 12 0 -2
BITMAP
0F00
30C0
4020
4020
8020
BFD0
8010
8020
4020
4020
30C0
0F00
ENDCHAR
STARTCHAR 3281
ENCODING 12929
SWIDTH 1000 0
DWIDTH 12 0
BBX 12 11 0 -1
BITMAP
0F00
30C0
4020
9FA0
8010
8010
8010
BFE0
4020
30C0
0F00
ENDCHAR
STARTCHAR 3282
ENCODING 12930
SWIDTH 1000 0
DWIDTH 12 0
BBX 12 13 0 -2
BITMAP
0F00
10C0
2040
5FA0
8020
8010
9F90
8010
8020
7FE0
2040
30C0
0F00
ENDCHAR
STARTCHAR 3283
ENCODING 12931
SWIDTH 1000 0
DWIDTH 12 0
BBX 12 11 0 -1
BITMAP
1F00
30C0
5FA0
AAA0
AA90
AB90
B090
9FA0
4020
30C0
0F00
ENDCHAR
STARTCHAR 3284
ENCODING 12932
SWIDTH 1000 0
DWIDTH 12 0
BBX 12 12 0 -2
BITMAP
1F00
30C0
5FA0
4420
8420
9F10
8510
8920
7FE0
4020
30C0
0F00
ENDCHAR
STARTCHAR 3285
ENCODING 12933
SWIDTH 1000 0
DWIDTH 12 0
BBX 12 11 0 -1
BITMAP
1F00
30C0
4420
BFE0
8010
8910
8890
90A0
4020
30C0
0F00
ENDCHAR
STARTCHAR 3286
ENCODING 12934
SWIDTH 1000 0
DWIDTH 12 0
BBX 12 11 0 -1
BITMAP
1F00
30C0
4820
8820
BF90
8810
8810
88A0
47A0
30C0
0F00
ENDCHAR
STARTCHAR 3287
ENCODING 12935
SWIDTH 1000 0
DWIDTH 12 0
BBX 12 12 0 -2
BITMAP
0F00
30C0
4620
4120
8920
8910
9090
90A0
6060
4020
30C0
0F00
ENDCHAR
STARTCHAR 3288
ENCODING 12936
SWIDTH 1000 0
DWIDTH 12 0
BBX 12 11 0 -1
BITMAP
1F00
34C0
4420
9F20
8510
8510
8950
8960
51E0
30C0
0F00
ENDCHAR
STARTCHAR 3289
ENCODING 12937
SWIDTH 1000 0
DWIDTH 12 0
BBX 12 12 0 -2
BITMAP
0F00
30C0
4020
4420
8420
BFD0
8410
8420
4420
4020
30C0
0F00
ENDCHAR
STARTCHAR 328A
ENCODING 12938
SWIDTH 1000 0
DWIDTH 12 0
BBX 12 11 0 -1
BITMAP
1F00
30C0
5F20
9120
9F10
9110
9F10
9120
5120
33C0
0F00
ENDCHAR
STARTCHAR 328B
ENCODING 12939
SWIDTH 1000 0
DWIDTH 12 0
BBX 12 11 0 -1
BITMAP
1F00
30C0
4420
84A0
9690
9710
8610
89A0
5020
30C0
0F00
ENDCHAR
STARTCHAR 328C
ENCODING 12940
SWIDTH 1000 0
DWIDTH 12 0
BBX 12 12 0 -2
BITMAP
0F00
30C0
4020
44A0
BAA0
8B10
8D10
94A0
7460
4C20
30C0
0F00
ENDCHAR
STARTCHAR 328D
ENCODING 12941
SWIDTH 1000 0
DWIDTH 12 0
BBX 12 12 0 -2
BITMAP
0F00
30C0
4020
4420
BFE0
8610
8D10
8CA0
7460
4020
30C0
0F00
ENDCHAR
STARTCHAR 328E
ENCODING 12942
SWIDTH 1000 0
DWIDTH 12 0
BBX 12 11 0 -1
BITMAP
0F00
30C0
4620
8920
9FD0
9F90
8490
8D20
5FA0
30C0
0F00
ENDCHAR
STARTCHAR 328F
ENCODING 12943
SWIDTH 1000 0
DWIDTH 12 0
BBX 12 12 0 -2
BITMAP
0F00
30C0
4420
4420
9FA0
8410
8410
8420
7FE0
4020
30C0
0F00
ENDCHAR
STARTCHAR 3290
ENCODING 12944
SWIDTH 1000 0
DWIDTH 12 0
BBX 12 12 0 -1
BITMAP
0F00
10C0
6020
5FA0
90A0
9090
9F90
90A0
50A0
5FA0
30C0
0F00
ENDCHAR
STARTCHAR 3291
ENCODING 12945
SWIDTH 1000 0
DWIDTH 12 0
BBX 12 12 0 -2
BITMAP
1F00
31C0
5520
7FA0
9520
9FD0
B910
B3A0
5560
5120
30C0
0F00
ENDCHAR
STARTCHAR 3292
ENCODING 12946
SWIDTH 1000 0
DWIDTH 12 0
BBX 12 11 0 -1
BITMAP
0F00
30C0
4420
BFE0
8F90
9890
8F90
88A0
49A0
30C0
0F00
ENDCHAR
STARTCHAR 3293
ENCODING 12947
SWIDTH 1000 0
DWIDTH 12 0
BBX 12 11 0 -1
BITMAP
1F00
30C0
5120
B920
8F90
9110
BD10
9120
57E0
30C0
0F00
ENDCHAR
STARTCHAR 3294
ENCODING 12948
SWIDTH 1000 0
DWIDTH 12 0
BBX 12 11 0 -1
BITMAP
1F00
34C0
47A0
8920
BA10
8410
9F90
A8A0
4FA0
30C0
0F00
ENDCHAR
STARTCHAR 3295
ENCODING 12949
SWIDTH 1000 0
DWIDTH 12 0
BBX 12 12 0 -2
BITMAP
0F00
30C0
5120
77A0
B7E0
9090
9FD0
B0A0
52A0
41A0
30C0
0F00
ENDCHAR
STARTCHAR 3296
ENCODING 12950
SWIDTH 1000 0
DWIDTH 12 0
BBX 12 12 0 -2
BITMAP
0F00
30C0
5CA0
67E0
9CA0
9D90
A590
9EA0
54A0
45A0
30C0
0F00
ENDCHAR
STARTCHAR 3297
ENCODING 12951
SWIDTH 1000 0
DWIDTH 12 0
BBX 12 11 0 -1
BITMAP
1F00
30C0
57A0
BCA0
8C90
9790
BF10
9360
54E0
30C0
0F00
ENDCHAR
STARTCHAR 3298
ENCODING 12952
SWIDTH 1000 0
DWIDTH 12 0
BBX 12 12 0 -1
BITMAP
0F00
10C0
6420
4920
BFE0
A450
9F90
84A0
44A0
5BA0
30C0
0F00
ENDCHAR
STARTCHAR 3299
ENCODING 12953
SWIDTH 1000 0
DWIDTH 12 0
BBX 12 12 0 -2
BITMAP
1F00
30C0
7B20
50A0
BAA0
9710
9D50
B6E0
53A0
5420
30C0
0F00
ENDCHAR
STARTCHAR 329A
ENCODING 12954
SWIDTH 1000 0
DWIDTH 12 0
BBX 12 11 0 -1
BITMAP
1F00
30C0
5FA0
9FA0
9490
9F90
9F90
84A0
48A0
31C0
0F00
ENDCHAR
STARTCHAR 329B
ENCODING 12955
SWIDTH 1000 0
DWIDTH 12 0
BBX 12 12 0 -1
BITMAP
0F00
10C0
6420
4420
BFE0
8910
8910
9620
45A0
5820
30C0
0F00
ENDCHAR
STARTCHAR 329C
ENCODING 12956
SWIDTH 1000 0
DWIDTH 12 0
BBX 12 13 0 -2
BITMAP
0F00
10C0
2040
5FE0
9520
8790
B790
9D90
9BA0
50A0
2FC0
30C0
0F00
ENDCHAR
STARTCHAR 329D
ENCODING 12957
SWIDTH 1000 0
DWIDTH 12 0
BBX 12 11 0 -1
BITMAP
0F00
30C0
5FA0
97A0
9890
BFD0
9790
9B20
5CA0
30C0
0F00
ENDCHAR
STARTCHAR 329E
ENCODING 12958
SWIDTH 1000 0
DWIDTH 12 0
BBX 12 12 0 -1
BITMAP
0F00
10C0
6020
5BA0
A2A0
A290
9E90
A2A0
5FA0
4220
30C0
0F00
ENDCHAR
STARTCHAR 329F
ENCODING 12959
SWIDTH 1000 0
DWIDTH 12 0
BBX 12 11 0 -1
BITMAP
1F00
32C0
5120
8FE0
A210
9210
8790
9220
7FE0
30C0
0F00
ENDCHAR
STARTCHAR 32A0
ENCODING 12960
SWIDTH 1000 0
DWIDTH 12 0
BBX 12 11 0 -1
BITMAP
0F00
30C0
47A0
97A0
9490
9790
9790
B7A0
43A0
34C0
0F00
ENDCHAR
STARTCHAR 32A1
ENCODING 12961
SWIDTH 1000 0
DWIDTH 12 0
BBX 12 12 0 -2
BITMAP
0F00
30C0
4820
5220
9FE0
9310
B510
96A0
5A60
5220
30C0
0F00
ENDCHAR
STARTCHAR 32A2
ENCODING 12962
SWIDTH 1000 0
DWIDTH 12 0
BBX 12 12 0 -2
BITMAP
1F00
30C0
5FA0
68A0
8F20
8F10
8110
BFE0
4120
4720
30C0
0F00
ENDCHAR
STARTCHAR 32A3
ENCODING 12963
SWIDTH 1000 0
DWIDTH 12 0
BBX 12 11 0 -1
BITMAP
1F00
30C0
5FA0
8220
8210
9390
9210
9220
7FE0
30C0
0F00
ENDCHAR
STARTCHAR 32A4
ENCODING 12964
SWIDTH 1000 0
DWIDTH 12 0
BBX 12 11 0 -1
BITMAP
0F00
30C0
4420
8420
8790
8410
8410
BFE0
4020
30C0
0F00
ENDCHAR
STARTCHAR 32A5
ENCODING 12965
SWIDTH 1000 0
DWIDTH 12 0
BBX 12 11 0 -1
BITMAP
1F00
30C0
4420
9FA0
9490
9490
9F90
94A0
4420
30C0
0F00
ENDCHAR
STARTCHAR 32A6
ENCODING 12966
SWIDTH 1000 0
DWIDTH 12 0
BBX 12 12 0 -1
BITMAP
0F00
10C0
6020
7FE0
8420
8610
8590
84A0
4420
4420
30C0
0F00
ENDCHAR
STARTCHAR 32A7
ENCODING 12967
SWIDTH 1000 0
DWIDTH 12 0
BBX 12 11 0 -1
BITMAP
0F00
30C0
4420
9FA0
8810
8F90
9210
A220
4FE0
30C0
0F00
ENDCHAR
STARTCHAR 32A8
ENCODING 12968
SWIDTH 1000 0
DWIDTH 12 0
BBX 12 12 0 -2
BITMAP
0F00
30C0
4420
7FE0
8820
8F90
9890
A8A0
4FA0
48A0
30C0
0F00
ENDCHAR
STARTCHAR 32A9
ENCODING 12969
SWIDTH 1000 0
DWIDTH 12 0
BBX 12 11 0 -1
BITMAP
1F00
30C0
5FE0
97A0
9A10
9F90
9310
9CA0
5FE0
30C0
0F00
ENDCHAR
STARTCHAR 32AA
ENCODING 12970
SWIDTH 1000 0
DWIDTH 12 0
BBX 12 11 0 -1
BITMAP
0F00
30C0
4420
9FA0
8F10
BFD0
8410
94A0
4C20
30C0
0F00
ENDCHAR
STARTCHAR 32AB
ENCODING 12971
SWIDTH 1000 0
DWIDTH 12 0
BBX 12 11 0 -1
BITMAP
1F00
30C0
4D20
BFE0
A050
AF50
BFD0
8420
4C20
30C0
0F00
ENDCHAR
STARTCHAR 32AC
ENCODING 12972
SWIDTH 1000 0
DWIDTH 12 0
BBX 12 11 0 -1
BITMAP
0F00
30C0
7D20
BFE0
BE10
BDD0
8010
9FA0
5FA0
30C0
0F00
ENDCHAR
STARTCHAR 32AD
ENCODING 12973
SWIDTH 1000 0
DWIDTH 12 0
BBX 12 11 0 -1
BITMAP
0F00
30C0
4620
8920
9890
A450
9390
9420
5FE0
30C0
0F00
ENDCHAR
STARTCHAR 32AE
ENCODING 12974
SWIDTH 1000 0
DWIDTH 12 0
BBX 12 11 0 -1
BITMAP
1F00
30C0
57E0
82A0
9590
BF90
9F90
9FA0
49A0
30C0
0F00
ENDCHAR
STARTCHAR 32AF
ENCODING 12975
SWIDTH 1000 0
DWIDTH 12 0
BBX 12 12 0 -1
BITMAP
0F00
10C0
7220
57A0
BAA0
9590
9410
9FE0
5B60
5FA0
30C0
0F00
ENDCHAR
STARTCHAR 32B0
ENCODING 12976
SWIDTH 1000 0
DWIDTH 12 0
BBX 12 11 0 -1
BITMAP
0F00
30C0
4420
BFE0
9390
9490
BD10
9320
53A0
34C0
0F00
ENDCHAR
STARTCHAR 32B1
ENCODING 12977
SWIDTH 1000 0
DWIDTH 12 0
BBX 12 11 0 -1
BITMAP
1F00
30C0
59A0
A660
8A10
9B90
8650
A660
59A0
30C0
0F00
ENDCHAR
STARTCHAR 32B2
ENCODING 12978
SWIDTH 1000 0
DWIDTH 12 0
BBX 12 12 0 -2
BITMAP
0F00
30C0
5BA0
64A0
88A0
9890
8910
8520
6520
5920
30C0
0F00
ENDCHAR
STARTCHAR 32B3
ENCODING 12979
SWIDTH 1000 0
DWIDTH 12 0
BBX 12 11 0 -1
BITMAP
1F00
30C0
59A0
A6A0
8A90
9990
8650
A660
59A0
30C0
0F00
ENDCHAR
STARTCHAR 32B4
ENCODING 12980
SWIDTH 1000 0
DWIDTH 12 0
BBX 12 11 0 -1
BITMAP
1F00
30C0
59A0
A660
8A50
99D0
8450
A660
59A0
30C0
0F00
ENDCHAR
STARTCHAR 32B5
ENCODING 12981
SWIDTH 1000 0
DWIDTH 12 0
BBX 12 12 0 -1
BITMAP
0F00
30C0
49A0
5AA0
9A60
AA50
AA50
BE60
4AA0
49A0
30C0
0F00
ENDCHAR
STARTCHAR 32B6
ENCODING 12982
SWIDTH 1000 0
DWIDTH 12 0
BBX 12 12 0 -1
BITMAP
0F00
30C0
48A0
49A0
98A0
A890
A890
BCA0
48A0
48A0
30C0
0F00
ENDCHAR
STARTCHAR 32B7
ENCODING 12983
SWIDTH 1000 0
DWIDTH 12 0
BBX 12 12 0 -1
BITMAP
0F00
30C0
49A0
5A60
98A0
A890
A910
BD20
4A20
4BE0
3040
0F80
ENDCHAR
STARTCHAR 32B8
ENCODING 12984
SWIDTH 1000 0
DWIDTH 12 0
BBX 12 12 0 -1
BITMAP
0F00
30C0
49A0
5AA0
98A0
A910
A890
BEA0
4AA0
49A0
30C0
0F00
ENDCHAR
STARTCHAR 32B9
ENCODING 12985
SWIDTH 1000 0
DWIDTH 12 0
BBX 12 12 0 -1
BITMAP
0F00
30C0
48A0
58A0
99A0
AA90
AA90
BFE0
48A0
48A0
30C0
0F00
ENDCHAR
STARTCHAR 32BA
ENCODING 12986
SWIDTH 1000 0
DWIDTH 12 0
BBX 12 11 0 -1
BITMAP
0F00
30C0
49A0
9A20
AB90
A890
BC50
8AA0
49A0
30C0
0F00
ENDCHAR
STARTCHAR 32BB
ENCODING 12987
SWIDTH 1000 0
DWIDTH 12 0
BBX 12 12 0 -1
BITMAP
0F00
30C0
49A0
5A20
9A20
AB90
AA50
BE60
4AA0
49A0
30C0
0F00
ENDCHAR
STARTCHAR 32BC
ENCODING 12988
SWIDTH 1000 0
DWIDTH 12 0
BBX 12 11 0 -1
BITMAP
0F00
30C0
4BA0
98A0
9890
A910
BD10
8920
4920
30C0
0F00
ENDCHAR
STARTCHAR 32BD
ENCODING 12989
SWIDTH 1000 0
DWIDTH 12 0
BBX 12 12 0 -1
BITMAP
0F00
30C0
49A0
5AA0
9AA0
A990
AA50
BE60
4A60
49A0
30C0
0F00
ENDCHAR
STARTCHAR 32BE
ENCODING 12990
SWIDTH 1000 0
DWIDTH 12 0
BBX 12 12 0 -1
BITMAP
0F00
30C0
49A0
5A60
9A60
AA50
A9D0
BC60
4AA0
49A0
30C0
0F00
ENDCHAR
STARTCHAR 32BF
ENCODING 12991
SWIDTH 1000 0
DWIDTH 12 0
BBX 12 12 0 -2
BITMAP
0F00
30C0
59A0
6260
A260
9A50
8650
8660
6660
59A0
30C0
0F00
ENDCHAR
STARTCHAR 32D0
ENCODING 13008
SWIDTH 1000 0
DWIDTH 12 0
BBX 12 11 0 -1
BITMAP
1F00
30C0
4FA0
9060
8490
8510
8410
8420
4820
30C0
0F00
ENDCHAR
STARTCHAR 32D1
ENCODING 13009
SWIDTH 1000 0
DWIDTH 12 0
BBX 12 11 0 -1
BITMAP
1F00
30C0
4120
8220
8610
9A10
A210
8220
4220
32C0
0F00
ENDCHAR
STARTCHAR 32D2
ENCODING 13010
SWIDTH 1000 0
DWIDTH 12 0
BBX 12 11 0 -1
BITMAP
1F00
32C0
4220
9FA0
9090
9090
8090
8120
4220
34C0
0F00
ENDCHAR
STARTCHAR 32D3
ENCODING 13011
SWIDTH 1000 0
DWIDTH 12 0
BBX 12 11 0 -1
BITMAP
0F00
30C0
4020
9FA0
8410
8410
8410
BFE0
4020
30C0
0F00
ENDCHAR
STARTCHAR 32D4
ENCODING 13012
SWIDTH 1000 0
DWIDTH 12 0
BBX 12 12 0 -1
BITMAP
0F00
10C0
6020
4220
BFE0
8310
8510
8920
7120
4720
30C0
0F00
ENDCHAR
STARTCHAR 32D5
ENCODING 13013
SWIDTH 1000 0
DWIDTH 12 0
BBX 12 12 0 -1
BITMAP
0F00
10C0
6020
4420
9FA0
8490
8490
84A0
48A0
53A0
30C0
0F00
ENDCHAR
STARTCHAR 32D6
ENCODING 13014
SWIDTH 1000 0
DWIDTH 12 0
BBX 12 11 0 -1
BITMAP
1F00
30C0
4420
8FA0
9410
85D0
BE10
8220
4220
32C0
0F00
ENDCHAR
STARTCHAR 32D7
ENCODING 13015
SWIDTH 1000 0
DWIDTH 12 0
BBX 12 11 0 -1
BITMAP
0F00
30C0
4420
87A0
8890
9090
8110
8220
4420
38C0
0F00
ENDCHAR
STARTCHAR 32D8
ENCODING 13016
SWIDTH 1000 0
DWIDTH 12 0
BBX 12 12 0 -1
BITMAP
0F00
10C0
6820
4820
8FE0
9110
A210
8220
4220
4C20
38C0
0F00
ENDCHAR
STARTCHAR 32D9
ENCODING 13017
SWIDTH 1000 0
DWIDTH 12 0
BBX 12 12 0 -1
BITMAP
0F00
10C0
6020
5FA0
80A0
8090
8090
80A0
5FA0
40A0
30C0
0F00
ENDCHAR
STARTCHAR 32DA
ENCODING 13018
SWIDTH 1000 0
DWIDTH 12 0
BBX 12 11 0 -1
BITMAP
0F00
30C0
4920
8920
BFD0
8910
8910
8120
4220
34C0
0F00
ENDCHAR
STARTCHAR 32DB
ENCODING 13019
SWIDTH 1000 0
DWIDTH 12 0
BBX 12 11 0 -1
BITMAP
1F00
30C0
4C20
8460
9050
8890
8110
8620
5C20
30C0
0F00
ENDCHAR
STARTCHAR 32DC
ENCODING 13020
SWIDTH 1000 0
DWIDTH 12 0
BBX 12 11 0 -1
BITMAP
1F00
30C0
5F20
8120
8110
8210
8510
88A0
5020
30C0
0F00
ENDCHAR
STARTCHAR 32DD
ENCODING 13021
SWIDTH 1000 0
DWIDTH 12 0
BBX 12 11 0 -1
BITMAP
1F00
30C0
4820
8820
BF90
8990
8910
8820
4FA0
30C0
0F00
ENDCHAR
STARTCHAR 32DE
ENCODING 13022
SWIDTH 1000 0
DWIDTH 12 0
BBX 12 11 0 -1
BITMAP
1F00
30C0
5020
90A0
8890
8190
8110
8220
4C20
30C0
0F00
ENDCHAR
STARTCHAR 32DF
ENCODING 13023
SWIDTH 1000 0
DWIDTH 12 0
BBX 12 12 0 -2
BITMAP
0F00
30C0
4420
47A0
88A0
9C90
9310
8320
4620
4820
30C0
0F00
ENDCHAR
STARTCHAR 32E0
ENCODING 13024
SWIDTH 1000 0
DWIDTH 12 0
BBX 12 12 0 -2
BITMAP
0F00
30C0
43A0
5E20
8220
BFD0
8210
8420
4420
4820
30C0
0F00
ENDCHAR
STARTCHAR 32E1
ENCODING 13025
SWIDTH 1000 0
DWIDTH 12 0
BBX 12 11 0 -1
BITMAP
1F00
30C0
4420
94A0
9290
8090
8110
8220
4C20
30C0
0F00
ENDCHAR
STARTCHAR 32E2
ENCODING 13026
SWIDTH 1000 0
DWIDTH 12 0
BBX 12 11 0 -1
BITMAP
1F00
30C0
4FA0
8020
BFD0
8210
8210
8420
4820
30C0
0F00
ENDCHAR
STARTCHAR 32E3
ENCODING 13027
SWIDTH 1000 0
DWIDTH 12 0
BBX 12 11 0 -1
BITMAP
1F00
34C0
4420
8420
8410
8710
8490
8420
4420
30C0
0F00
ENDCHAR
STARTCHAR 32E4
ENCODING 13028
SWIDTH 1000 0
DWIDTH 12 0
BBX 12 11 0 -1
BITMAP
0F00
30C0
4220
8220
BFD0
8210
8210
8420
4C20
38C0
0F00
ENDCHAR
STARTCHAR 32E5
ENCODING 13029
SWIDTH 1000 0
DWIDTH 12 0
BBX 12 11 0 -1
BITMAP
0F00
30C0
4020
9FA0
8010
8010
8010
BFE0
4020
30C0
0F00
ENDCHAR
STARTCHAR 32E6
ENCODING 13030
SWIDTH 1000 0
DWIDTH 12 0
BBX 12 11 0 -1
BITMAP
1F00
30C0
5FA0
8120
8910
8610
8310
8DA0
5820
30C0
0F00
ENDCHAR
STARTCHAR 32E7
ENCODING 13031
SWIDTH 1000 0
DWIDTH 12 0
BBX 12 12 0 -1
BITMAP
0F00
10C0
6420
4220
9FA0
8110
8210
8FA0
5260
4220
32C0
0F00
ENDCHAR
STARTCHAR 32E8
ENCODING 13032
SWIDTH 1000 0
DWIDTH 12 0
BBX 12 11 0 -1
BITMAP
1F00
30C0
4120
8120
8110
8210
8410
8820
5020
30C0
0F00
ENDCHAR
STARTCHAR 32E9
ENCODING 13033
SWIDTH 1000 0
DWIDTH 12 0
BBX 12 11 0 -1
BITMAP
1F00
30C0
4020
8920
8890
9090
9050
A060
4020
30C0
0F00
ENDCHAR
STARTCHAR 32EA
ENCODING 13034
SWIDTH 1000 0
DWIDTH 12 0
BBX 12 11 0 -1
BITMAP
1F00
30C0
5020
91A0
9610
9810
9010
9020
4FA0
30C0
0F00
ENDCHAR
STARTCHAR 32EB
ENCODING 13035
SWIDTH 1000 0
DWIDTH 12 0
BBX 12 11 0 -1
BITMAP
1F00
30C0
4020
9FA0
8090
8090
8110
8220
4C20
30C0
0F00
ENDCHAR
STARTCHAR 32EC
ENCODING 13036
SWIDTH 1000 0
DWIDTH 12 0
BBX 12 11 0 -1
BITMAP
1F00
30C0
4020
8C20
9A10
B110
A090
8060
4020
30C0
0F00
ENDCHAR
STARTCHAR 32ED
ENCODING 13037
SWIDTH 1000 0
DWIDTH 12 0
BBX 12 12 0 -1
BITMAP
0F00
10C0
6020
4420
BFE0
8410
9490
94A0
6460
4C20
30C0
0F00
ENDCHAR
STARTCHAR 32EE
ENCODING 13038
SWIDTH 1000 0
DWIDTH 12 0
BBX 12 11 0 -1
BITMAP
1F00
30C0
4020
BFE0
8090
8910
8610
8220
4320
30C0
0F00
ENDCHAR
STARTCHAR 32EF
ENCODING 13039
SWIDTH 1000 0
DWIDTH 12 0
BBX 12 11 0 -1
BITMAP
1F00
30C0
4E20
8120
8C10
8310
9010
8E20
41A0
30C0
0F00
ENDCHAR
STARTCHAR 32F0
ENCODING 13040
SWIDTH 1000 0
DWIDTH 12 0
BBX 12 11 0 -1
BITMAP
1F00
34C0
4420
8420
8910
8910
8890
BF60
4020
30C0
0F00
ENDCHAR
STARTCHAR 32F1
ENCODING 13041
SWIDTH 1000 0
DWIDTH 12 0
BBX 12 11 0 -1
BITMAP
1F00
31C0
4120
8920
8610
8710
8590
8820
5020
30C0
0F00
ENDCHAR
STARTCHAR 32F2
ENCODING 13042
SWIDTH 1000 0
DWIDTH 12 0
BBX 12 12 0 -2
BITMAP
1F00
30C0
5FA0
4420
8420
BFD0
8410
8420
47A0
4020
30C0
0F00
ENDCHAR
STARTCHAR 32F3
ENCODING 13043
SWIDTH 1000 0
DWIDTH 12 0
BBX 12 11 0 -1
BITMAP
1F00
30C0
4820
89E0
BE90
8490
8510
8420
4420
30C0
0F00
ENDCHAR
STARTCHAR 32F4
ENCODING 13044
SWIDTH 1000 0
DWIDTH 12 0
BBX 12 12 0 -1
BITMAP
0F00
10C0
6020
5F20
8120
8110
8110
8120
7FE0
4020
30C0
0F00
ENDCHAR
STARTCHAR 32F5
ENCODING 13045
SWIDTH 1000 0
DWIDTH 12 0
BBX 12 12 0 -1
BITMAP
0F00
10C0
6020
5FA0
80A0
8090
9F90
80A0
5FA0
40A0
30C0
0F00
ENDCHAR
STARTCHAR 32F6
ENCODING 13046
SWIDTH 1000 0
DWIDTH 12 0
BBX 12 11 0 -1
BITMAP
1F00
30C0
5FA0
8020
BF90
8090
8090
8120
4620
30C0
0F00
ENDCHAR
STARTCHAR 32F7
ENCODING 13047
SWIDTH 1000 0
DWIDTH 12 0
BBX 12 11 0 -1
BITMAP
0F00
30C0
4920
8920
8910
8910
8110
8120
4220
34C0
0F00
ENDCHAR
STARTCHAR 32F8
ENCODING 13048
SWIDTH 1000 0
DWIDTH 12 0
BBX 12 11 0 -1
BITMAP
1F00
30C0
4A20
8A20
8A10
8A70
8A50
93A0
4220
30C0
0F00
ENDCHAR
STARTCHAR 32F9
ENCODING 13049
SWIDTH 1000 0
DWIDTH 12 0
BBX 12 11 0 -1
BITMAP
1F00
30C0
4820
8820
8810
8850
8890
8B20
4C20
30C0
0F00
ENDCHAR
STARTCHAR 32FA
ENCODING 13050
SWIDTH 1000 0
DWIDTH 12 0
BBX 12 12 0 -1
BITMAP
0F00
10C0
6020
5FA0
90A0
9090
9090
90A0
5FA0
50A0
30C0
0F00
ENDCHAR
STARTCHAR 32FB
ENCODING 13051
SWIDTH 1000 0
DWIDTH 12 0
BBX 12 12 0 -2
BITMAP
0F00
30C0
4020
5FA0
90A0
9090
8090
8120
4220
4420
30C0
0F00
ENDCHAR
STARTCHAR 32FC
ENCODING 13052
SWIDTH 1000 0
DWIDTH 12 0
BBX 12 12 0 -1
BITMAP
0F00
10C0
6220
4220
9FA0
8A10
8A10
BFE0
4220
4220
30C0
0F00
ENDCHAR
STARTCHAR 32FD
ENCODING 13053
SWIDTH 1000 0
DWIDTH 12 0
BBX 12 11 0 -1
BITMAP
0F00
30C0
4020
9FA0
8090
8510
8410
BFE0
4020
30C0
0F00
ENDCHAR
STARTCHAR 32FE
ENCODING 13054
SWIDTH 1000 0
DWIDTH 12 0
BBX 12 13 0 -2
BITMAP
0F00
10C0
2040
5FA0
80A0
8090
9F90
8110
8120
4220
2C40
30C0
0F00
ENDCHAR
STARTCHAR 32FF
ENCODING 13055
SWIDTH 1000 0
DWIDTH 12 0
BBX 10 11 1 -1
BITMAP
2000
2300
52C0
92C0
EAC0
02C0
73C0
52C0
56C0
52C0
0280
ENDCHAR
STARTCHAR 3300
ENCODING 13056
SWIDTH 1000 0
DWIDTH 12 0
BBX 10 10 1 0
BITMAP
F840
1200
5280
4440
8000
0100
0100
F980
0140
0100
ENDCHAR
STARTCHAR 3301
ENCODING 13057
SWIDTH 1000 0
DWIDTH 12 0
BBX 11 10 1 0
BITMAP
FB00
1300
5320
4540
8480
0000
F3C0
1180
2180
4200
ENDCHAR
STARTCHAR 3302
ENCODING 13058
SWIDTH 1000 0
DWIDTH 12 0
BBX 10 11 1 -1
BITMAP
FA00
1200
5040
4080
4300
0000
1FC0
7940
9180
0900
0200
ENDCHAR
STARTCHAR 3303
ENCODING 13059
SWIDTH 1000 0
DWIDTH 12 0
BBX 10 10 1 -1
BITMAP
F800
1000
57C0
4000
4000
0000
2000
A000
A800
B000
ENDCHAR
STARTCHAR 3304
ENCODING 13060
SWIDTH 1000 0
DWIDTH 12 0
BBX 10 11 1 -1
BITMAP
1000
2380
6000
A000
27C0
2000
8380
1280
1480
6100
8200
ENDCHAR
STARTCHAR 3305
ENCODING 13061
SWIDTH 1000 0
DWIDTH 12 0
BBX 10 10 1 0
BITMAP
1200
6040
A080
2100
2200
3000
6000
F800
2000
4000
ENDCHAR
STARTCHAR 3306
ENCODING 13062
SWIDTH 1000 0
DWIDTH 12 0
BBX 10 11 1 -1
BITMAP
2000
F880
93C0
9080
1380
6180
8000
4800
1000
2000
C000
ENDCHAR
STARTCHAR 3307
ENCODING 13063
SWIDTH 1000 0
DWIDTH 12 0
BBX 10 11 1 -1
BITMAP
0380
F080
2080
2180
FA40
0000
4000
EF00
21C0
4100
8000
ENDCHAR
STARTCHAR 3308
ENCODING 13064
SWIDTH 1000 0
DWIDTH 12 0
BBX 10 9 1 0
BITMAP
F800
27C0
2000
F800
0000
4000
F7C0
5000
F000
ENDCHAR
STARTCHAR 3309
ENCODING 13065
SWIDTH 1000 0
DWIDTH 12 0
BBX 10 11 1 -1
BITMAP
2200
FA40
2040
6080
A300
0000
F000
1000
2000
5000
8800
ENDCHAR
STARTCHAR 330A
ENCODING 13066
SWIDTH 1000 0
DWIDTH 12 0
BBX 10 11 1 -1
BITMAP
2000
F800
27C0
6000
A000
0000
0000
4000
5000
9000
E800
ENDCHAR
STARTCHAR 330B
ENCODING 13067
SWIDTH 1000 0
DWIDTH 12 0
BBX 9 11 1 -1
BITMAP
2080
F080
5300
5100
B100
0000
9000
9000
9000
1000
2000
ENDCHAR
STARTCHAR 330C
ENCODING 13068
SWIDTH 1000 0
DWIDTH 12 0
BBX 10 12 1 -2
BITMAP
43C0
F000
53C0
5040
5080
B300
0100
0100
B100
11C0
2100
4100
ENDCHAR
STARTCHAR 330D
ENCODING 13069
SWIDTH 1000 0
DWIDTH 12 0
BBX 10 9 1 0
BITMAP
F3C0
5440
5440
B3C0
0000
9000
97C0
1000
2000
ENDCHAR
STARTCHAR 330E
ENCODING 13070
SWIDTH 1000 0
DWIDTH 12 0
BBX 10 10 1 0
BITMAP
F3C0
5440
5440
93C0
B000
8000
4000
1000
2000
C000
ENDCHAR
STARTCHAR 330F
ENCODING 13071
SWIDTH 1000 0
DWIDTH 12 0
BBX 10 10 1 -1
BITMAP
0800
4A00
F240
5080
B300
0000
F800
1000
6000
2000
ENDCHAR
STARTCHAR 3310
ENCODING 13072
SWIDTH 1000 0
DWIDTH 12 0
BBX 10 12 1 -2
BITMAP
0400
2000
F000
2800
F000
2000
0240
07C0
0240
0280
0480
0180
ENDCHAR
STARTCHAR 3311
ENCODING 13073
SWIDTH 1000 0
DWIDTH 12 0
BBX 10 9 1 2
BITMAP
4800
73C0
C000
F000
27C0
2000
0000
0000
F800
ENDCHAR
STARTCHAR 3312
ENCODING 13074
SWIDTH 1000 0
DWIDTH 12 0
BBX 10 9 1 0
BITMAP
7000
2380
F080
23C0
0000
9000
97C0
1000
2000
ENDCHAR
STARTCHAR 3313
ENCODING 13075
SWIDTH 1000 0
DWIDTH 12 0
BBX 10 12 1 -2
BITMAP
0800
4300
E300
7540
A480
2000
0800
7000
5000
D7C0
2000
4000
ENDCHAR
STARTCHAR 3314
ENCODING 13076
SWIDTH 1000 0
DWIDTH 12 0
BBX 10 9 1 1
BITMAP
2800
F000
3800
E000
2000
07C0
0440
0440
07C0
ENDCHAR
STARTCHAR 3315
ENCODING 13077
SWIDTH 1000 0
DWIDTH 12 0
BBX 11 11 0 -1
BITMAP
2000
29E0
7220
7A20
11E0
1000
5600
7780
91A0
22A0
44C0
ENDCHAR
STARTCHAR 3316
ENCODING 13078
SWIDTH 1000 0
DWIDTH 12 0
BBX 11 9 0 0
BITMAP
5720
2560
E520
2740
2000
08C0
74C0
0B60
0960
ENDCHAR
STARTCHAR 3317
ENCODING 13079
SWIDTH 1000 0
DWIDTH 12 0
BBX 10 11 1 -1
BITMAP
4000
53C0
E440
F440
23C0
2000
E080
A480
2EC0
2280
4480
ENDCHAR
STARTCHAR 3318
ENCODING 13080
SWIDTH 1000 0
DWIDTH 12 0
BBX 10 11 1 0
BITMAP
2FC0
7000
53C0
9040
2080
4100
0000
4000
5000
9800
E800
ENDCHAR
STARTCHAR 3319
ENCODING 13081
SWIDTH 1000 0
DWIDTH 12 0
BBX 12 12 0 -1
BITMAP
5600
3040
5780
91A0
22A0
44D0
2000
2100
3020
2840
2180
2000
ENDCHAR
STARTCHAR 331A
ENCODING 13082
SWIDTH 1000 0
DWIDTH 12 0
BBX 11 11 0 -1
BITMAP
2080
3A80
4A80
12A0
20C0
0100
42E0
F2A0
46A0
42E0
3200
ENDCHAR
STARTCHAR 331B
ENCODING 13083
SWIDTH 1000 0
DWIDTH 12 0
BBX 10 11 1 -1
BITMAP
2000
73C0
5440
9440
23C0
4000
03C0
F880
0100
0740
0100
ENDCHAR
STARTCHAR 331C
ENCODING 13084
SWIDTH 1000 0
DWIDTH 12 0
BBX 10 11 1 -1
BITMAP
4000
7800
A7C0
2000
2000
4000
F000
1000
2000
5000
8800
ENDCHAR
STARTCHAR 331D
ENCODING 13085
SWIDTH 1000 0
DWIDTH 12 0
BBX 10 10 1 -1
BITMAP
F300
1300
1540
F480
0000
2000
F800
2000
4000
4000
ENDCHAR
STARTCHAR 331E
ENCODING 13086
SWIDTH 1000 0
DWIDTH 12 0
BBX 10 11 1 -1
BITMAP
F000
1000
17C0
1000
F000
0000
2800
F800
2000
A800
6000
ENDCHAR
STARTCHAR 331F
ENCODING 13087
SWIDTH 1000 0
DWIDTH 12 0
BBX 10 12 1 -2
BITMAP
5080
F880
5300
5100
2100
0000
4100
7300
9300
1540
2580
4000
ENDCHAR
STARTCHAR 3320
ENCODING 13088
SWIDTH 1000 0
DWIDTH 12 0
BBX 10 11 1 -1
BITMAP
5200
FA40
5040
1180
6200
2000
4100
FF00
4140
4140
8180
ENDCHAR
STARTCHAR 3321
ENCODING 13089
SWIDTH 1000 0
DWIDTH 12 0
BBX 11 12 1 -2
BITMAP
0200
4280
8A80
1280
6080
0100
8160
4380
1280
3480
4100
0200
ENDCHAR
STARTCHAR 3322
ENCODING 13090
SWIDTH 1000 0
DWIDTH 12 0
BBX 10 10 1 -1
BITMAP
4200
F840
5080
4100
3A00
3000
6000
F800
2000
4000
ENDCHAR
STARTCHAR 3323
ENCODING 13091
SWIDTH 1000 0
DWIDTH 12 0
BBX 10 11 1 -1
BITMAP
4000
7A40
D040
4080
7B00
0000
4000
4000
7000
4000
4000
ENDCHAR
STARTCHAR 3324
ENCODING 13092
SWIDTH 1000 0
DWIDTH 12 0
BBX 10 11 1 -1
BITMAP
2C00
7000
D7C0
2000
4000
0000
F000
1000
2000
5000
8800
ENDCHAR
STARTCHAR 3325
ENCODING 13093
SWIDTH 1000 0
DWIDTH 12 0
BBX 10 10 1 0
BITMAP
7000
FC00
2000
2000
4600
0000
0640
0080
0300
0400
ENDCHAR
STARTCHAR 3326
ENCODING 13094
SWIDTH 1000 0
DWIDTH 12 0
BBX 9 10 2 -1
BITMAP
9000
8000
C000
B000
8000
8000
0A00
0A00
0A80
1300
ENDCHAR
STARTCHAR 3327
ENCODING 13095
SWIDTH 1000 0
DWIDTH 12 0
BBX 9 10 2 0
BITMAP
8000
8000
C000
A000
8000
8000
0C80
0100
0100
0E00
ENDCHAR
STARTCHAR 3328
ENCODING 13096
SWIDTH 1000 0
DWIDTH 12 0
BBX 9 11 1 -1
BITMAP
1000
1000
FC00
1000
2000
2000
0080
0100
0100
0200
0400
ENDCHAR
STARTCHAR 3329
ENCODING 13097
SWIDTH 1000 0
DWIDTH 12 0
BBX 9 10 1 -1
BITMAP
1000
1100
2380
2080
C100
0000
4000
2000
5800
4000
ENDCHAR
STARTCHAR 332A
ENCODING 13098
SWIDTH 1000 0
DWIDTH 12 0
BBX 10 11 1 -1
BITMAP
0040
5080
5180
8A80
0080
0000
C800
9000
1000
2000
4000
ENDCHAR
STARTCHAR 332B
ENCODING 13099
SWIDTH 1000 0
DWIDTH 12 0
BBX 10 12 1 -1
BITMAP
0800
0800
5000
97C0
8800
0000
0080
8880
E180
A2C0
8480
6880
ENDCHAR
STARTCHAR 332D
ENCODING 13101
SWIDTH 1000 0
DWIDTH 12 0
BBX 10 12 1 -1
BITMAP
0800
0000
5000
97C0
8800
0000
0000
8300
8300
9540
A480
4000
ENDCHAR
STARTCHAR 332E
ENCODING 13102
SWIDTH 1000 0
DWIDTH 12 0
BBX 11 12 1 -1
BITMAP
0800
97C0
9140
E180
8100
F200
0800
E980
2980
4DA0
6AC0
AA80
ENDCHAR
STARTCHAR 332F
ENCODING 13103
SWIDTH 1000 0
DWIDTH 12 0
BBX 10 11 1 -1
BITMAP
1D00
99C0
6240
8080
7080
0300
2000
6000
A800
A800
9000
ENDCHAR
STARTCHAR 3330
ENCODING 13104
SWIDTH 1000 0
DWIDTH 12 0
BBX 10 11 1 0
BITMAP
0C00
8C00
9800
E000
8000
F800
0000
07C0
0040
0040
07C0
ENDCHAR
STARTCHAR 3331
ENCODING 13105
SWIDTH 1000 0
DWIDTH 12 0
BBX 10 11 1 -1
BITMAP
8C00
8000
F000
8000
8000
F800
0500
0500
0540
0580
0800
ENDCHAR
STARTCHAR 3332
ENCODING 13106
SWIDTH 1000 0
DWIDTH 12 0
BBX 11 11 1 -1
BITMAP
F000
13C0
1180
2180
4200
0000
E120
F680
2B40
4500
CD00
ENDCHAR
STARTCHAR 3333
ENCODING 13107
SWIDTH 1000 0
DWIDTH 12 0
BBX 10 9 1 0
BITMAP
F800
1080
1300
6100
0100
0100
F980
0140
0100
ENDCHAR
STARTCHAR 3334
ENCODING 13108
SWIDTH 1000 0
DWIDTH 12 0
BBX 10 10 1 0
BITMAP
0C00
F000
1140
1080
6180
0000
8180
A980
49C0
DEC0
ENDCHAR
STARTCHAR 3335
ENCODING 13109
SWIDTH 1000 0
DWIDTH 12 0
BBX 10 11 1 -1
BITMAP
03C0
F000
13C0
1040
2080
4300
0000
C000
1000
2000
C000
ENDCHAR
STARTCHAR 3336
ENCODING 13110
SWIDTH 1000 0
DWIDTH 12 0
BBX 11 11 0 -1
BITMAP
0080
30E0
4920
4440
0080
2000
3040
5140
BF60
2160
4140
ENDCHAR
STARTCHAR 3337
ENCODING 13111
SWIDTH 1000 0
DWIDTH 12 0
BBX 10 11 1 -1
BITMAP
0800
6800
D000
0800
0000
0040
0440
0240
0080
0100
0200
ENDCHAR
STARTCHAR 3338
ENCODING 13112
SWIDTH 1000 0
DWIDTH 12 0
BBX 10 10 1 0
BITMAP
1800
5BC0
A000
1000
0FC0
0000
9000
E000
8000
F000
ENDCHAR
STARTCHAR 3339
ENCODING 13113
SWIDTH 1000 0
DWIDTH 12 0
BBX 11 10 1 0
BITMAP
4300
B320
1B40
0480
0000
D000
9000
1000
2000
4000
ENDCHAR
STARTCHAR 333A
ENCODING 13114
SWIDTH 1000 0
DWIDTH 12 0
BBX 10 11 1 -1
BITMAP
1800
7A00
A040
1880
0300
0000
F000
1000
2000
5000
8800
ENDCHAR
STARTCHAR 333B
ENCODING 13115
SWIDTH 1000 0
DWIDTH 12 0
BBX 10 11 1 -1
BITMAP
1800
7800
B7C0
1800
0000
0800
4000
8800
1000
2000
C000
ENDCHAR
STARTCHAR 333C
ENCODING 13116
SWIDTH 1000 0
DWIDTH 12 0
BBX 10 11 1 -1
BITMAP
0800
6000
B7C0
1800
0000
0000
7000
9000
E000
2000
C000
ENDCHAR
STARTCHAR 333D
ENCODING 13117
SWIDTH 1000 0
DWIDTH 12 0
BBX 10 12 1 -1
BITMAP
1800
2880
F880
2380
A880
E080
0000
8100
4900
11C0
2100
4100
ENDCHAR
STARTCHAR 333E
ENCODING 13118
SWIDTH 1000 0
DWIDTH 12 0
BBX 10 12 1 -1
BITMAP
0800
2200
FB00
2300
B340
6C80
0000
4000
4000
7000
4000
4000
ENDCHAR
STARTCHAR 333F
ENCODING 13119
SWIDTH 1000 0
DWIDTH 12 0
BBX 10 10 1 -1
BITMAP
2000
F800
2000
A800
A000
6000
0200
0040
0080
0300
ENDCHAR
STARTCHAR 3340
ENCODING 13120
SWIDTH 1000 0
DWIDTH 12 0
BBX 10 12 1 -1
BITMAP
1800
2A00
F940
2040
A880
6B00
0000
5800
4000
7000
4000
4000
ENDCHAR
STARTCHAR 3341
ENCODING 13121
SWIDTH 1000 0
DWIDTH 12 0
BBX 10 9 1 -1
BITMAP
2000
FFC0
A800
6800
0000
2000
A000
A800
B000
ENDCHAR
STARTCHAR 3342
ENCODING 13122
SWIDTH 1000 0
DWIDTH 12 0
BBX 10 11 1 -1
BITMAP
2000
F800
27C0
A800
6800
0000
8000
4800
1000
2000
C000
ENDCHAR
STARTCHAR 3343
ENCODING 13123
SWIDTH 1000 0
DWIDTH 12 0
BBX 10 10 1 0
BITMAP
F880
1100
6700
0100
0000
73C0
9440
1440
23C0
4000
ENDCHAR
STARTCHAR 3344
ENCODING 13124
SWIDTH 1000 0
DWIDTH 12 0
BBX 10 11 1 -1
BITMAP
0040
F880
1180
5280
2080
0080
0000
6000
6000
A800
9000
ENDCHAR
STARTCHAR 3345
ENCODING 13125
SWIDTH 1000 0
DWIDTH 12 0
BBX 10 9 1 0
BITMAP
F800
1340
6240
2080
0100
0000
5000
8800
8800
ENDCHAR
STARTCHAR 3346
ENCODING 13126
SWIDTH 1000 0
DWIDTH 12 0
BBX 10 11 1 -2
BITMAP
FB00
1300
6540
2540
0080
0000
7000
9000
1000
2000
4000
ENDCHAR
STARTCHAR 3347
ENCODING 13127
SWIDTH 1000 0
DWIDTH 12 0
BBX 10 9 1 -1
BITMAP
FA00
1040
6080
0300
8100
2D40
A440
4C80
CD00
ENDCHAR
STARTCHAR 3348
ENCODING 13128
SWIDTH 1000 0
DWIDTH 12 0
BBX 10 11 1 -1
BITMAP
6100
11C0
6240
0080
7100
0200
F200
9040
9080
F100
0200
ENDCHAR
STARTCHAR 3349
ENCODING 13129
SWIDTH 1000 0
DWIDTH 12 0
BBX 8 11 2 -1
BITMAP
C0
20
C0
20
C0
21
09
09
01
01
02
ENDCHAR
STARTCHAR 334A
ENCODING 13130
SWIDTH 1000 0
DWIDTH 12 0
BBX 11 11 0 0
BITMAP
2100
1940
3140
0040
3040
0880
0040
5140
5740
4960
8940
ENDCHAR
STARTCHAR 334B
ENCODING 13131
SWIDTH 1000 0
DWIDTH 12 0
BBX 10 11 1 -2
BITMAP
0800
5000
3000
2800
C000
0240
07C0
0240
0280
0480
0180
ENDCHAR
STARTCHAR 334C
ENCODING 13132
SWIDTH 1000 0
DWIDTH 12 0
BBX 10 11 1 0
BITMAP
1140
57C0
2140
5240
8580
0000
4600
4240
7080
4100
4200
ENDCHAR
STARTCHAR 334D
ENCODING 13133
SWIDTH 1000 0
DWIDTH 12 0
BBX 10 11 1 -1
BITMAP
1000
5000
27C0
5000
8000
0000
4300
4300
7540
4580
4000
ENDCHAR
STARTCHAR 334E
ENCODING 13134
SWIDTH 1000 0
DWIDTH 12 0
BBX 10 11 1 -1
BITMAP
4000
7800
D7C0
5000
2000
0000
5800
4000
7000
4000
4000
ENDCHAR
STARTCHAR 334F
ENCODING 13135
SWIDTH 1000 0
DWIDTH 12 0
BBX 10 10 1 -1
BITMAP
4000
7800
D7C0
5000
2000
0000
2000
A000
A800
B000
ENDCHAR
STARTCHAR 3350
ENCODING 13136
SWIDTH 1000 0
DWIDTH 12 0
BBX 10 10 1 -1
BITMAP
F7C0
1100
1100
FA00
0200
8000
4000
1000
2000
C000
ENDCHAR
STARTCHAR 3351
ENCODING 13137
SWIDTH 1000 0
DWIDTH 12 0
BBX 9 11 2 -1
BITMAP
2000
A200
A680
2100
4200
0000
8600
8600
EA80
8B00
8000
ENDCHAR
STARTCHAR 3352
ENCODING 13138
SWIDTH 1000 0
DWIDTH 12 0
BBX 9 10 2 0
BITMAP
2000
A000
A000
2000
2000
4F00
0F80
0080
0100
0600
ENDCHAR
STARTCHAR 3353
ENCODING 13139
SWIDTH 1000 0
DWIDTH 12 0
BBX 11 9 1 2
BITMAP
0060
2260
A380
AA00
B3C0
0000
0000
0000
F800
ENDCHAR
STARTCHAR 3354
ENCODING 13140
SWIDTH 1000 0
DWIDTH 12 0
BBX 12 11 0 -1
BITMAP
1000
5000
55E0
5400
9800
0400
7980
0980
0A90
12A0
2240
ENDCHAR
STARTCHAR 3355
ENCODING 13141
SWIDTH 1000 0
DWIDTH 12 0
BBX 9 9 2 1
BITMAP
8000
9000
9000
E000
8000
0400
0400
0900
0F80
ENDCHAR
STARTCHAR 3356
ENCODING 13142
SWIDTH 1000 0
DWIDTH 12 0
BBX 10 10 1 0
BITMAP
8200
8840
9080
6300
0200
9300
9EC0
D440
8880
8900
ENDCHAR
STARTCHAR 3357
ENCODING 13143
SWIDTH 1000 0
DWIDTH 12 0
BBX 10 10 1 -1
BITMAP
F800
8900
9240
1080
2100
0000
4000
2000
5000
4000
ENDCHAR
STARTCHAR 3371
ENCODING 13169
SWIDTH 1000 0
DWIDTH 12 0
BBX 11 9 1 0
BITMAP
8C00
8A00
EAC0
AB40
AC40
A8C0
A940
A940
01A0
ENDCHAR
STARTCHAR 337B
ENCODING 13179
SWIDTH 1000 0
DWIDTH 12 0
BBX 12 11 0 -1
BITMAP
0020
7CA0
13E0
5A80
5BA0
13A0
FF60
1340
1250
14A0
1000
ENDCHAR
STARTCHAR 337C
ENCODING 13180
SWIDTH 1000 0
DWIDTH 12 0
BBX 10 11 1 -1
BITMAP
3B00
DAC0
EAC0
EFC0
FAC0
E2C0
FBC0
EEC0
EAC0
3AC0
2A00
ENDCHAR
STARTCHAR 337D
ENCODING 13181
SWIDTH 1000 0
DWIDTH 12 0
BBX 10 11 1 -1
BITMAP
2000
27C0
2080
F880
2280
22C0
2280
6280
5280
9280
8FC0
ENDCHAR
STARTCHAR 337E
ENCODING 13182
SWIDTH 1000 0
DWIDTH 12 0
BBX 10 10 1 0
BITMAP
FC80
E900
FD40
E940
E880
FDC0
ED40
2D40
4DC0
1D40
ENDCHAR
STARTCHAR 337F
ENCODING 13183
SWIDTH 1000 0
DWIDTH 12 0
BBX 10 11 1 -1
BITMAP
A140
FFC0
BF80
9280
EFC0
0000
6280
FBC0
FA80
5280
EBC0
ENDCHAR
STARTCHAR 3385
ENCODING 13189
SWIDTH 1000 0
DWIDTH 12 0
BBX 10 8 1 1
BITMAP
9780
9440
A440
E780
E440
9440
9440
8F80
ENDCHAR
STARTCHAR 3386
ENCODING 13190
SWIDTH 1000 0
DWIDTH 12 0
BBX 10 8 1 1
BITMAP
8B80
DA40
DA40
DB80
DA40
EA40
AA40
AB80
ENDCHAR
STARTCHAR 3387
ENCODING 13191
SWIDTH 1000 0
DWIDTH 12 0
BBX 10 8 1 1
BITMAP
7380
9A40
8240
8380
BA40
8A40
9A40
6B80
ENDCHAR
STARTCHAR 3388
ENCODING 13192
SWIDTH 1000 0
DWIDTH 12 0
BBX 10 9 1 0
BITMAP
0040
00C0
6D40
AD40
9540
9580
9700
D940
D580
ENDCHAR
STARTCHAR 3389
ENCODING 13193
SWIDTH 1000 0
DWIDTH 12 0
BBX 11 9 1 0
BITMAP
8040
80A0
8AC0
DDC0
D6C0
E680
E680
EEC0
16C0
ENDCHAR
STARTCHAR 338D
ENCODING 13197
SWIDTH 1000 0
DWIDTH 12 0
BBX 11 8 0 -1
BITMAP
00C0
4520
4520
4920
4B20
5AE0
B520
80C0
ENDCHAR
STARTCHAR 338E
ENCODING 13198
SWIDTH 1000 0
DWIDTH 12 0
BBX 10 8 1 -1
BITMAP
5980
AA40
AA40
AA40
AA40
A9C0
0240
03C0
ENDCHAR
STARTCHAR 338F
ENCODING 13199
SWIDTH 1000 0
DWIDTH 12 0
BBX 10 10 1 -1
BITMAP
8000
8000
8000
93C0
A440
E440
9440
93C0
8840
0380
ENDCHAR
STARTCHAR 3390
ENCODING 13200
SWIDTH 1000 0
DWIDTH 12 0
BBX 10 8 1 1
BITMAP
8800
8800
8800
8BC0
F880
8900
8A00
8BC0
ENDCHAR
STARTCHAR 3396
ENCODING 13206
SWIDTH 1000 0
DWIDTH 12 0
BBX 10 9 1 0
BITMAP
00C0
0140
7940
AA40
AA80
AA80
A900
AB40
00C0
ENDCHAR
STARTCHAR 3397
ENCODING 13207
SWIDTH 1000 0
DWIDTH 12 0
BBX 10 9 1 0
BITMAP
0980
0980
6A80
5A80
8A80
8B00
8B40
5E40
6180
ENDCHAR
STARTCHAR 3398
ENCODING 13208
SWIDTH 1000 0
DWIDTH 12 0
BBX 9 9 2 0
BITMAP
8300
8500
8500
A500
C500
C600
A680
BC80
0300
ENDCHAR
STARTCHAR 339B
ENCODING 13211
SWIDTH 1000 0
DWIDTH 12 0
BBX 11 8 0 -1
BITMAP
01E0
4AA0
4AA0
4AA0
4AA0
DEA0
AC00
8000
ENDCHAR
STARTCHAR 339C
ENCODING 13212
SWIDTH 1000 0
DWIDTH 12 0
BBX 10 6 1 1
BITMAP
53C0
AD40
AD40
AD40
AD40
AD40
ENDCHAR
STARTCHAR 339D
ENCODING 13213
SWIDTH 1000 0
DWIDTH 12 0
BBX 10 7 1 0
BITMAP
62C0
9540
8940
8940
9940
9940
6000
ENDCHAR
STARTCHAR 339E
ENCODING 13214
SWIDTH 1000 0
DWIDTH 12 0
BBX 10 8 1 1
BITMAP
8000
8000
82C0
B540
E540
E540
A540
9540
ENDCHAR
STARTCHAR 339F
ENCODING 13215
SWIDTH 1000 0
DWIDTH 12 0
BBX 11 10 1 0
BITMAP
0060
0020
0040
0060
53C0
AD40
AD40
AD40
AD40
AD40
ENDCHAR
STARTCHAR 33A0
ENCODING 13216
SWIDTH 1000 0
DWIDTH 12 0
BBX 11 11 1 -1
BITMAP
0060
0020
0040
0060
62C0
9540
8940
8940
9940
9940
6000
ENDCHAR
STARTCHAR 33A1
ENCODING 13217
SWIDTH 1000 0
DWIDTH 12 0
BBX 8 10 2 0
BITMAP
03
03
02
03
36
D9
91
91
91
91
ENDCHAR
STARTCHAR 33A2
ENCODING 13218
SWIDTH 1000 0
DWIDTH 12 0
BBX 11 10 1 0
BITMAP
0060
8020
8040
8060
82C0
B540
C540
A540
A540
9540
ENDCHAR
STARTCHAR 33A3
ENCODING 13219
SWIDTH 1000 0
DWIDTH 12 0
BBX 11 9 1 1
BITMAP
0060
0040
0060
53C0
AD40
AD40
AD40
AD40
AD40
ENDCHAR
STARTCHAR 33A4
ENCODING 13220
SWIDTH 1000 0
DWIDTH 12 0
BBX 11 10 1 0
BITMAP
0060
0040
0060
62C0
9540
8940
8940
9940
9940
6000
ENDCHAR
STARTCHAR 33A5
ENCODING 13221
SWIDTH 1000 0
DWIDTH 12 0
BBX 8 9 2 1
BITMAP
03
01
03
36
D9
91
91
91
91
ENDCHAR
STARTCHAR 33A6
ENCODING 13222
SWIDTH 1000 0
DWIDTH 12 0
BBX 11 9 1 1
BITMAP
0060
8040
8060
82C0
B540
E540
E540
A540
9540
ENDCHAR
STARTCHAR 33B0
ENCODING 13232
SWIDTH 1000 0
DWIDTH 12 0
BBX 10 8 1 -1
BITMAP
3380
CA40
8A00
8980
C840
F240
83C0
8000
ENDCHAR
STARTCHAR 33B1
ENCODING 13233
SWIDTH 1000 0
DWIDTH 12 0
BBX 10 7 1 0
BITMAP
3380
CA40
8A00
8980
8840
8A40
03C0
ENDCHAR
STARTCHAR 33B2
ENCODING 13234
SWIDTH 1000 0
DWIDTH 12 0
BBX 11 8 0 -1
BITMAP
00E0
4520
4480
4860
4A20
5B20
B4E0
8000
ENDCHAR
STARTCHAR 33B3
ENCODING 13235
SWIDTH 1000 0
DWIDTH 12 0
BBX 10 7 1 0
BITMAP
7980
AA40
A700
A580
A440
A640
01C0
ENDCHAR
STARTCHAR 33C2
ENCODING 13250
SWIDTH 1000 0
DWIDTH 12 0
BBX 11 7 1 0
BITMAP
E280
A580
2580
E580
A580
ADA0
D000
ENDCHAR
STARTCHAR 33C4
ENCODING 13252
SWIDTH 1000 0
DWIDTH 12 0
BBX 10 7 1 0
BITMAP
7180
5240
8200
8200
8A40
5240
7180
ENDCHAR
STARTCHAR 33C8
ENCODING 13256
SWIDTH 1000 0
DWIDTH 12 0
BBX 10 8 1 1
BITMAP
1780
1440
7440
9780
9440
9440
9440
7780
ENDCHAR
STARTCHAR 33CB
ENCODING 13259
SWIDTH 1000 0
DWIDTH 12 0
BBX 9 9 2 0
BITMAP
8F00
8880
8880
8880
FF00
8800
8800
8800
8800
ENDCHAR
STARTCHAR 33CD
ENCODING 13261
SWIDTH 1000 0
DWIDTH 12 0
BBX 9 8 1 1
BITMAP
A480
A500
C500
C600
C700
A500
A500
AC80
ENDCHAR
STARTCHAR 33D4
ENCODING 13268
SWIDTH 1000 0
DWIDTH 12 0
BBX 10 9 1 0
BITMAP
0200
0200
7B80
AA40
AA40
AA40
AA40
AA40
0180
ENDCHAR
STARTCHAR 33D7
ENCODING 13271
SWIDTH 1000 0
DWIDTH 12 0
BBX 10 11 1 -2
BITMAP
0440
0440
0440
E440
97C0
9440
9440
9440
E440
8000
8000
ENDCHAR
STARTCHAR 33D8
ENCODING 13272
SWIDTH 1000 0
DWIDTH 12 0
BBX 11 8 1 -1
BITMAP
6280
9580
9580
9580
9580
EDA0
8000
8000
ENDCHAR
STARTCHAR 33DA
ENCODING 13274
SWIDTH 1000 0
DWIDTH 12 0
BBX 10 9 1 0
BITMAP
F380
9C40
8C40
8CC0
F380
8480
8480
8440
8040
ENDCHAR
STARTCHAR 3402
ENCODING 13314
SWIDTH 1000 0
DWIDTH 12 0
BBX 10 11 1 -1
BITMAP
1000
11C0
FE00
1080
1F80
0000
4200
F7C0
4200
4A40
71C0
ENDCHAR
STARTCHAR 3406
ENCODING 13318
SWIDTH 1000 0
DWIDTH 12 0
BBX 7 11 2 -1
BITMAP
0C
70
7E
42
7E
7E
40
7E
42
42
8C
ENDCHAR
STARTCHAR 342C
ENCODING 13356
SWIDTH 1000 0
DWIDTH 12 0
BBX 10 10 1 0
BITMAP
0800
FFC0
1000
1100
7F80
0000
2900
4900
4940
C9C0
ENDCHAR
STARTCHAR 342E
ENCODING 13358
SWIDTH 1000 0
DWIDTH 12 0
BBX 10 10 1 0
BITMAP
0800
FFC0
3300
D280
FFC0
7F80
FFC0
1480
E300
7CC0
ENDCHAR
STARTCHAR 3468
ENCODING 13416
SWIDTH 1000 0
DWIDTH 12 0
BBX 10 10 1 -1
BITMAP
2F80
5080
4F80
4800
CFC0
5200
5FC0
4600
4500
58C0
ENDCHAR
STARTCHAR 346A
ENCODING 13418
SWIDTH 1000 0
DWIDTH 12 0
BBX 10 11 1 -1
BITMAP
0200
2200
5FC0
4900
C600
FDC0
4F80
4880
4F80
4880
5080
ENDCHAR
STARTCHAR 3492
ENCODING 13458
SWIDTH 1000 0
DWIDTH 12 0
BBX 10 11 1 -1
BITMAP
3680
4E80
5FC0
4900
DFC0
C200
5F80
5FC0
4700
4AC0
5200
ENDCHAR
STARTCHAR 34B5
ENCODING 13493
SWIDTH 1000 0
DWIDTH 12 0
BBX 10 11 1 -1
BITMAP
0800
0800
7F80
4080
7F80
4080
7F80
4080
2300
40C0
8000
ENDCHAR
ENDFONT
